SplineFontDB: 3.0
FontName: DragonLeeSolid
FullName: Dragon Lee Solid
FamilyName: DragonLee
Weight: Black
Copyright: Copyright (c) 2023, Alberto de la Cruz
UComments: "2017-11-29: Created with FontForge (http://fontforge.org)"
Version: 001.000
DefaultBaseFilename: dragon-lee-solid
ItalicAngle: 0
UnderlinePosition: -101
UnderlineWidth: 50
Ascent: 799
Descent: 225
InvalidEm: 0
LayerCount: 2
Layer: 0 0 "Back" 1
Layer: 1 0 "Fore" 0
XUID: [1021 97 -1070742597 4711661]
FSType: 0
OS2Version: 0
OS2_WeightWidthSlopeOnly: 0
OS2_UseTypoMetrics: 1
CreationTime: 1511978515
ModificationTime: 1698719569
PfmFamily: 17
TTFWeight: 900
TTFWidth: 5
LineGap: 92
VLineGap: 0
OS2TypoAscent: 0
OS2TypoAOffset: 1
OS2TypoDescent: 0
OS2TypoDOffset: 1
OS2TypoLinegap: 92
OS2WinAscent: 0
OS2WinAOffset: 1
OS2WinDescent: 0
OS2WinDOffset: 1
HheadAscent: 0
HheadAOffset: 1
HheadDescent: 0
HheadDOffset: 1
OS2Vendor: 'PfEd'
Lookup: 258 0 0 "'kern' Horizontal Kerning in Latin lookup 0" { "'kern' Horizontal Kerning in Latin lookup 0-1" [153,15,0] } ['    ' ('DFLT' <'dflt' > 'latn' <'dflt' > ) 'kern' ('DFLT' <'dflt' > 'latn' <'dflt' > ) ]
MarkAttachClasses: 1
DEI: 91125
KernClass2: 1 1 "'kern' Horizontal Kerning in Latin lookup 0-1"
 0 {}
LangName: 1033
Encoding: win
UnicodeInterp: none
NameList: AGL For New Fonts
DisplaySize: -48
AntiAlias: 1
FitToEm: 0
WinInfo: 54 18 9
BeginPrivate: 0
EndPrivate
TeXData: 1 0 0 346030 173015 115343 0 1048576 115343 783286 444596 497025 792723 393216 433062 380633 303038 157286 324010 404750 52429 2506097 1059062 262144
BeginChars: 280 224

StartChar: A
Encoding: 65 65 0
Width: 636
VWidth: 0
Flags: HW
HStem: 0 797<93 278 343 614>
VStem: 24 254<1 238 399 629> 343 272<0 238 399 648>
LayerCount: 2
Fore
SplineSet
615 0 m 1
 343 0 l 1
 343 238 l 1
 278 238 l 1
 278 0 l 1
 20 0 l 1
 20 0 21 629 24 653 c 0
 27 677 34 701 45 723 c 0
 56 745 73 763 96 777 c 0
 119 791 149 797 184 797 c 2
 614 797 l 1
 615 0 l 1
310 399 m 1
 343 399 l 1
 343 648 l 1
 310 648 l 2
 296 647 287 641 284 630 c 0
 280 618 278 579 278 513 c 2
 278 399 l 1
 310 399 l 1
EndSplineSet
Validated: 1
EndChar

StartChar: B
Encoding: 66 66 1
Width: 637
VWidth: 0
Flags: HW
HStem: 2 152<290 362> 676 124<290 362>
VStem: 19 271<154 363 518 676> 367 237<157 183 183 343 538 657>
LayerCount: 2
Fore
SplineSet
580 406 m 0
 592 384 600 360 603 336 c 0
 606 312 604 183 604 183 c 2
 604 167 603 152 602 146 c 0
 599 122 592 98 580 76 c 0
 568 54 549 36 524 22 c 0
 499 8 467 2 428 2 c 2
 19 1 l 1
 19 800 l 1
 428 800 l 2
 467 800 499 794 524 780 c 0
 549 766 568 748 580 726 c 0
 592 704 600 680 603 656 c 0
 605 642 605 623 605 609 c 0
 605 588 605 556 603 541 c 0
 600 517 592 493 580 471 c 0
 573 459 565 449 555 439 c 1
 565 429 573 418 580 406 c 0
290 676 m 1
 290 518 l 1
 328 518 l 2
 347 518 358 524 362 537 c 0
 364 543 367 586 367 594 c 0
 366 627 364 649 362 657 c 0
 358 670 347 676 328 676 c 2
 290 676 l 1
327 363 m 2
 290 363 l 1
 290 154 l 1
 327 154 l 1
 327 154 l 2
 332 154 336 154 340 155 c 0
 344 156 348 157 351 159 c 0
 356 162 359 167 361 173 c 0
 364 183 366 211 367 258 c 0
 366 305 364 334 361 344 c 0
 357 357 346 363 327 363 c 2
EndSplineSet
Validated: 37
EndChar

StartChar: C
Encoding: 67 67 2
Width: 488
VWidth: 0
Flags: HW
HStem: 0 153<293 463> 643 154<293 463>
VStem: 22 264<173 624>
LayerCount: 2
Fore
SplineSet
463 154 m 2
 463 154 l 1
 463 0 l 1
 207 0 l 2
 167 0 134 7 108 21 c 0
 82 35 62 53 50 76 c 0
 38 99 30 124 27 149 c 0
 24 172 22 215 22 279 c 1
 22 279 l 1
 22 517 l 1
 22 517 l 1
 22 581 24 625 27 648 c 0
 30 673 38 697 50 720 c 0
 62 743 82 762 108 776 c 0
 134 790 167 797 207 797 c 2
 463 797 l 1
 463 643 l 2
 461 643 332 643 326 643 c 2
 326 643 l 2
 308 643 296 637 292 624 c 0
 288 611 286 572 286 504 c 2
 286 293 l 2
 286 225 288 185 292 172 c 0
 296 159 308 153 326 153 c 0
 326 153 461 154 463 154 c 2
EndSplineSet
Validated: 5
EndChar

StartChar: D
Encoding: 68 68 3
Width: 654
VWidth: 0
Flags: HW
HStem: -0 154<290 364> 643 153<290 364>
VStem: 18 272<153 643> 370 264<173 623>
LayerCount: 2
Fore
SplineSet
634 517 m 1
 634 517 l 1
 634 499 l 1
 634 297 l 1
 634 279 l 1
 634 279 l 1
 634 215 632 171 629 148 c 0
 626 123 618 99 606 76 c 0
 594 53 574 35 548 21 c 0
 522 7 490 0 450 -0 c 2
 18 -0 l 1
 18 796 l 1
 450 796 l 2
 490 796 522 789 548 775 c 0
 574 761 594 743 606 720 c 0
 618 697 626 673 629 648 c 0
 632 625 634 581 634 517 c 1
370 292 m 2
 370 504 l 2
 370 572 368 611 364 624 c 0
 360 637 348 643 330 643 c 0
 330 643 l 0
 330 643 l 2
 290 643 l 1
 290 153 l 1
 329 153 l 2
 330 153 l 0
 330 153 l 0
 330 153 l 0
 348 153 360 159 364 172 c 0
 368 185 370 224 370 292 c 2
EndSplineSet
Validated: 5
EndChar

StartChar: E
Encoding: 69 69 4
Width: 538
VWidth: 0
Flags: HW
HStem: 5 160<289 515> 397 160<289 515> 637 160<289 515>
VStem: 20 495<5 165 397 557 637 797> 20 269<165 397 557 637>
LayerCount: 2
Fore
SplineSet
515 637 m 1xf0
 289 637 l 1
 289 557 l 1xe8
 515 557 l 1
 515 397 l 1xf0
 289 397 l 1
 289 165 l 1xe8
 515 165 l 1
 515 5 l 1
 20 5 l 1
 20 797 l 1
 515 797 l 1
 515 637 l 1xf0
EndSplineSet
Validated: 1
EndChar

StartChar: F
Encoding: 70 70 5
Width: 532
VWidth: 0
Flags: HW
HStem: 394 160<286 511> 635 160<286 511>
VStem: 16 270<2 394 554 635>
LayerCount: 2
Fore
SplineSet
511 635 m 1
 286 635 l 1
 286 554 l 1
 511 554 l 1
 511 394 l 1
 286 394 l 1
 286 2 l 1
 16 2 l 1
 16 795 l 1
 250 795 l 1
 286 795 l 1
 511 795 l 1
 511 635 l 1
EndSplineSet
Validated: 1
EndChar

StartChar: G
Encoding: 71 71 6
Width: 647
VWidth: 0
Flags: HW
HStem: 554 239<370 542> 639 153<288 364>
VStem: 17 264<169 620> 382 243<151 314>
LayerCount: 2
Fore
SplineSet
332 475 m 1x70
 332 474 l 1
 625 474 l 1
 624 432 623 163 621 145 c 0
 618 120 610 95 598 72 c 0
 586 49 566 31 540 17 c 0
 514 3 481 -4 441 -4 c 2
 321 -4 l 1
 202 -4 l 2
 162 -4 129 3 103 17 c 0
 77 31 57 49 45 72 c 0
 33 95 25 120 22 145 c 0
 19 168 17 212 17 276 c 1
 17 276 l 1
 17 294 l 1
 17 513 l 1
 17 513 l 1
 17 577 19 621 22 644 c 0
 25 669 33 693 45 716 c 0
 57 739 77 758 103 772 c 0
 129 786 162 793 202 793 c 2
 321 793 l 1x70
 441 793 l 2
 481 793 514 786 540 772 c 0
 566 758 586 739 598 716 c 0
 610 693 618 669 621 644 c 0
 623 626 624 596 625 554 c 1
 370 554 l 2xb0
 369 590 368 612 365 621 c 0
 361 633 350 639 332 639 c 1
 335 639 332 639 332 639 c 0
 332 639 l 1
 330 639 327 639 321 639 c 2
 321 639 l 2
 303 639 291 633 287 620 c 0
 283 607 281 568 281 500 c 2
 281 289 l 2
 281 221 283 181 287 168 c 0
 291 155 303 150 321 150 c 0
 321 150 l 0
 322 150 l 0
 322 150 351 150 348 150 c 1
 366 150 376 156 380 168 c 0
 381 172 382 242 382 314 c 1
 332 314 l 1
 332 475 l 1x70
EndSplineSet
Validated: 5
EndChar

StartChar: H
Encoding: 72 72 7
Width: 674
VWidth: 0
Flags: HW
HStem: 0 21G<20 295 385 657> 398 167<295 385> 778 20G<20 295 385 657>
VStem: 20 275<0 398 565 798> 385 272<0 398 565 798>
LayerCount: 2
Fore
SplineSet
385 798 m 1
 657 798 l 1
 657 0 l 1
 385 0 l 1
 385 398 l 1
 295 398 l 1
 295 0 l 1
 20 0 l 1
 20 798 l 1
 295 798 l 1
 295 565 l 1
 385 565 l 1
 385 798 l 1
EndSplineSet
Validated: 1
EndChar

StartChar: I
Encoding: 73 73 8
Width: 480
VWidth: 0
Flags: HW
HStem: 0 168<21 103 369 447> 641 159<21 103 369 447>
VStem: 21 426<0 168 641 799>
LayerCount: 2
Fore
SplineSet
447 641 m 1
 369 641 l 1
 369 168 l 1
 447 168 l 1
 447 0 l 1
 369 0 l 1
 103 0 l 1
 21 0 l 1
 21 168 l 1
 103 168 l 1
 103 641 l 1
 21 641 l 1
 21 799 l 1
 103 799 l 1
 369 799 l 1
 447 799 l 1
 447 641 l 1
EndSplineSet
Validated: 1
EndChar

StartChar: J
Encoding: 74 74 9
Width: 650
VWidth: 0
Flags: HW
HStem: -1 153<278 355>
VStem: 23 255<153 400> 361 263<171 277 277 793>
LayerCount: 2
Fore
SplineSet
361 793 m 1
 624 793 l 1
 624 277 l 1
 624 277 623 170 620 147 c 0
 617 122 609 98 597 75 c 0
 585 52 565 34 539 20 c 0
 513 6 480 -1 441 -1 c 2
 321 -1 l 1
 202 -1 l 2
 163 -1 129 6 103 20 c 0
 77 34 58 52 46 75 c 0
 34 98 26 122 23 147 c 0
 21 165 19 358 18 400 c 1
 272 400 l 2
 273 364 275 179 278 170 c 0
 282 158 292 152 310 152 c 1
 307 152 310 152 310 152 c 0
 310 152 l 1
 312 152 315 152 320 152 c 0
 321 152 l 0
 321 152 l 0
 321 152 l 0
 339 152 351 158 355 171 c 0
 359 184 361 223 361 290 c 2
 361 793 l 1
EndSplineSet
Validated: 5
EndChar

StartChar: K
Encoding: 75 75 10
Width: 639
VWidth: 0
Flags: HW
HStem: 778 20G<25 297 427 611>
VStem: 25 272<-4 359 491 798> 372 241<-4 356>
LayerCount: 2
Fore
SplineSet
587 392 m 0
 599 370 605 348 608 324 c 0
 610 307 611 36 612 -4 c 1
 372 -4 l 2
 371 30 370 331 367 339 c 0
 363 351 353 359 336 359 c 0
 334 359 296 359 296 359 c 1
 296 -4 l 1
 25 -4 l 1
 25 798 l 1
 296 798 l 1
 297 491 l 1
 436 798 l 1
 611 798 l 1
 458 458 l 1
 530 456 574 416 587 392 c 0
EndSplineSet
Validated: 1
EndChar

StartChar: L
Encoding: 76 76 11
Width: 522
VWidth: 0
Flags: HW
HStem: 0 161<293 499>
VStem: 18 275<161 802>
LayerCount: 2
Fore
SplineSet
293 161 m 1
 499 161 l 1
 499 0 l 1
 18 0 l 1
 18 802 l 1
 293 802 l 1
 293 161 l 1
EndSplineSet
Validated: 1
EndChar

StartChar: M
Encoding: 77 77 12
Width: 817
VWidth: 0
Flags: HW
HStem: -1 21G<18 288 524 794> -1 21G<18 288 524 794> 778 20G<18 288 524 794>
VStem: 18 269<-1 393> 524 269<-1 394>
LayerCount: 2
Fore
SplineSet
524 798 m 1xb8
 794 798 l 1
 794 -1 l 1
 524 -1 l 1
 524 394 l 1
 406 113 l 1
 288 393 l 1
 288 -1 l 1
 18 -1 l 1
 18 798 l 1
 288 798 l 1
 406 522 l 1
 524 798 l 1xb8
EndSplineSet
Validated: 1
EndChar

StartChar: N
Encoding: 78 78 13
Width: 746
VWidth: 0
Flags: HW
VStem: 22 269<2 393> 454 269<2 3 412 802>
LayerCount: 2
Fore
SplineSet
454 802 m 1
 724 802 l 1
 724 2 l 1
 454 2 l 1
 454 3 l 1
 292 393 l 1
 292 2 l 1
 22 2 l 1
 22 802 l 1
 292 802 l 1
 454 412 l 1
 454 802 l 1
EndSplineSet
Validated: 1
EndChar

StartChar: O
Encoding: 79 79 14
Width: 653
VWidth: 0
Flags: HW
HStem: -0 21G<184 464> 778 20G<184 464>
VStem: 19 264<173 625> 364 264<173 625>
LayerCount: 2
Fore
SplineSet
629 518 m 2
 629 518 l 1
 629 518 l 1
 629 500 l 1
 629 298 l 1
 629 280 l 1
 629 280 l 1
 629 216 627 172 624 149 c 0
 621 124 613 99 601 76 c 0
 589 53 569 35 543 21 c 0
 517 7 484 0 444 -0 c 2
 324 -0 l 1
 204 -0 l 2
 164 0 131 7 105 21 c 0
 79 35 59 53 47 76 c 0
 35 99 27 124 24 149 c 0
 21 172 19 216 19 280 c 1
 19 280 l 1
 19 298 l 1
 19 500 l 1
 19 518 l 1
 19 518 l 1
 19 582 21 626 24 649 c 0
 27 674 35 699 47 722 c 0
 59 745 79 763 105 777 c 0
 131 791 164 798 204 798 c 2
 324 798 l 1
 444 798 l 2
 484 798 517 791 543 777 c 0
 569 763 589 745 601 722 c 0
 613 699 621 674 624 649 c 0
 627 626 629 582 629 518 c 2
364 293 m 2
 364 505 l 2
 364 573 362 612 358 625 c 0
 354 638 342 644 324 644 c 0
 324 644 l 0
 324 644 l 0
 306 644 294 638 290 625 c 0
 286 612 284 573 284 505 c 2
 284 293 l 2
 284 225 286 186 290 173 c 0
 294 160 306 154 324 154 c 0
 324 154 l 0
 324 154 l 0
 342 154 354 160 358 173 c 0
 362 186 364 225 364 293 c 2
EndSplineSet
Validated: 5
EndChar

StartChar: P
Encoding: 80 80 15
Width: 632
VWidth: 0
Flags: HW
HStem: -0 21G<18 289> 342 124<289 361> 675 124<289 361>
VStem: 18 272<0 342 467 675> 367 237<486 656>
LayerCount: 2
Fore
SplineSet
604 569 m 0
 604 557 604 544 604 534 c 0
 604 520 604 501 602 487 c 0
 599 463 592 439 580 417 c 0
 568 395 548 377 523 363 c 0
 498 349 466 342 427 342 c 2
 289 342 l 1
 289 153 l 1
 289 0 l 1
 18 -0 l 1
 18 800 l 1
 427 800 l 2
 466 800 498 793 523 779 c 0
 548 765 568 747 580 725 c 0
 592 703 599 679 602 655 c 0
 604 641 604 622 604 608 c 0
 604 597 604 582 604 569 c 0
289 675 m 1
 289 675 l 1
 289 467 l 1
 327 467 l 1
 327 467 l 2
 328 467 328 467 329 467 c 2
 329 467 l 2
 347 467 358 474 361 486 c 0
 363 494 365 515 366 549 c 0
 366 555 367 562 367 569 c 2
 367 569 l 2
 367 578 366 586 366 593 c 0
 365 627 363 648 361 656 c 0
 357 669 346 675 327 675 c 2
 289 675 l 1
EndSplineSet
Validated: 5
EndChar

StartChar: Q
Encoding: 81 81 16
Width: 669
VWidth: 0
Flags: HW
HStem: -226 149<456 542> 777 20G<193 474>
VStem: 28 265<171 624> 374 265<171 624>
LayerCount: 2
Fore
SplineSet
638 517 m 2
 638 517 l 1
 638 517 l 1
 638 498 l 1
 638 297 l 1
 638 278 l 1
 638 278 l 1
 638 213 637 170 634 147 c 0
 631 122 623 98 611 75 c 0
 599 52 579 33 553 19 c 0
 527 5 494 -2 454 -2 c 2
 450 -2 l 2
 451 -32 452 -51 455 -59 c 0
 459 -71 470 -78 488 -78 c 2
 542 -78 l 1
 542 -226 l 1
 372 -226 l 2
 334 -226 302 -219 277 -206 c 0
 252 -193 233 -174 221 -152 c 0
 209 -130 202 -106 199 -82 c 0
 197 -66 196 -39 195 -2 c 2
 195 -2 140 5 114 19 c 0
 88 33 68 52 56 75 c 0
 44 98 36 122 33 147 c 0
 30 170 28 213 28 278 c 1
 28 278 l 1
 28 297 l 1
 28 498 l 1
 28 517 l 1
 28 517 l 1
 28 582 30 625 33 648 c 0
 36 673 44 697 56 720 c 0
 68 743 88 762 114 776 c 0
 140 790 173 797 213 797 c 2
 333 797 l 1
 454 797 l 2
 494 797 527 790 553 776 c 0
 579 762 599 743 611 720 c 0
 623 697 631 673 634 648 c 0
 637 625 638 582 638 517 c 2
293 504 m 2
 293 291 l 2
 293 223 295 184 299 171 c 0
 303 158 315 152 333 152 c 0
 333 152 l 0
 334 152 l 0
 352 152 363 158 367 171 c 0
 371 184 374 223 374 291 c 2
 374 504 l 2
 374 572 371 611 367 624 c 0
 363 637 352 643 334 643 c 0
 333 643 l 0
 333 643 l 0
 315 643 303 637 299 624 c 0
 295 611 293 572 293 504 c 2
EndSplineSet
Validated: 5
EndChar

StartChar: R
Encoding: 82 82 17
Width: 627
VWidth: 0
Flags: HW
HStem: 0 21G<13 284 361 598> 361 105<284 355> 674 124<284 356>
VStem: 13 271<0 361 466 674> 361 238<0 342 474 655>
LayerCount: 2
Fore
SplineSet
597 335 m 0
 598 324 598 292 598 260 c 2
 598 260 l 1
 598 0 l 1
 361 0 l 1
 360 258 l 2
 359 304 358 332 355 342 c 0
 351 355 340 361 321 361 c 2
 284 361 l 1
 284 0 l 1
 13 0 l 1
 13 798 l 1
 422 798 l 2
 461 798 493 792 518 778 c 0
 543 764 562 746 574 724 c 0
 586 702 594 678 597 654 c 0
 599 640 598 621 598 607 c 0
 598 586 599 555 597 540 c 0
 594 516 586 492 574 470 c 0
 567 458 559 447 549 437 c 1
 559 427 567 417 574 405 c 0
 586 383 594 359 597 335 c 0
360 523 m 0
 361 534 362 547 362 564 c 0
 362 574 361 584 361 592 c 0
 360 625 358 647 356 655 c 0
 352 668 341 674 322 674 c 2
 284 674 l 1
 284 466 l 1
 322 466 l 1
 322 466 l 2
 341 466 352 472 356 485 c 0
 358 491 359 504 360 523 c 0
EndSplineSet
Validated: 37
EndChar

StartChar: S
Encoding: 83 83 18
Width: 681
VWidth: 0
Flags: HW
HStem: 2 166<58 370> 634 164<315 574>
LayerCount: 2
Fore
SplineSet
650 291 m 0
 656 226 647 155 621 99 c 0
 607 69 586 46 558 28 c 0
 530 10 494 2 451 2 c 2
 57 2 l 1
 58 168 l 2
 60 168 306 166 330 168 c 0
 333 168 336 169 338 170 c 0
 367 178 387 204 387 235 c 0
 387 272 357 303 320 303 c 2
 205 304 l 2
 171 307 143 315 119 330 c 0
 91 348 70 372 57 402 c 0
 32 458 23 530 30 595 c 0
 32 609 34 622 37 635 c 0
 42 657 50 681 59 701 c 0
 73 731 93 754 121 772 c 0
 149 790 185 798 228 798 c 2
 574 798 l 1
 574 634 l 1
 574 634 366 634 365 634 c 0
 328 634 297 604 297 567 c 0
 297 530 327 499 364 499 c 2
 364 499 508 503 561 469 c 0
 589 451 610 427 623 397 c 0
 632 377 639 353 644 331 c 0
 647 318 649 305 650 291 c 0
EndSplineSet
Validated: 33
EndChar

StartChar: T
Encoding: 84 84 19
Width: 607
VWidth: 0
Flags: HW
HStem: 0 21G<167 437> 640 159<-1 167 437 605>
VStem: 167 270<0 640>
LayerCount: 2
Fore
SplineSet
605 799 m 1
 605 640 l 1
 437 640 l 1
 437 0 l 1
 167 0 l 1
 167 640 l 1
 -1 640 l 1
 -1 799 l 1
 605 799 l 1
EndSplineSet
Validated: 1
EndChar

StartChar: U
Encoding: 85 85 20
Width: 655
VWidth: 0
Flags: HW
HStem: -2 21G<189 470> 779 20G<23 289 370 633>
VStem: 23 265<172 799> 370 264<172 279 279 799>
LayerCount: 2
Fore
SplineSet
633 799 m 1
 635 279 l 1
 635 279 633 170 630 147 c 0
 627 122 619 98 607 75 c 0
 595 52 575 33 549 19 c 0
 523 5 490 -2 450 -2 c 2
 209 -2 l 2
 169 -2 135 5 109 19 c 0
 83 33 63 52 51 75 c 0
 39 98 31 122 28 147 c 0
 25 170 23 214 23 279 c 2
 23 799 l 1
 289 799 l 1
 289 292 l 2
 289 224 291 184 295 171 c 0
 299 158 311 152 329 152 c 0
 329 152 l 0
 330 152 l 0
 348 152 359 158 363 171 c 0
 367 184 370 224 370 292 c 2
 370 799 l 1
 370 799 l 1
 633 799 l 1
EndSplineSet
Validated: 5
EndChar

StartChar: V
Encoding: 86 86 21
Width: 654
VWidth: 0
Flags: HW
HStem: 780 20G<22 263 392 633>
LayerCount: 2
Fore
SplineSet
396 800 m 1
 633 800 l 1
 446 -3 l 1
 209 -3 l 1
 22 800 l 1
 259 800 l 1
 328 504 l 1
 396 800 l 1
EndSplineSet
Validated: 1
EndChar

StartChar: W
Encoding: 87 87 22
Width: 921
VWidth: 0
Flags: HW
HStem: -2 21G<149 382 568 799> 779 20G<22 249 410 540 700 889>
LayerCount: 2
Fore
SplineSet
703 799 m 1
 889 799 l 1
 797 -2 l 1
 572 -2 l 1
 475 398 l 1
 377 -2 l 1
 153 -2 l 1
 22 799 l 1
 246 799 l 1
 302 463 l 1
 410 799 l 1
 410 799 l 1
 540 799 l 1
 540 799 l 1
 647 463 l 1
 703 799 l 1
EndSplineSet
Validated: 5
EndChar

StartChar: X
Encoding: 88 88 23
Width: 751
VWidth: 0
Flags: HW
HStem: 0 21G<22 295 456 729> 780 20G<22 295 456 729>
LayerCount: 2
Fore
SplineSet
467 800 m 1
 729 800 l 1
 507 400 l 1
 729 0 l 1
 467 0 l 1
 376 164 l 1
 284 0 l 1
 22 0 l 1
 244 400 l 1
 22 800 l 1
 284 800 l 1
 376 636 l 1
 467 800 l 1
EndSplineSet
Validated: 1
EndChar

StartChar: Y
Encoding: 89 89 24
Width: 721
VWidth: 0
Flags: HW
HStem: 1 21G<225 495> 779 20G<6 280 440 713>
VStem: 225 270<1 406>
LayerCount: 2
Fore
SplineSet
713 799 m 1
 495 406 l 1
 495 1 l 1
 225 1 l 1
 225 406 l 1
 6 799 l 1
 268 799 l 1
 360 635 l 1
 451 799 l 1
 713 799 l 1
EndSplineSet
Validated: 1
EndChar

StartChar: Z
Encoding: 90 90 25
Width: 777
VWidth: 0
Flags: HW
HStem: -2 150<399 748> 650 150<84 377>
LayerCount: 2
Fore
SplineSet
748 799 m 1
 649 614 l 1
 399 147 l 1
 748 147 l 1
 748 -2 l 1
 27 -2 l 1
 377 650 l 1
 84 650 l 1
 84 799 l 1
 748 799 l 1
EndSplineSet
Validated: 1
EndChar

StartChar: a
Encoding: 97 97 26
Width: 647
VWidth: 0
Flags: HW
HStem: -2 21G<176 619> 500 153<91 347>
VStem: 14 263<170 274> 349 271<151 276 429 498>
LayerCount: 2
Fore
SplineSet
615 505 m 0
 616 494 618 461 619 437 c 2
 619 -2 l 1
 196 -2 l 2
 157 -2 124 5 98 19 c 0
 72 33 52 51 40 74 c 0
 28 97 20 121 17 146 c 0
 16 157 15 189 14 213 c 0
 15 237 16 270 17 281 c 0
 20 306 28 330 40 353 c 0
 52 376 72 394 98 408 c 0
 124 422 157 429 196 429 c 2
 349 429 l 1
 349 471 l 2
 349 478 345 496 320 500 c 0
 319 500 91 500 91 500 c 2
 91 653 l 1
 418 653 l 1
 436 653 l 1
 437 653 l 2
 476 653 509 646 535 632 c 0
 561 618 580 600 592 577 c 0
 604 554 612 530 615 505 c 0
349 165 m 1
 349 276 l 2
 336 276 315 276 315 276 c 0
 297 276 285 270 281 257 c 0
 279 250 278 235 277 213 c 0
 278 191 279 176 281 169 c 0
 285 156 297 151 315 151 c 0
 316 151 l 0
 316 151 316 151 317 151 c 0
 333 151 344 155 349 165 c 1
EndSplineSet
Validated: 1
EndChar

StartChar: b
Encoding: 98 98 27
Width: 652
VWidth: 0
Flags: HW
HStem: 778 20G<22 292>
VStem: 22 271<150 499 652 798> 366 263<242 480>
LayerCount: 2
Fore
SplineSet
22 798 m 1
 292 798 l 1
 292 652 l 1
 445 652 l 2
 484 652 517 645 543 631 c 0
 569 617 589 599 601 576 c 0
 613 553 621 529 624 504 c 0
 626 486 627 455 628 410 c 2
 628 242 l 1
 628 242 626 164 624 145 c 0
 621 120 613 96 601 73 c 0
 589 50 569 32 543 18 c 0
 517 4 484 -3 445 -3 c 2
 22 -3 l 1
 22 798 l 1
292 499 m 2
 292 150 l 2
 326 150 l 0
 344 150 355 156 359 169 c 0
 363 182 366 221 366 288 c 2
 366 361 l 2
 366 428 363 467 359 480 c 0
 355 493 344 499 326 499 c 0
 292 499 l 2
EndSplineSet
Validated: 1
EndChar

StartChar: c
Encoding: 99 99 28
Width: 461
VWidth: 0
Flags: HW
HStem: -3 153<298 431> 500 153<298 431>
LayerCount: 2
Fore
SplineSet
297 482 m 0
 293 469 291 429 291 362 c 2
 291 289 l 2
 291 222 293 182 297 169 c 0
 301 156 313 150 331 150 c 0
 431 150 l 2
 431 -3 l 1
 212 -3 l 2
 172 -3 139 4 113 18 c 0
 87 32 68 50 56 73 c 0
 44 96 35 120 32 145 c 0
 30 164 29 197 28 243 c 2
 28 243 30 487 32 505 c 0
 35 530 44 554 56 577 c 0
 68 600 87 619 113 633 c 0
 139 647 172 654 212 654 c 2
 431 654 l 1
 431 500 l 2
 331 500 l 0
 313 500 301 495 297 482 c 0
EndSplineSet
Validated: 1
EndChar

StartChar: d
Encoding: 100 100 29
Width: 660
VWidth: 0
Flags: HW
HStem: -2 21G<188 631> 779 20G<360 631>
VStem: 25 263<243 480> 360 271<151 500 653 799>
LayerCount: 2
Fore
SplineSet
360 799 m 1
 631 799 l 1
 631 -2 l 1
 208 -2 l 2
 169 -2 136 5 110 19 c 0
 84 33 64 51 52 74 c 0
 40 97 32 121 29 146 c 0
 27 165 25 243 25 243 c 1
 25 411 l 2
 26 456 27 487 29 505 c 0
 32 530 40 554 52 577 c 0
 64 600 84 618 110 632 c 0
 136 646 169 653 208 653 c 2
 360 653 l 1
 360 799 l 1
360 151 m 2
 360 500 l 2
 327 500 l 0
 309 500 297 494 293 481 c 0
 289 468 287 428 287 361 c 2
 287 289 l 2
 287 222 289 182 293 169 c 0
 297 156 309 151 327 151 c 0
 360 151 l 2
EndSplineSet
Validated: 1
EndChar

StartChar: e
Encoding: 101 101 30
Width: 635
VWidth: 0
Flags: HW
HStem: -2 148<262 607> 220 151<274 349>
LayerCount: 2
Fore
SplineSet
295 146 m 2
 607 146 l 1
 607 13 l 1
 607 -2 l 1
 197 -2 l 2
 159 -2 126 5 101 18 c 0
 76 31 57 50 45 72 c 0
 33 94 26 117 23 141 c 0
 21 157 19 221 19 221 c 1
 19 427 l 1
 19 427 21 477 23 490 c 0
 26 514 33 537 45 559 c 0
 57 581 76 600 101 613 c 0
 126 626 159 633 197 633 c 2
 312 633 l 1
 428 633 l 2
 466 633 498 626 523 613 c 0
 548 600 567 581 579 559 c 0
 591 537 599 514 602 490 c 0
 604 477 604 455 605 427 c 2
 606 427 l 1
 606 346 l 1
 606 255 l 1
 605 220 l 1
 296 220 l 2
 278 220 268 213 264 201 c 0
 263 199 263 195 262 191 c 0
 263 178 260 169 262 164 c 0
 266 152 277 146 295 146 c 2
280 467 m 0
 276 456 274 424 274 371 c 1
 308 371 l 1
 323 371 l 1
 349 371 l 1
 349 371 347 461 345 467 c 0
 341 479 331 485 313 485 c 0
 312 485 l 0
 312 485 l 0
 294 485 284 479 280 467 c 0
EndSplineSet
Validated: 5
EndChar

StartChar: f
Encoding: 102 102 31
Width: 390
VWidth: 0
Flags: HW
HStem: -2 21G<22 271> 384 138<270 364> 663 137<276 364>
LayerCount: 2
Fore
SplineSet
276 644 m 0
 276 643 275 641 275 639 c 0
 273 620 270 569 270 522 c 1
 364 522 l 1
 364 384 l 1
 270 384 l 1
 271 -2 l 1
 22 -2 l 1
 22 -2 21 659 22 667 c 0
 25 689 31 710 42 731 c 0
 53 752 71 769 94 781 c 0
 117 793 147 799 182 799 c 2
 364 799 l 1
 364 663 l 1
 364 663 310 663 309 663 c 0
 290 663 280 657 276 644 c 0
EndSplineSet
Validated: 33
EndChar

StartChar: g
Encoding: 103 103 32
Width: 658
VWidth: 0
Flags: HW
HStem: -224 147<55 358> -2 147<293 363> 483 147<293 359>
VStem: 38 580<72 344> 364 254<146 463>
LayerCount: 2
Fore
SplineSet
210 630 m 2xf0
 618 630 l 1
 618 -2 l 1xe8
 618 -2 615 -66 613 -82 c 0
 610 -106 603 -129 591 -151 c 0
 579 -173 560 -191 535 -204 c 0
 510 -217 479 -224 441 -224 c 2
 55 -224 l 1
 55 -77 l 1
 326 -77 l 2
 344 -77 354 -71 358 -59 c 0
 361 -51 362 -32 363 -2 c 2
 210 -2 l 2
 172 -2 141 5 116 18 c 0
 91 31 72 49 60 71 c 0
 48 93 41 117 38 141 c 0
 35 165 33 344 33 344 c 2
 33 416 35 463 38 487 c 0
 41 511 48 535 60 557 c 0
 72 579 91 597 116 610 c 0
 141 623 172 630 210 630 c 2xf0
293 164 m 0
 297 152 307 146 325 146 c 0
 325 146 352 146 364 146 c 2
 364 285 l 1
 364 343 l 2
 364 411 363 451 359 464 c 0
 355 477 344 483 325 483 c 0
 307 483 297 476 293 464 c 0
 289 452 287 414 287 349 c 2
 287 279 l 2
 287 214 289 176 293 164 c 0
EndSplineSet
Validated: 1
EndChar

StartChar: h
Encoding: 104 104 33
Width: 628
VWidth: 0
Flags: HW
HStem: -2 21G<22 292 356 603> 779 20G<22 292>
VStem: 22 580<-2 589> 22 270<-2 519 654 799>
LayerCount: 2
Fore
SplineSet
603 523 m 0xe0
 604 515 603 -2 603 -2 c 1
 356 -2 l 1
 357 343 l 2
 357 396 355 471 352 495 c 0
 352 497 351 499 351 500 c 0
 347 513 337 518 318 518 c 0
 317 518 292 519 292 519 c 1
 292 -2 l 1
 22 -2 l 1
 22 799 l 1
 292 799 l 1
 292 654 l 1xd0
 444 654 l 2
 479 654 508 647 531 635 c 0
 554 623 571 606 582 586 c 0
 593 566 600 545 603 523 c 0xe0
EndSplineSet
Validated: 33
EndChar

StartChar: i
Encoding: 105 105 34
Width: 323
VWidth: 0
Flags: HW
HStem: -2 21G<26 298> 662 138<26 298>
VStem: 26 272<-2 593 662 799>
LayerCount: 2
Fore
SplineSet
26 -2 m 1
 26 593 l 1
 298 593 l 1
 298 -2 l 1
 26 -2 l 1
26 662 m 1
 26 799 l 1
 298 799 l 1
 298 662 l 1
 26 662 l 1
EndSplineSet
Validated: 1
EndChar

StartChar: j
Encoding: 106 106 35
Width: 454
VWidth: 0
Flags: HW
HStem: -225 151<33 155> 660 139<160 414>
VStem: 160 254<-72 2 2 591 660 799>
LayerCount: 2
Fore
SplineSet
160 591 m 1
 414 591 l 1
 414 2 l 1
 414 2 412 -63 410 -79 c 0
 407 -104 400 -127 388 -150 c 0
 376 -173 357 -190 332 -204 c 0
 307 -218 275 -225 237 -225 c 2
 33 -225 l 1
 33 -74 l 1
 123 -74 l 2
 141 -74 151 -68 155 -56 c 0
 158 -48 159 -29 160 2 c 2
 160 591 l 1
160 660 m 1
 160 799 l 1
 414 799 l 1
 414 660 l 1
 160 660 l 1
EndSplineSet
Validated: 1
EndChar

StartChar: k
Encoding: 107 107 36
Width: 643
VWidth: 0
Flags: HW
HStem: -2 21G<28 300 363 610> 779 20G<28 300>
VStem: 28 272<-2 257 392 799> 364 246<-2 250 400 655>
LayerCount: 2
Fore
SplineSet
589 293 m 0
 608 258 612 220 611 180 c 0
 610 119 610 59 610 -2 c 1
 363 -2 l 1
 364 81 l 2
 364 134 363 209 360 233 c 0
 360 235 359 237 359 238 c 0
 355 251 325 257 306 257 c 0
 305 257 300 257 300 257 c 1
 300 -2 l 1
 28 -2 l 1
 28 799 l 1
 300 799 l 1
 300 392 l 1
 300 392 305 392 306 392 c 0
 325 392 355 398 359 411 c 0
 359 412 360 413 360 415 c 0
 363 439 364 515 364 568 c 2
 363 655 l 1
 610 655 l 2
 610 644 610 633 610 622 c 0
 610 577 609 533 610 488 c 0
 611 443 611 398 589 357 c 0
 583 345 574 334 564 325 c 1
 574 316 583 305 589 293 c 0
EndSplineSet
Validated: 33
EndChar

StartChar: l
Encoding: 108 108 37
Width: 316
VWidth: 0
Flags: HW
HStem: -0 21G<18 290> -0 21G<18 290> 777 20G<18 290>
VStem: 18 272<-0 797>
LayerCount: 2
Fore
SplineSet
18 -0 m 1xb0
 18 797 l 1
 290 797 l 1
 290 -0 l 1
 18 -0 l 1xb0
EndSplineSet
Validated: 1
EndChar

StartChar: m
Encoding: 109 109 38
Width: 840
VWidth: 0
Flags: HW
HStem: -1 21G<24 294 371 551 628 809> 484 147<294 365 556 584 584 622>
VStem: 24 270<-1 484> 371 180<-1 464> 628 181<-1 465>
LayerCount: 2
Fore
SplineSet
805 488 m 0
 808 464 809 417 809 345 c 2
 809 -1 l 1
 628 -1 l 1
 628 350 l 2
 628 415 626 453 622 465 c 0
 618 477 608 484 590 484 c 0
 571 484 560 478 556 465 c 0
 552 452 551 412 551 344 c 2
 551 -1 l 1
 371 -1 l 1
 371 350 l 2
 371 415 369 453 365 465 c 0
 361 477 351 484 333 484 c 2
 294 484 l 1
 294 -1 l 1
 24 -1 l 1
 24 631 l 1
 344 631 l 2
 350 631 359 630 366 630 c 0
 388 627 408 620 428 609 c 0
 440 603 451 594 460 584 c 1
 469 594 480 603 492 609 c 0
 512 620 533 627 554 630 c 0
 564 630 584 631 584 631 c 1
 632 631 l 2
 670 631 702 624 727 611 c 0
 752 598 771 580 783 558 c 0
 795 536 802 512 805 488 c 0
EndSplineSet
Validated: 1
EndChar

StartChar: n
Encoding: 110 110 39
Width: 636
VWidth: 0
Flags: HW
HStem: -1 21G<27 281 358 612> 484 148<281 352>
VStem: 27 254<-1 484> 358 254<-1 465>
LayerCount: 2
Fore
SplineSet
608 488 m 0
 611 464 612 417 612 345 c 2
 612 -1 l 1
 358 -1 l 1
 358 350 l 2
 358 415 356 453 352 465 c 0
 348 477 338 484 320 484 c 2
 281 484 l 1
 281 -1 l 1
 27 -1 l 1
 27 616 l 1
 27 631 l 1
 435 631 l 2
 473 631 505 624 530 611 c 0
 555 598 573 580 585 558 c 0
 597 536 605 512 608 488 c 0
EndSplineSet
Validated: 1
EndChar

StartChar: o
Encoding: 111 111 40
Width: 631
VWidth: 0
Flags: HW
HStem: -1 21G<181 450> 611 20G<181 450>
VStem: 28 249<165 465> 354 249<165 465>
LayerCount: 2
Fore
SplineSet
603 488 m 0
 605 470 605 160 603 142 c 0
 600 118 593 94 581 72 c 0
 569 50 551 32 526 19 c 0
 501 6 469 -1 431 -1 c 2
 201 -1 l 2
 163 -1 131 6 106 19 c 0
 81 32 62 50 50 72 c 0
 38 94 31 118 28 142 c 0
 26 160 26 470 28 488 c 0
 31 512 38 536 50 558 c 0
 62 580 81 598 106 611 c 0
 131 624 163 631 201 631 c 2
 431 631 l 2
 469 631 501 624 526 611 c 0
 551 598 569 580 581 558 c 0
 593 536 600 512 603 488 c 0
316 146 m 0
 334 146 344 153 348 165 c 0
 352 177 354 215 354 280 c 2
 354 350 l 2
 354 415 352 453 348 465 c 0
 344 477 334 483 316 483 c 0
 316 483 l 0
 315 483 l 0
 297 483 287 477 283 465 c 0
 279 453 277 415 277 350 c 2
 277 280 l 2
 277 215 279 177 283 165 c 0
 287 153 297 146 315 146 c 0
 316 146 l 0
 316 146 l 0
EndSplineSet
Validated: 37
EndChar

StartChar: p
Encoding: 112 112 41
Width: 658
VWidth: 0
Flags: HW
VStem: 25 271<-225 -2 151 500> 369 262<170 407>
LayerCount: 2
Fore
SplineSet
296 -225 m 1
 296 -225 l 1
 26 -225 l 1
 26 653 l 1
 449 653 l 2
 488 653 521 646 547 632 c 0
 573 618 592 600 604 577 c 0
 616 554 624 530 627 505 c 0
 629 486 632 407 632 407 c 1
 632 240 l 2
 631 195 629 164 627 146 c 0
 624 121 616 97 604 74 c 0
 592 51 573 33 547 19 c 0
 521 5 488 -2 449 -2 c 2
 296 -2 l 1
 296 -225 l 1
296 500 m 2
 296 151 l 2
 330 151 l 0
 348 151 359 157 363 170 c 0
 367 183 369 222 369 289 c 2
 369 361 l 2
 369 428 367 468 363 481 c 0
 359 494 348 500 330 500 c 0
 296 500 l 2
EndSplineSet
Validated: 5
EndChar

StartChar: q
Encoding: 113 113 42
Width: 677
VWidth: 0
Flags: HW
VStem: 27 262<170 407> 362 271<-225 -2 151 500>
LayerCount: 2
Fore
SplineSet
633 -225 m 1
 362 -225 l 1
 362 -2 l 1
 210 -2 l 2
 171 -2 138 5 112 19 c 0
 86 33 66 51 54 74 c 0
 42 97 34 121 31 146 c 0
 29 164 28 195 27 240 c 2
 26 407 l 1
 26 407 29 486 31 505 c 0
 34 530 42 554 54 577 c 0
 66 600 86 618 112 632 c 0
 138 646 171 653 210 653 c 2
 633 653 l 1
 633 -225 l 1
362 151 m 2
 362 500 l 2
 329 500 l 0
 311 500 299 494 295 481 c 0
 291 468 289 428 289 361 c 2
 289 289 l 2
 289 222 291 183 295 170 c 0
 299 157 311 151 329 151 c 0
 362 151 l 2
EndSplineSet
Validated: 1
EndChar

StartChar: r
Encoding: 114 114 43
Width: 633
VWidth: 0
Flags: HW
HStem: -2 21G<31 285> 483 148<285 356>
VStem: 31 254<-2 483>
LayerCount: 2
Fore
SplineSet
612 488 m 0
 615 464 616 416 616 344 c 2
 616 314 l 1
 362 314 l 1
 362 349 l 2
 362 414 360 453 356 465 c 0
 352 477 342 483 324 483 c 2
 285 483 l 1
 285 -2 l 1
 31 -2 l 1
 31 630 l 1
 439 630 l 2
 477 630 509 623 534 610 c 0
 559 597 577 579 589 557 c 0
 601 535 609 512 612 488 c 0
EndSplineSet
Validated: 1
EndChar

StartChar: s
Encoding: 115 115 44
Width: 603
VWidth: 0
Flags: HW
HStem: -2 147<57 362> 491 140<237 500>
LayerCount: 2
Fore
SplineSet
571 225 m 0
 577 172 568 115 547 73 c 0
 536 51 519 32 495 18 c 0
 471 4 441 -2 404 -2 c 2
 57 -2 l 1
 57 144 l 1
 57 144 319 145 320 145 c 0
 348 145 370 167 370 195 c 0
 370 223 348 245 320 245 c 2
 320 245 206 245 197 245 c 0
 160 245 130 251 106 265 c 0
 82 279 64 298 53 320 c 0
 32 362 23 419 29 472 c 0
 30 483 33 493 35 503 c 0
 40 522 46 540 53 555 c 0
 64 577 82 596 106 610 c 0
 130 624 160 630 197 630 c 2
 500 630 l 1
 500 491 l 1
 280 491 l 2
 251 491 227 466 227 437 c 0
 227 408 251 384 280 384 c 0
 281 384 381 384 388 384 c 0
 422 384 461 383 495 363 c 0
 519 349 536 331 547 309 c 0
 554 294 561 276 566 257 c 0
 568 247 570 236 571 225 c 0
EndSplineSet
Validated: 33
EndChar

StartChar: t
Encoding: 116 116 45
Width: 389
VWidth: 0
Flags: HW
HStem: -2 137<273 361> 524 138<268 361> 779 20G<21 268>
VStem: 22 339<63 134 524 662>
LayerCount: 2
Fore
SplineSet
273 153 m 0
 277 140 287 134 306 134 c 0
 307 134 361 134 361 134 c 1
 361 -2 l 1
 180 -2 l 2
 145 -2 116 4 93 16 c 0
 70 28 53 45 42 66 c 0
 31 87 25 108 22 130 c 0
 21 138 21 799 21 799 c 1
 268 799 l 1
 268 662 l 1
 361 662 l 1
 361 524 l 1
 268 524 l 1
 268 477 270 177 272 158 c 0
 272 156 273 154 273 153 c 0
EndSplineSet
Validated: 1
EndChar

StartChar: u
Encoding: 117 117 46
Width: 628
VWidth: 0
Flags: HW
HStem: -2 148<278 349> 610 20G<18 272 349 603>
VStem: 18 254<164 630> 349 254<145 630>
LayerCount: 2
Fore
SplineSet
349 630 m 1
 603 630 l 1
 603 13 l 1
 603 -2 l 1
 195 -2 l 2
 157 -2 126 5 101 18 c 0
 76 31 57 49 45 71 c 0
 33 93 26 117 23 141 c 0
 20 165 18 212 18 284 c 2
 18 630 l 1
 272 630 l 1
 272 279 l 2
 272 214 274 176 278 164 c 0
 282 152 292 145 310 145 c 2
 349 145 l 1
 349 630 l 1
EndSplineSet
Validated: 1
EndChar

StartChar: v
Encoding: 118 118 47
Width: 635
VWidth: 0
Flags: HW
HStem: -2 21G<201 431> 610 20G<24 255 377 608>
LayerCount: 2
Fore
SplineSet
425 -2 m 1
 207 -2 l 1
 24 630 l 1
 249 630 l 1
 316 396 l 1
 383 630 l 1
 608 630 l 1
 425 -2 l 1
EndSplineSet
Validated: 1
EndChar

StartChar: w
Encoding: 119 119 48
Width: 893
VWidth: 0
Flags: HW
HStem: -2 21G<147 383 505 740> 611 20G<19 249 376 518 638 868>
LayerCount: 2
Fore
SplineSet
642 631 m 1
 868 631 l 1
 736 -2 l 1
 509 -2 l 1
 447 267 l 1
 378 -2 l 1
 151 -2 l 1
 19 631 l 1
 246 631 l 1
 303 332 l 1
 381 630 l 1
 513 630 l 1
 584 332 l 1
 642 631 l 1
EndSplineSet
Validated: 1
EndChar

StartChar: x
Encoding: 120 120 49
Width: 657
VWidth: 0
Flags: HW
HStem: -1 21G<29 269 387 626> -1 21G<29 269 387 626> 609 20G<29 269 387 626>
LayerCount: 2
Fore
SplineSet
626 629 m 1xa0
 485 314 l 1
 626 -1 l 1
 396 -1 l 1
 328 148 l 1
 259 -1 l 1
 29 -1 l 1
 171 314 l 1
 29 629 l 1
 259 629 l 1
 328 480 l 1
 396 629 l 1
 626 629 l 1xa0
EndSplineSet
Validated: 1
EndChar

StartChar: y
Encoding: 121 121 50
Width: 658
VWidth: 0
Flags: HW
HStem: -226 147<55 358> -3 135<294 364> 609 20G<36 287 364 618>
VStem: 38 250<151 629> 364 254<-76 -3 -3 -3 132 629>
LayerCount: 2
Fore
SplineSet
364 629 m 1
 618 629 l 1
 618 -3 l 1
 618 -3 615 -67 613 -83 c 0
 610 -107 603 -130 591 -152 c 0
 579 -174 561 -193 536 -206 c 0
 511 -219 479 -226 441 -226 c 2
 55 -226 l 1
 55 -78 l 1
 326 -78 l 2
 344 -78 354 -72 358 -60 c 0
 361 -52 363 -33 364 -3 c 2
 211 -3 l 2
 173 -3 141 4 116 17 c 0
 91 30 72 48 60 70 c 0
 48 92 41 116 38 140 c 0
 35 164 36 629 36 629 c 1
 287 629 l 1
 288 235 l 2
 289 189 290 160 293 150 c 0
 297 138 308 132 326 132 c 0
 327 132 364 132 364 132 c 1
 364 629 l 1
EndSplineSet
Validated: 33
EndChar

StartChar: z
Encoding: 122 122 51
Width: 643
VWidth: 0
Flags: HW
HStem: -1 150<388 614> 479 150<30 262>
LayerCount: 2
Fore
SplineSet
614 629 m 1
 388 149 l 1
 614 149 l 1
 614 -1 l 1
 32 -1 l 1
 262 479 l 1
 30 479 l 1
 30 629 l 1
 614 629 l 1
EndSplineSet
Validated: 1
EndChar

StartChar: zero
Encoding: 48 48 52
Width: 657
VWidth: 0
Flags: HW
HStem: -2 21G<188 469> 779 20G<188 469>
VStem: 23 265<171 220 409 625> 369 265<172 388 577 642>
LayerCount: 2
Fore
SplineSet
635 518 m 2
 635 518 l 1
 635 518 l 1
 635 500 l 1
 635 297 l 1
 635 279 l 1
 635 279 l 1
 635 214 633 170 630 147 c 0
 627 122 619 98 607 75 c 0
 595 52 575 33 549 19 c 0
 523 5 489 -2 449 -2 c 2
 329 -2 l 1
 208 -2 l 2
 168 -2 135 5 109 19 c 0
 83 33 63 52 51 75 c 0
 39 98 30 122 27 147 c 0
 24 170 23 214 23 279 c 1
 23 279 l 1
 23 297 l 1
 23 500 l 1
 23 518 l 1
 23 518 l 1
 23 583 24 627 27 650 c 0
 30 675 39 699 51 722 c 0
 63 745 83 764 109 778 c 0
 135 792 168 799 208 799 c 2
 329 799 l 1
 449 799 l 2
 489 799 523 792 549 778 c 0
 575 764 595 745 607 722 c 0
 619 699 627 675 630 650 c 0
 633 627 635 583 635 518 c 2
295 626 m 0
 291 613 288 573 288 505 c 2
 288 409 l 1
 367 594 l 2
 366 610 365 620 363 626 c 0
 359 639 347 645 329 645 c 0
 329 645 l 0
 328 645 l 0
 310 645 299 639 295 626 c 0
363 171 m 0
 367 184 369 224 369 292 c 2
 369 388 l 1
 290 203 l 2
 291 187 293 177 295 171 c 0
 299 158 310 152 328 152 c 0
 329 152 l 0
 329 152 l 0
 347 152 359 158 363 171 c 0
EndSplineSet
Validated: 5
EndChar

StartChar: one
Encoding: 49 49 53
Width: 534
VWidth: 0
Flags: HW
HStem: -0 159<20 132 404 516> 638 159<20 132>
VStem: 132 272<159 638>
LayerCount: 2
Fore
SplineSet
404 159 m 1
 516 159 l 1
 516 -0 l 1
 20 -0 l 1
 20 159 l 1
 132 159 l 1
 132 638 l 1
 20 638 l 1
 20 797 l 1
 404 797 l 1
 404 159 l 1
EndSplineSet
Validated: 1
EndChar

StartChar: two
Encoding: 50 50 54
Width: 667
VWidth: 0
Flags: HW
HStem: -1 159<291 646> 561 238<123 295> 646 153<300 377>
LayerCount: 2
Fore
SplineSet
291 158 m 1xa0
 646 158 l 1
 646 -1 l 1
 23 -1 l 1
 23 -1 23 242 25 260 c 0
 26 274 28 288 31 301 c 0
 36 324 43 347 52 368 c 0
 65 398 86 423 115 441 c 0
 168 475 314 470 314 470 c 2
 352 470 383 502 383 540 c 2
 383 540 380 617 377 627 c 0
 373 640 362 646 344 646 c 2
 344 646 l 2
 338 646 334 646 332 646 c 1
 333 646 l 0
 333 646 329 646 332 646 c 1xa0
 314 646 304 640 300 628 c 0
 297 619 296 597 295 561 c 2
 41 561 l 1
 42 603 43 632 45 650 c 0
 48 675 56 699 68 722 c 0
 80 745 100 764 126 778 c 0
 152 792 185 798 224 798 c 2xc0
 463 798 l 2
 502 798 535 792 561 778 c 0
 587 764 606 745 618 722 c 0
 630 699 638 675 641 650 c 0
 643 630 646 593 646 540 c 0
 648 482 639 422 617 373 c 0
 604 343 582 318 554 300 c 0
 530 285 501 276 467 273 c 2
 359 272 l 2
 321 272 291 241 291 203 c 2
 291 158 l 1xa0
EndSplineSet
Validated: 37
EndChar

StartChar: three
Encoding: 51 51 55
Width: 664
VWidth: 0
Flags: HW
HStem: -1 238<111 282> -1 153<288 364> 322 153<254 364> 561 238<111 282> 646 153<288 364>
VStem: 29 254<170 236 561 644> 370 263<154 302 494 643>
LayerCount: 2
Fore
SplineSet
629 469 m 0x2e
 626 444 618 421 606 398 c 0
 606 398 l 1
 606 398 l 2
 618 375 626 351 629 326 c 0
 631 312 633 243 633 236 c 0
 633 229 631 161 629 147 c 0
 626 122 618 98 606 75 c 0
 594 52 574 33 548 19 c 0
 522 5 489 -1 450 -1 c 2x6e
 211 -1 l 2
 172 -1 139 5 113 19 c 0
 87 33 68 52 56 75 c 0
 44 98 36 122 33 147 c 0
 31 165 30 194 29 236 c 1
 282 236 l 2xa6
 283 200 285 178 288 169 c 0
 292 157 302 151 320 151 c 1
 317 151 320 151 320 151 c 0
 320 151 l 1
 322 151 325 151 331 151 c 2
 331 151 l 2
 349 151 361 157 365 170 c 0
 368 179 369 201 370 236 c 0
 369 271 368 293 365 302 c 0
 361 315 349 321 331 321 c 2
 331 321 l 2
 331 321 l 2
 331 322 l 1
 254 322 l 1
 254 474 l 1
 331 474 l 2
 331 474 l 2
 331 474 l 2
 349 474 361 480 365 493 c 0
 368 502 369 524 370 560 c 0
 369 596 368 618 365 627 c 0
 361 640 349 646 331 646 c 2
 331 646 l 2
 325 646 322 646 320 646 c 1
 320 646 l 0
 320 646 317 646 320 646 c 1x6e
 302 646 292 640 288 628 c 0
 285 619 283 597 282 561 c 2
 28 561 l 1
 29 603 31 632 33 650 c 0
 36 675 44 699 56 722 c 0
 68 745 87 764 113 778 c 0
 139 792 172 798 211 798 c 2x36
 450 798 l 2
 489 798 522 792 548 778 c 0
 574 764 594 745 606 722 c 0
 618 699 626 675 629 650 c 0
 631 635 633 567 633 560 c 0
 633 553 631 484 629 469 c 0x2e
EndSplineSet
Validated: 5
EndChar

StartChar: four
Encoding: 52 52 56
Width: 676
VWidth: 0
Flags: HW
HStem: -0 21G<305 576> -0 21G<305 576> 160 160<204 305 576 655> 777 20G<293 576>
VStem: 305 272<-0 160 320 488>
LayerCount: 2
Fore
SplineSet
576 320 m 1xb8
 655 320 l 1
 655 160 l 1
 576 160 l 1
 576 -0 l 1
 305 -0 l 1
 305 160 l 1
 19 160 l 1
 19 320 l 1
 305 797 l 1
 576 797 l 1
 576 320 l 1xb8
305 320 m 1
 305 488 l 1
 204 320 l 1
 305 320 l 1
EndSplineSet
Validated: 1
EndChar

StartChar: five
Encoding: 53 53 57
Width: 647
VWidth: 0
Flags: HW
HStem: -1 21G<185 463> 645 153<285 581>
VStem: 22 263<171 321 560 645>
LayerCount: 2
Fore
SplineSet
599 483 m 0
 611 460 619 437 622 412 c 0
 624 396 624 163 622 147 c 0
 619 122 611 98 599 75 c 0
 587 52 568 33 542 19 c 0
 516 5 483 -1 444 -1 c 2
 205 -1 l 2
 166 -1 133 5 107 19 c 0
 81 33 61 52 49 75 c 0
 37 98 29 122 26 147 c 0
 25 152 25 262 24 321 c 1
 285 321 l 1
 285 302 l 1
 286 266 288 179 291 170 c 0
 295 157 306 151 324 151 c 2
 324 151 l 2
 330 151 333 151 335 151 c 1
 335 151 l 0
 335 151 338 151 335 151 c 1
 353 151 363 157 367 169 c 0
 370 177 372 198 373 229 c 2
 372 229 l 1
 372 251 l 2
 371 279 369 381 367 389 c 0
 363 401 353 407 335 407 c 1
 338 407 22 407 22 407 c 1
 22 798 l 1
 581 798 l 1
 581 798 581 797 581 796 c 2
 581 645 l 1
 285 645 l 1
 285 560 l 1
 285 560 l 2
 285 559 285 560 285 560 c 1
 444 560 l 2
 483 560 516 553 542 539 c 0
 568 525 587 506 599 483 c 0
EndSplineSet
Validated: 37
EndChar

StartChar: six
Encoding: 54 54 58
Width: 650
VWidth: 0
Flags: HW
HStem: -1 153<286 363> 323 153<281 363> 561 238<369 540> 646 153<286 363>
VStem: 22 259<171 323 475 643> 368 250<170 304 561 627>
LayerCount: 2
Fore
SplineSet
22 147 m 0xdc
 20 162 18 558 18 561 c 0
 18 568 20 636 22 650 c 0
 25 675 33 699 45 722 c 0
 57 745 77 764 103 778 c 0
 129 792 162 798 201 798 c 2xdc
 439 798 l 2
 478 798 511 792 537 778 c 0
 563 764 583 745 595 722 c 0
 607 699 615 675 618 650 c 0
 620 632 621 603 622 561 c 1
 369 561 l 2xec
 368 597 366 619 363 628 c 0
 359 640 349 646 331 646 c 1
 334 646 331 646 331 646 c 0
 331 646 l 1
 329 646 326 646 320 646 c 2
 320 646 l 2
 302 646 290 640 286 627 c 0
 283 618 282 596 281 561 c 0
 281 558 281 475 281 475 c 1
 397 475 l 1
 439 475 l 2
 478 475 511 469 537 455 c 0
 563 441 583 422 595 399 c 0
 607 376 615 352 618 327 c 0
 620 311 620 163 618 147 c 0
 615 122 607 98 595 75 c 0
 583 52 563 33 537 19 c 0
 511 5 478 -1 439 -1 c 2
 201 -1 l 2
 162 -1 129 5 103 19 c 0
 77 33 57 52 45 75 c 0
 33 98 25 122 22 147 c 0xdc
281 323 m 1
 281 323 l 1
 281 237 l 1
 282 201 283 179 286 170 c 0
 290 157 302 151 320 151 c 2
 320 151 l 2
 326 151 329 151 331 151 c 1
 331 151 l 0
 331 151 334 151 331 151 c 1
 349 151 359 157 363 169 c 0
 366 177 367 198 368 229 c 2
 368 229 l 1
 368 251 l 2
 367 279 365 297 363 305 c 0
 359 317 349 323 331 323 c 1
 334 323 331 323 331 323 c 0
 331 323 l 1
 330 323 328 323 325 323 c 2
 325 323 l 1
 320 323 l 2
 320 323 l 2
 320 323 l 1
 281 323 l 1
EndSplineSet
Validated: 37
EndChar

StartChar: seven
Encoding: 55 55 59
Width: 657
VWidth: 0
Flags: HW
HStem: -0 21G<118 396> -0 21G<118 396> 638 159<22 315>
LayerCount: 2
Fore
SplineSet
22 797 m 1xa0
 636 797 l 1
 390 -0 l 1
 118 -0 l 1
 315 638 l 1
 22 638 l 1
 22 797 l 1xa0
EndSplineSet
Validated: 1
EndChar

StartChar: eight
Encoding: 56 56 60
Width: 652
VWidth: 0
Flags: HW
HStem: -1 21G<186 464> 321 153<291 359> 778 20G<186 464>
VStem: 23 263<171 318 477 643> 364 263<154 318 477 643>
LayerCount: 2
Fore
SplineSet
627 236 m 2
 627 235 627 235 627 235 c 0
 627 234 627 232 627 231 c 0
 626 192 625 164 623 147 c 0
 620 122 612 98 600 75 c 0
 588 52 568 33 542 19 c 0
 516 5 483 -1 444 -1 c 2
 444 -1 l 1
 206 -1 l 1
 206 -1 l 2
 167 -1 134 5 108 19 c 0
 82 33 62 52 50 75 c 0
 38 98 30 122 27 147 c 0
 25 164 24 192 23 231 c 0
 23 232 23 234 23 235 c 0
 23 235 23 235 23 236 c 2
 23 236 l 2
 23 243 25 312 27 326 c 0
 30 351 38 375 50 398 c 0
 50 398 l 2
 50 398 l 2
 38 421 30 444 27 469 c 0
 25 484 23 553 23 560 c 0
 23 561 l 2
 23 561 l 2
 23 562 l 0
 23 563 23 562 23 563 c 0
 24 604 25 633 27 650 c 0
 30 675 38 699 50 722 c 0
 62 745 82 764 108 778 c 0
 134 792 167 798 206 798 c 2
 206 798 l 1
 444 798 l 1
 444 798 l 2
 483 798 516 792 542 778 c 0
 568 764 588 745 600 722 c 0
 612 699 620 675 623 650 c 0
 625 633 626 604 627 563 c 0
 627 562 627 563 627 562 c 0
 627 561 l 2
 627 561 l 2
 627 560 l 0
 627 553 625 484 623 469 c 0
 620 444 612 421 600 398 c 0
 600 398 l 1
 600 398 l 2
 612 375 620 351 623 326 c 0
 625 312 627 243 627 236 c 2
 627 236 l 2
325 646 m 2
 325 646 l 2
 307 646 295 640 291 627 c 0
 288 618 287 596 286 560 c 0
 287 524 288 502 291 493 c 0
 295 480 307 474 325 474 c 2
 325 474 l 2
 343 474 355 480 359 493 c 0
 362 502 363 524 364 560 c 0
 363 596 362 618 359 627 c 0
 355 640 343 646 325 646 c 2
325 151 m 2
 325 151 l 2
 343 151 355 157 359 170 c 0
 362 179 363 201 364 236 c 0
 363 271 362 293 359 302 c 0
 355 315 343 321 325 321 c 2
 325 321 l 2
 325 321 l 2
 325 321 l 2
 307 321 295 315 291 302 c 0
 288 293 287 271 286 236 c 0
 287 201 288 179 291 170 c 0
 295 157 307 151 325 151 c 2
EndSplineSet
Validated: 5
EndChar

StartChar: nine
Encoding: 57 57 61
Width: 650
VWidth: 0
Flags: HW
HStem: -1 238<106 278> -1 153<283 360> 646 153<315 360>
VStem: 28 250<170 236 493 627> 365 259<154 322 474 626>
LayerCount: 2
Fore
SplineSet
624 650 m 0x78
 626 635 628 239 628 236 c 0
 628 229 626 161 624 147 c 0
 621 122 613 98 601 75 c 0
 589 52 569 33 543 19 c 0
 517 5 484 -1 445 -1 c 2x78
 207 -1 l 2
 168 -1 135 5 109 19 c 0
 83 33 63 52 51 75 c 0
 39 98 31 122 28 147 c 0
 26 165 25 194 24 236 c 1
 278 236 l 2xb8
 279 200 280 178 283 169 c 0
 287 157 297 151 315 151 c 1
 312 151 315 151 315 151 c 0
 315 151 l 1
 317 151 320 151 326 151 c 2
 326 151 l 2
 344 151 356 157 360 170 c 0
 363 179 364 201 365 236 c 0
 365 239 365 322 365 322 c 1
 249 322 l 1
 207 322 l 2
 168 322 135 328 109 342 c 0
 83 356 63 375 51 398 c 0
 39 421 31 445 28 470 c 0
 26 486 26 634 28 650 c 0
 31 675 39 699 51 722 c 0
 63 745 83 764 109 778 c 0
 135 792 168 798 207 798 c 2
 445 798 l 2
 484 798 517 792 543 778 c 0
 569 764 589 745 601 722 c 0
 613 699 621 675 624 650 c 0x78
365 474 m 1
 365 474 l 1
 365 560 l 1
 364 596 363 618 360 627 c 0
 356 640 344 646 326 646 c 2
 326 646 l 2
 320 646 317 646 315 646 c 1
 315 646 l 0
 315 646 312 646 315 646 c 1
 297 646 287 640 283 628 c 0
 280 620 279 599 278 568 c 2
 278 568 l 1
 278 546 l 2
 279 518 281 500 283 492 c 0
 287 480 297 474 315 474 c 1
 312 474 365 474 365 474 c 1
EndSplineSet
Validated: 37
EndChar

StartChar: Acircumflex
Encoding: 194 194 63
Width: 651
VWidth: 0
Flags: HW
HStem: 0 806<93 280 345 620> 853 103<133 160 479 506>
VStem: 23 257<0 240 403 636> 345 275<0 240 403 655>
LayerCount: 2
Fore
SplineSet
620 0 m 1
 345 0 l 1
 345 240 l 1
 280 240 l 1
 280 0 l 1
 19 0 l 1
 19 0 20 635 23 660 c 0
 26 685 33 708 44 731 c 0
 55 754 73 771 96 785 c 0
 119 799 148 806 184 806 c 2
 620 806 l 1
 620 0 l 1
312 403 m 1
 345 403 l 1
 345 655 l 1
 312 655 l 2
 297 654 288 649 285 637 c 0
 281 625 280 585 280 519 c 2
 280 403 l 1
 312 403 l 1
133 853 m 1
 133 956 l 1
 318 1006 l 1
 506 956 l 1
 506 853 l 1
 318 902 l 1
 133 853 l 1
EndSplineSet
Validated: 1
EndChar

StartChar: Atilde
Encoding: 195 195 64
Width: 663
VWidth: 0
Flags: HW
HStem: 0 804<103 290 355 629>
VStem: 34 256<0 239 402 634> 355 274<0 239 402 653>
LayerCount: 2
Fore
SplineSet
629 0 m 1
 355 0 l 1
 355 239 l 1
 290 239 l 1
 290 0 l 1
 30 0 l 1
 30 0 31 633 34 658 c 0
 37 683 44 706 55 729 c 0
 66 752 84 769 107 783 c 0
 130 797 159 804 195 804 c 2
 629 804 l 1
 629 0 l 1
323 402 m 1
 355 402 l 1
 355 653 l 1
 323 653 l 2
 309 652 299 647 296 635 c 0
 292 623 290 583 290 517 c 2
 290 402 l 1
 323 402 l 1
160 967 m 1
 160 967 226 1031 330 988 c 0
 453 937 499 1003 499 1003 c 1
 500 865 l 1
 500 865 415 829 330 865 c 0
 230 907 160 849 160 849 c 1
 160 967 l 1
 160 967 l 1
EndSplineSet
Validated: 37
EndChar

StartChar: Adieresis
Encoding: 196 196 65
Width: 651
VWidth: 0
Flags: HW
HStem: -0 807<91 278 343 618> 852 154<131 285 350 504>
VStem: 21 257<0 240 403 637> 131 154<852 1007> 343 275<-0 240 403 656> 350 154<852 1007>
LayerCount: 2
Fore
SplineSet
618 -0 m 1xe8
 618 -0 l 1
 343 -0 l 1
 343 240 l 1
 278 240 l 1
 278 -0 l 1
 17 -0 l 1
 17 -0 18 636 21 661 c 0
 24 686 31 709 42 732 c 0
 53 755 70 772 94 786 c 0
 118 800 147 807 183 807 c 2
 618 807 l 1
 618 -0 l 1xe8
311 403 m 1
 343 403 l 1
 343 656 l 1
 311 656 l 2
 296 655 286 649 283 637 c 0
 279 625 278 585 278 519 c 2
 278 403 l 1
 311 403 l 1
131 852 m 1xd0
 131 1007 l 1
 285 1007 l 1
 285 852 l 1
 131 852 l 1xd0
350 852 m 1xc4
 350 1007 l 1
 504 1007 l 1
 504 852 l 1
 350 852 l 1xc4
EndSplineSet
Validated: 5
EndChar

StartChar: Aring
Encoding: 197 197 66
Width: 682
VWidth: 0
Flags: HW
HStem: 0 21G<37 297 363 637> 982 23<294 380>
VStem: 41 256<0 240 403 636> 225 23<849 936> 363 275<0 240 403 655> 426 23<849 936>
LayerCount: 2
Fore
SplineSet
637 0 m 1xc8
 363 0 l 1
 363 240 l 1
 297 240 l 1
 297 0 l 1
 37 0 l 1
 37 0 38 635 41 660 c 0xe8
 44 685 51 708 62 731 c 0
 73 754 91 771 114 785 c 0
 137 799 166 806 202 806 c 2
 268 806 l 2
 242 827 225 858 225 893 c 0
 225 955 275 1005 337 1005 c 0
 399 1005 449 955 449 893 c 0xd4
 449 858 433 827 407 806 c 2
 637 806 l 1
 637 0 l 1xc8
248 893 m 0xd4
 248 849 281 813 323 806 c 2
 351 806 l 2
 393 813 426 849 426 893 c 0
 426 942 386 982 337 982 c 0
 288 982 248 942 248 893 c 0xd4
330 403 m 1
 363 403 l 1
 363 655 l 1
 330 655 l 2
 315 654 306 648 303 636 c 0
 299 624 297 584 297 518 c 2
 297 403 l 1xe8
 330 403 l 1
EndSplineSet
Validated: 1
EndChar

StartChar: Aacute
Encoding: 193 193 67
Width: 657
VWidth: 0
Flags: HW
HStem: 0 809<100 287 353 628> 241 164<287 353>
VStem: 30 257<0 241 404 638> 353 276<0 241 404 657>
LayerCount: 2
Fore
SplineSet
628 0 m 1xb0
 628 0 l 1
 353 0 l 1xb0
 353 241 l 1
 287 241 l 1x70
 287 0 l 1
 25 0 l 1
 25 0 27 637 30 662 c 0
 33 687 39 710 50 733 c 0
 61 756 79 774 103 788 c 0
 127 802 155 809 191 809 c 2
 628 809 l 1
 628 0 l 1xb0
320 404 m 1
 320 404 l 1
 353 404 l 1x70
 353 657 l 1
 320 657 l 2
 305 656 296 651 293 639 c 0
 289 627 287 586 287 520 c 2
 287 404 l 1
 320 404 l 1
498 899 m 1
 156 854 l 1
 156 930 l 1
 497 1009 l 1
 498 899 l 1
EndSplineSet
Validated: 5
EndChar

StartChar: Agrave
Encoding: 192 192 68
Width: 654
VWidth: 0
Flags: HW
HStem: 0 809<97 284 350 625> 241 164<284 350>
VStem: 27 257<0 241 404 638> 350 276<0 241 404 657>
LayerCount: 2
Fore
SplineSet
625 0 m 1xb0
 625 0 l 1
 350 0 l 1xb0
 350 241 l 1
 284 241 l 1x70
 284 0 l 1
 22 0 l 1
 22 0 24 637 27 662 c 0
 30 687 36 710 47 733 c 0
 58 756 76 774 100 788 c 0
 124 802 152 809 188 809 c 2
 625 809 l 1
 625 0 l 1xb0
317 404 m 1
 317 404 l 1
 350 404 l 1x70
 350 657 l 1
 317 657 l 2
 302 656 293 651 290 639 c 0
 286 627 284 586 284 520 c 2
 284 404 l 1
 317 404 l 1
153 899 m 1
 153 1009 l 1
 495 930 l 1
 495 854 l 1
 153 899 l 1
EndSplineSet
Validated: 5
EndChar

StartChar: AE
Encoding: 198 198 69
Width: 868
VWidth: 0
Flags: HW
HStem: -2 162<618 846> 394 162<618 846> 637 162<618 846>
VStem: 25 255<-2 236 398 630>
LayerCount: 2
Fore
SplineSet
846 637 m 1
 618 637 l 1
 618 556 l 1
 846 556 l 1
 846 394 l 1
 618 394 l 1
 618 160 l 1
 846 160 l 1
 846 -2 l 1
 345 -2 l 1
 345 -2 l 1
 345 236 l 1
 280 236 l 1
 280 -2 l 1
 21 -2 l 1
 21 -2 22 630 25 654 c 0
 28 678 34 702 45 725 c 0
 56 748 74 765 97 779 c 0
 120 793 150 799 185 799 c 2
 846 799 l 1
 846 637 l 1
345 398 m 1
 345 649 l 1
 313 649 l 2
 299 648 289 643 286 631 c 0
 282 619 280 579 280 513 c 2
 280 398 l 1
 313 398 l 1
 345 398 l 1
EndSplineSet
Validated: 5
EndChar

StartChar: ae
Encoding: 230 230 70
Width: 995
VWidth: 0
Flags: HW
HStem: -2 153<289 356 611 967> 226 156<623 701> 499 153<99 355 623 696>
VStem: 21 263<169 273>
LayerCount: 2
Fore
SplineSet
644 150 m 2
 967 151 l 1
 967 -2 l 1
 203 -2 l 2
 164 -2 131 4 105 18 c 0
 79 32 60 51 48 74 c 0
 36 97 28 120 25 145 c 0
 24 156 22 189 21 213 c 0
 22 237 24 269 25 280 c 0
 28 305 36 329 48 352 c 0
 60 375 79 393 105 407 c 0
 131 421 164 428 203 428 c 2
 356 428 l 1
 356 470 l 2
 356 477 353 495 328 499 c 0
 327 499 99 499 99 499 c 2
 99 652 l 1
 782 653 l 2
 821 653 854 647 880 633 c 0
 906 619 926 600 938 577 c 0
 950 554 958 530 961 505 c 0
 963 491 964 470 965 441 c 2
 966 441 l 1
 965 226 l 1
 646 226 l 2
 628 226 616 221 612 208 c 0
 611 206 611 201 610 197 c 0
 611 184 609 174 611 169 c 0
 615 156 626 150 644 150 c 2
623 500 m 2
 623 382 l 1
 701 382 l 1
 701 382 698 475 696 481 c 0
 692 494 681 500 663 500 c 0
 623 500 l 2
356 164 m 1
 356 275 l 2
 343 275 322 275 322 275 c 0
 304 275 293 270 289 257 c 0
 287 250 285 235 284 213 c 0
 285 191 287 176 289 169 c 0
 293 156 304 150 322 150 c 0
 323 150 l 0
 323 150 323 150 324 150 c 0
 340 150 351 154 356 164 c 1
EndSplineSet
Validated: 1
EndChar

StartChar: at
Encoding: 64 64 71
Width: 967
VWidth: 0
Flags: HW
HStem: 4 85<278 931> 136 135<559 618 753 796> 763 80<278 796>
VStem: 41 231<107 746> 325 429<354 652> 618 135<272 582> 796 135<272 763>
LayerCount: 2
Fore
SplineSet
483 717 m 2xfa
 753 717 l 1
 753 272 l 2xf6
 768 272 783 272 796 272 c 2
 796 763 l 1
 680 763 307 763 307 763 c 0
 291 763 282 757 278 746 c 0
 274 735 272 642 272 582 c 2
 272 213 l 2
 272 153 274 117 278 106 c 0
 282 95 291 89 307 89 c 0
 931 89 l 2
 931 4 l 1
 201 4 l 2
 166 4 136 11 113 23 c 0
 90 35 73 51 62 72 c 0
 51 93 44 114 41 136 c 0
 39 156 39 690 41 710 c 0
 44 732 51 753 62 774 c 0
 73 795 90 812 113 824 c 0
 136 836 166 842 201 842 c 2
 808 840 l 2
 827 837 844 832 858 824 c 0
 881 812 898 795 909 774 c 0
 920 753 927 732 930 710 c 0
 931 706 931 677 931 633 c 2
 931 136 l 1
 483 136 l 2
 448 136 419 143 396 155 c 0
 373 167 356 184 345 204 c 0
 334 224 328 246 325 268 c 0
 323 285 322 313 321 354 c 2
 321 354 323 570 325 586 c 0
 328 608 334 630 345 650 c 0
 356 670 373 687 396 699 c 0
 419 711 448 717 483 717 c 2xfa
589 272 m 0
 589 272 600 272 618 272 c 2
 618 582 l 2
 602 582 589 582 589 582 c 0
 573 582 563 576 559 565 c 0
 555 554 554 519 554 459 c 2
 554 395 l 2
 554 335 555 300 559 289 c 0
 563 278 573 272 589 272 c 0
EndSplineSet
Validated: 33
EndChar

StartChar: copyright
Encoding: 169 169 72
Width: 820
VWidth: 0
Flags: HW
HStem: 24 91<164 657> 213 163<432 498 498 571> 423 163<432 572> 685 91<164 657>
VStem: 37 90<150 649> 224 165<332 466> 694 90<150 649>
LayerCount: 2
Fore
SplineSet
784 606 m 0
 787 584 787 214 784 193 c 0
 780 164 770 137 755 111 c 0
 740 85 716 63 683 47 c 0
 650 31 609 24 560 24 c 2
 261 24 l 2
 212 24 171 31 138 47 c 0
 105 63 80 85 65 111 c 0
 50 137 41 164 37 193 c 0
 34 214 34 584 37 606 c 0
 41 635 50 662 65 688 c 0
 80 714 105 736 138 752 c 0
 171 768 212 775 261 775 c 2
 560 775 l 2
 609 775 650 768 683 752 c 0
 716 736 740 714 755 688 c 0
 770 662 780 635 784 606 c 0
694 203 m 0
 696 243 696 557 694 596 c 0
 692 612 686 627 677 642 c 0
 671 653 659 662 643 670 c 0
 623 680 595 685 560 685 c 2
 261 685 l 2
 226 685 197 680 177 670 c 0
 161 662 150 653 144 642 c 0
 135 627 129 612 127 596 c 0
 125 557 125 243 127 203 c 0
 129 187 135 172 144 157 c 0
 150 146 161 137 177 129 c 0
 197 119 226 114 261 114 c 2
 560 114 l 2
 595 114 623 119 643 129 c 0
 659 137 671 146 677 157 c 0
 686 172 692 187 694 203 c 0
403 466 m 0
 398 464 396 460 394 455 c 0
 391 446 389 445 389 400 c 0
 389 355 391 353 394 344 c 0
 396 338 399 334 405 332 c 0
 407 331 412 331 417 333 c 0
 422 335 425 339 427 344 c 0
 430 352 432 376 432 376 c 1
 597 376 l 1
 597 324 l 2
 597 295 593 272 585 256 c 0
 578 243 571 233 562 228 c 0
 549 221 537 216 524 214 c 0
 520 214 498 213 498 213 c 1
 335 213 l 2
 306 213 283 217 267 225 c 0
 254 232 244 239 239 248 c 0
 232 261 227 273 225 286 c 0
 225 293 224 314 224 340 c 2
 224 340 l 1
 224 447 l 1
 224 479 225 504 225 513 c 0
 227 526 232 538 239 551 c 0
 244 560 254 567 267 574 c 0
 283 582 306 586 335 586 c 2
 498 586 l 2
 510 586 520 585 524 585 c 0
 537 583 549 578 562 571 c 0
 571 566 578 556 585 543 c 0
 593 527 597 504 597 475 c 2
 597 423 l 1
 432 423 l 1
 432 423 430 447 427 455 c 0
 425 460 422 464 418 466 c 0
 411 469 405 467 403 466 c 0
EndSplineSet
Validated: 37
EndChar

StartChar: registered
Encoding: 174 174 73
Width: 805
VWidth: 0
Flags: HW
HStem: 29 90<159 649> 217 371<219 390 439 553> 371 66<390 435> 510 79<390 436> 686 90<159 649>
VStem: 33 90<155 651> 219 171<218 371 437 510> 439 151<218 359> 686 90<155 651>
LayerCount: 2
Fore
SplineSet
776 608 m 0x8f80
 779 586 779 219 776 198 c 0
 772 170 762 142 747 116 c 0
 732 90 707 69 675 53 c 0
 643 37 602 29 553 29 c 2
 255 29 l 2
 206 29 165 37 133 53 c 0
 101 69 76 90 61 116 c 0
 46 142 37 170 33 198 c 0
 30 219 30 586 33 608 c 0
 37 636 46 664 61 690 c 0
 76 716 101 737 133 753 c 0
 165 769 206 777 255 777 c 2
 553 777 l 2
 602 777 643 769 675 753 c 0
 707 737 732 716 747 690 c 0
 762 664 772 636 776 608 c 0x8f80
686 208 m 0
 688 248 688 559 686 598 c 0
 684 614 678 629 669 644 c 0
 663 655 652 664 636 672 c 0
 616 682 588 686 553 686 c 2
 255 686 l 2
 220 686 193 682 173 672 c 0
 157 664 145 655 139 644 c 0
 130 629 124 614 122 598 c 0
 120 559 120 247 122 208 c 0
 124 192 130 177 139 162 c 0
 145 151 157 142 173 134 c 0
 193 124 220 119 255 119 c 2
 553 119 l 2
 588 119 616 124 636 134 c 0
 652 142 663 151 669 162 c 0
 678 177 684 192 686 208 c 0
589 307 m 2
 589 307 l 1
 589 218 l 1
 439 218 l 1
 439 306 l 2
 439 335 437 353 435 359 c 0
 433 367 426 371 414 371 c 2
 390 371 l 1xaf80
 390 218 l 1
 219 217 l 1
 219 588 l 1
 478 588 l 2xcf80
 502 588 522 585 538 576 c 0
 554 567 566 555 574 541 c 2
 574 541 598 500 576 444 c 0
 576 442 565 425 558 419 c 1
 565 413 570 407 574 399 c 0
 582 385 586 369 588 354 c 0
 589 347 589 327 589 307 c 2
436 450 m 0
 437 454 438 493 436 498 c 0
 434 506 426 510 414 510 c 2
 390 510 l 1xbf80
 390 437 l 1
 414 437 l 1
 414 437 l 2
 426 437 434 442 436 450 c 0
EndSplineSet
Validated: 37
EndChar

StartChar: logicalnot
Encoding: 172 172 74
Width: 787
VWidth: 0
Flags: HW
HStem: 375 290<501 751> 522 144<27 501>
LayerCount: 2
Fore
SplineSet
27 666 m 1x40
 751 666 l 1
 751 375 l 1
 501 375 l 1x80
 501 522 l 1
 27 522 l 1
 27 666 l 1x40
EndSplineSet
Validated: 1
EndChar

StartChar: ordfeminine
Encoding: 170 170 75
Width: 319
VWidth: 0
Flags: HW
HStem: 482 75<134 185> 608 75<134 184> 710 89<72 184>
VStem: 185 98<557 608 682 710>
LayerCount: 2
Fore
SplineSet
280 713 m 0
 281 707 282 701 283 687 c 2
 283 482 l 1
 157 482 l 2
 131 482 110 487 93 495 c 0
 76 503 64 514 56 527 c 0
 48 540 43 553 41 568 c 0
 40 574 40 590 41 596 c 0
 43 611 48 625 56 638 c 0
 64 651 76 662 93 670 c 0
 110 678 131 682 157 682 c 2
 184 682 l 1
 184 693 l 2
 184 697 182 708 166 710 c 0
 165 710 72 710 72 710 c 2
 72 799 l 1
 164 799 l 1
 172 799 l 2
 198 799 211 795 228 787 c 0
 245 779 257 768 265 755 c 0
 273 742 278 728 280 713 c 0
185 557 m 1
 185 608 l 1
 159 608 l 2
 145 608 133 596 133 582 c 0
 133 568 145 557 159 557 c 2
 185 557 l 1
EndSplineSet
Validated: 1
EndChar

StartChar: multiply
Encoding: 215 215 76
Width: 463
VWidth: 0
Flags: HW
LayerCount: 2
Fore
SplineSet
233 566 m 1
 333 666 l 1
 431 568 l 1
 331 468 l 1
 431 368 l 1
 333 270 l 1
 233 370 l 1
 133 270 l 1
 35 368 l 1
 135 468 l 1
 35 568 l 1
 133 666 l 1
 233 566 l 1
EndSplineSet
Validated: 1
EndChar

StartChar: section
Encoding: 167 167 77
Width: 592
VWidth: 0
Flags: HW
HStem: -149 153<46 307> 640 153<280 540>
VStem: 25 233<226 400> 329 233<226 400>
LayerCount: 2
Fore
SplineSet
562 220 m 0
 562 108 l 2
 563 86 562 63 560 41 c 0
 559 28 557 15 554 3 c 0
 549 -18 543 -40 534 -59 c 0
 521 -87 501 -109 474 -126 c 0
 447 -143 413 -151 373 -151 c 2
 46 -149 l 1
 46 4 l 1
 276 4 l 2
 293 4 303 10 307 21 c 0
 308 23 308 26 309 30 c 0
 308 42 310 51 308 55 c 0
 304 66 294 72 277 72 c 2
 180 72 l 1
 180 72 l 2
 147 73 120 78 98 90 c 0
 75 102 57 119 46 140 c 0
 35 161 28 183 25 205 c 0
 23 219 24 357 25 406 c 2
 25 536 l 2
 24 558 24 581 26 603 c 0
 27 616 29 629 32 641 c 0
 37 662 44 684 53 703 c 0
 66 731 85 753 112 770 c 0
 139 787 173 795 213 795 c 2
 540 793 l 1
 540 640 l 1
 540 640 344 640 343 640 c 0
 341 640 339 640 337 640 c 2
 337 639 l 1
 311 639 l 2
 294 639 283 632 279 618 c 0
 278 615 278 612 277 607 c 0
 278 592 276 580 278 575 c 0
 282 561 292 554 309 554 c 2
 395 555 l 1
 400 555 l 2
 435 555 466 548 489 536 c 0
 512 524 529 507 540 486 c 0
 551 465 558 444 561 422 c 0
 563 407 563 268 562 220 c 0
324 226 m 0
 327 236 329 265 329 313 c 0
 329 361 327 390 324 400 c 0
 320 411 310 417 294 417 c 0
 293 417 l 0
 293 417 l 0
 277 417 267 411 263 400 c 0
 260 390 257 361 257 313 c 0
 257 265 260 236 263 226 c 0
 267 215 277 209 293 209 c 0
 293 209 l 0
 294 209 l 0
 310 209 320 215 324 226 c 0
EndSplineSet
Validated: 37
EndChar

StartChar: yen
Encoding: 165 165 78
Width: 790
VWidth: 0
Flags: HW
HStem: 0 21G<261 535> 170 78<43 261 535 756> 332 78<43 261 535 756>
VStem: 261 273<0 170 248 332>
LayerCount: 2
Fore
SplineSet
756 332 m 1
 535 332 l 1
 535 248 l 1
 756 248 l 1
 756 170 l 1
 535 170 l 1
 535 0 l 1
 261 0 l 1
 261 170 l 1
 43 170 l 1
 43 248 l 1
 261 248 l 1
 261 332 l 1
 43 332 l 1
 43 411 l 1
 261 411 l 1
 40 807 l 1
 306 807 l 1
 398 641 l 1
 490 807 l 1
 756 807 l 1
 535 411 l 1
 756 411 l 1
 756 332 l 1
EndSplineSet
Validated: 1
EndChar

StartChar: divide
Encoding: 247 247 79
Width: 478
VWidth: 0
Flags: HW
HStem: 156 139<167 306> 342 138<26 447> 527 139<167 306>
VStem: 167 139<156 295 527 666>
LayerCount: 2
Fore
SplineSet
167 527 m 1
 167 666 l 1
 306 666 l 1
 306 527 l 1
 167 527 l 1
167 156 m 1
 167 295 l 1
 306 295 l 1
 306 156 l 1
 167 156 l 1
26 342 m 1
 26 480 l 1
 447 480 l 1
 447 342 l 1
 26 342 l 1
EndSplineSet
Validated: 1
EndChar

StartChar: plusminus
Encoding: 177 177 80
Width: 478
VWidth: 0
Flags: HW
HStem: 63 138<29 450> 387 138<29 170 308 450>
VStem: 170 138<246 387 525 667>
LayerCount: 2
Fore
SplineSet
308 525 m 1
 450 525 l 1
 450 387 l 1
 308 387 l 1
 308 246 l 1
 170 246 l 1
 170 387 l 1
 29 387 l 1
 29 525 l 1
 170 525 l 1
 170 667 l 1
 308 667 l 1
 308 525 l 1
29 63 m 1
 29 201 l 1
 450 201 l 1
 450 63 l 1
 29 63 l 1
EndSplineSet
Validated: 1
EndChar

StartChar: plus
Encoding: 43 43 81
Width: 478
VWidth: 0
Flags: HW
HStem: 387 138<29 170 308 450>
VStem: 170 138<246 387 525 667>
LayerCount: 2
Fore
SplineSet
308 525 m 1
 450 525 l 1
 450 387 l 1
 308 387 l 1
 308 246 l 1
 170 246 l 1
 170 387 l 1
 29 387 l 1
 29 525 l 1
 170 525 l 1
 170 667 l 1
 308 667 l 1
 308 525 l 1
EndSplineSet
Validated: 1
EndChar

StartChar: asterisk
Encoding: 42 42 82
Width: 511
VWidth: 0
Flags: HW
HStem: 780 20G<176 332>
VStem: 176 156<347 490 658 800>
LayerCount: 2
Fore
SplineSet
481 735 m 5
 481 648 l 5
 338 574 l 5
 481 500 l 5
 481 413 l 5
 332 490 l 5
 332 347 l 5
 176 347 l 5
 176 490 l 5
 28 413 l 5
 28 500 l 5
 170 574 l 5
 28 648 l 5
 28 735 l 5
 176 658 l 5
 176 800 l 5
 332 800 l 5
 332 658 l 5
 481 735 l 5
EndSplineSet
Validated: 1
EndChar

StartChar: ampersand
Encoding: 38 38 83
Width: 749
VWidth: 0
Flags: HW
HStem: 0 21G<522 718> 679 125<299 376>
VStem: 70 227<529 678>
LayerCount: 2
Fore
SplineSet
629 100 m 2
 718 0 l 1
 540 0 l 1
 494 52 l 1
 413 25 283 0 283 0 c 0
 229 -9 140 7 140 7 c 1
 127 10 116 14 105 20 c 0
 79 34 61 52 49 75 c 0
 37 98 29 121 26 146 c 0
 24 160 24 179 24 193 c 0
 24 205 24 257 24 267 c 0
 24 281 24 300 26 314 c 0
 29 339 37 362 49 385 c 0
 61 408 79 436 105 450 c 0
 114 455 124 459 134 462 c 2
 104 496 l 2
 100 502 96 507 93 514 c 0
 82 537 74 560 71 585 c 0
 70 593 70 604 70 614 c 0
 70 628 71 646 72 659 c 0
 75 684 82 707 93 730 c 0
 104 753 122 770 146 784 c 0
 170 798 200 804 236 804 c 2
 338 805 l 1
 439 804 l 2
 475 804 505 798 529 784 c 0
 553 770 571 753 582 730 c 0
 593 707 601 684 604 659 c 0
 605 646 605 628 605 614 c 0
 605 604 605 593 604 585 c 0
 601 560 593 537 582 514 c 0
 571 491 553 474 529 460 c 0
 527 459 380 382 380 382 c 1
 514 231 l 1
 679 281 l 1
 679 156 l 1
 679 119 l 1
 679 119 659 111 629 100 c 2
319 172 m 2
 374 188 l 1
 267 310 l 2
 265 299 264 202 264 199 c 0
 264 199 271 160 319 172 c 2
377 584 m 0
 379 593 379 651 377 660 c 0
 374 672 363 679 346 679 c 2
 329 679 l 2
 312 679 301 672 298 660 c 0
 297 655 297 633 297 614 c 2
 297 529 l 1
 297 529 373 557 377 584 c 0
EndSplineSet
Validated: 33
EndChar

StartChar: parenleft
Encoding: 40 40 84
Width: 517
VWidth: 0
Flags: HW
HStem: 779 20G<171 479>
VStem: 37 248<154 490>
LayerCount: 2
Fore
SplineSet
479 -155 m 1
 479 -155 l 1
 231 -155 l 1
 111 -32 37 136 37 322 c 0
 37 508 111 676 231 799 c 1
 479 799 l 1
 359 676 285 508 285 322 c 0
 285 136 359 -32 479 -155 c 1
EndSplineSet
Validated: 5
EndChar

StartChar: parenright
Encoding: 41 41 85
Width: 499
VWidth: 0
Flags: HW
HStem: 779 20G<28 336>
VStem: 222 248<154 490>
LayerCount: 2
Fore
SplineSet
28 -155 m 1
 148 -32 222 136 222 322 c 0
 222 508 148 676 28 799 c 1
 276 799 l 1
 396 676 470 508 470 322 c 0
 470 136 396 -32 276 -155 c 1
 28 -155 l 1
 28 -155 l 1
EndSplineSet
Validated: 5
EndChar

StartChar: braceleft
Encoding: 123 123 86
Width: 552
VWidth: 0
Flags: HW
HStem: -152 143<378 537> 656 143<378 537>
VStem: 127 246<9 108 108 265 380 539 539 638>
LayerCount: 2
Fore
SplineSet
372 426 m 0
 371 364 260 325 257 324 c 2
 257 323 l 1
 257 323 l 2
 260 322 370 283 372 221 c 0
 372 221 l 2
 372 120 l 2
 372 57 374 20 378 8 c 0
 382 -4 393 -9 410 -9 c 0
 410 -9 536 -9 537 -9 c 2
 537 -152 l 1
 298 -152 l 2
 261 -152 230 -146 206 -133 c 0
 182 -120 164 -103 152 -81 c 0
 140 -59 134 -37 131 -14 c 0
 128 7 127 48 127 108 c 1
 127 108 l 1
 127 108 126 218 125 222 c 0
 122 284 20 323 20 323 c 1
 20 323 122 362 125 424 c 0
 126 429 127 539 127 539 c 1
 127 539 l 1
 127 599 128 640 131 661 c 0
 134 684 140 706 152 728 c 0
 164 750 182 767 206 780 c 0
 230 793 261 799 298 799 c 2
 537 799 l 1
 537 656 l 2
 536 656 416 656 410 656 c 2
 410 656 l 2
 393 656 382 650 378 638 c 0
 374 626 373 589 373 526 c 2
 373 427 l 2
 372 426 l 0
EndSplineSet
Validated: 5
EndChar

StartChar: bracketleft
Encoding: 91 91 87
Width: 376
VWidth: 0
Flags: HW
HStem: -155 146<268 355> 654 146<268 355>
VStem: 21 334<-155 -10 654 799> 21 247<-10 654>
LayerCount: 2
Fore
SplineSet
355 654 m 1xe0
 268 654 l 1
 268 -10 l 1xd0
 355 -10 l 1
 355 -155 l 1
 21 -155 l 1
 21 799 l 1
 355 799 l 1
 355 654 l 1xe0
EndSplineSet
Validated: 1
EndChar

StartChar: bracketright
Encoding: 93 93 88
Width: 397
VWidth: 0
Flags: HW
HStem: -155 146<24 111> 654 146<24 111>
VStem: 24 334<-155 -10 654 799> 111 247<-10 654>
LayerCount: 2
Fore
SplineSet
24 654 m 1xe0
 24 799 l 1
 358 799 l 1
 358 -155 l 1
 24 -155 l 1
 24 -10 l 1xe0
 111 -10 l 1
 111 654 l 1xd0
 24 654 l 1xe0
EndSplineSet
Validated: 1
EndChar

StartChar: quotedblleft
Encoding: 147 8220 89
Width: 427
VWidth: 0
Flags: HW
HStem: 588 211<66 163 253 350>
LayerCount: 2
Fore
SplineSet
24 799 m 1
 163 799 l 1
 205 588 l 1
 66 588 l 1
 24 799 l 1
350 799 m 1
 392 588 l 1
 253 588 l 1
 211 799 l 1
 350 799 l 1
EndSplineSet
Validated: 1
EndChar

StartChar: exclam
Encoding: 33 33 90
Width: 342
VWidth: 0
Flags: HW
HStem: 0 139<93 248>
VStem: 93 155<0 139 208 279>
LayerCount: 2
Fore
SplineSet
248 208 m 1
 93 208 l 1
 32 807 l 1
 308 807 l 1
 248 208 l 1
93 0 m 1
 93 139 l 1
 248 139 l 1
 248 0 l 1
 93 0 l 1
EndSplineSet
Validated: 1
EndChar

StartChar: exclamdown
Encoding: 161 161 91
Width: 322
VWidth: 0
Flags: HW
HStem: 535 131<85 232>
VStem: 85 147<391 469 535 666>
LayerCount: 2
Fore
SplineSet
85 469 m 1
 232 469 l 1
 289 -155 l 1
 28 -155 l 1
 85 469 l 1
85 535 m 1
 85 666 l 1
 232 666 l 1
 232 535 l 1
 85 535 l 1
EndSplineSet
Validated: 1
EndChar

StartChar: dollar
Encoding: 36 36 92
Width: 715
VWidth: 0
Flags: HW
HStem: -2 167<64 274> 641 166<429 591>
VStem: 274 155<-144 -5 808 947>
LayerCount: 2
Fore
SplineSet
668 290 m 0
 674 224 665 152 639 95 c 0
 625 65 603 40 574 22 c 0
 545 4 510 -5 466 -5 c 2
 429 -5 l 1
 429 -144 l 1
 274 -144 l 1
 274 -4 l 1
 63 -2 l 1
 64 165 l 2
 66 165 318 163 342 165 c 0
 345 165 347 166 349 167 c 0
 378 175 400 201 400 233 c 0
 400 271 370 303 332 303 c 2
 214 304 l 2
 179 307 150 315 126 331 c 0
 97 350 77 374 63 404 c 0
 38 461 29 534 36 600 c 0
 38 614 40 629 43 642 c 0
 48 665 56 688 65 709 c 0
 79 739 100 763 129 781 c 0
 158 799 194 808 238 808 c 2
 274 808 l 1
 274 947 l 1
 429 947 l 1
 429 807 l 1
 591 806 l 1
 591 641 l 1
 591 641 379 641 378 641 c 0
 340 641 308 610 308 572 c 0
 308 534 339 502 377 502 c 2
 377 502 523 508 577 473 c 0
 606 455 628 429 641 399 c 0
 650 378 657 355 662 332 c 0
 665 319 667 304 668 290 c 0
EndSplineSet
Validated: 33
EndChar

StartChar: cent
Encoding: 162 162 93
Width: 458
VWidth: 0
Flags: HW
HStem: 0 154<308 433> 506 154<308 433>
VStem: 153 154<-139 0 660 802>
LayerCount: 2
Fore
SplineSet
298 487 m 0
 294 474 292 435 292 367 c 2
 292 294 l 2
 292 226 294 186 298 173 c 0
 302 160 314 154 332 154 c 0
 433 154 l 2
 433 0 l 1
 308 0 l 1
 308 -139 l 1
 153 -139 l 1
 153 6 l 2
 138 9 125 15 113 21 c 0
 87 35 67 54 55 77 c 0
 43 100 35 124 32 149 c 0
 30 168 29 200 28 247 c 2
 28 247 30 493 32 511 c 0
 35 536 43 561 55 584 c 0
 67 607 87 625 113 639 c 0
 125 645 138 651 153 654 c 2
 153 802 l 1
 308 802 l 1
 308 660 l 1
 433 660 l 1
 433 506 l 2
 332 506 l 0
 314 506 302 500 298 487 c 0
EndSplineSet
Validated: 1
EndChar

StartChar: sterling
Encoding: 163 163 94
Width: 552
VWidth: 0
Flags: HW
HStem: 0 154<24 86 350 527> 334 148<24 86 350 527> 644 153<356 527>
VStem: 86 264<154 334 482 624>
LayerCount: 2
Fore
SplineSet
350 334 m 1
 350 334 l 1
 350 154 l 1
 386 154 l 1
 492 154 l 1
 527 154 l 1
 527 0 l 1
 270 0 l 1
 24 0 l 1
 24 154 l 1
 86 154 l 1
 86 334 l 1
 24 334 l 1
 24 482 l 1
 86 482 l 1
 86 518 l 1
 86 518 l 1
 86 582 87 626 90 649 c 0
 93 674 101 698 113 721 c 0
 125 744 145 763 171 777 c 0
 197 791 230 798 270 798 c 2
 527 798 l 1
 527 644 l 2
 525 644 396 644 390 644 c 2
 390 644 l 2
 372 644 360 638 356 625 c 0
 352 612 350 573 350 505 c 2
 350 482 l 1
 527 482 l 1
 527 334 l 1
 350 334 l 1
EndSplineSet
Validated: 5
EndChar

StartChar: currency
Encoding: 164 164 95
Width: 804
VWidth: 0
Flags: HW
VStem: 112 251<256 558> 440 251<256 558>
LayerCount: 2
Fore
SplineSet
690 233 m 0
 690 230 689 227 689 224 c 2
 782 131 l 1
 677 26 l 1
 600 104 l 2
 577 94 549 89 517 89 c 2
 285 89 l 2
 253 89 225 94 202 104 c 2
 125 26 l 1
 20 131 l 1
 113 224 l 2
 113 227 112 230 112 233 c 0
 110 251 110 563 112 581 c 0
 112 584 113 587 113 590 c 2
 20 683 l 1
 125 788 l 1
 202 711 l 2
 225 721 253 725 285 725 c 2
 517 725 l 2
 549 725 577 721 600 711 c 2
 677 788 l 1
 782 683 l 1
 689 590 l 2
 689 587 690 584 690 581 c 0
 692 563 692 251 690 233 c 0
440 372 m 2
 440 442 l 2
 440 507 438 546 434 558 c 0
 430 570 419 577 401 577 c 0
 401 577 l 0
 401 577 l 0
 383 577 372 570 368 558 c 0
 364 546 362 507 362 442 c 2
 362 372 l 2
 362 307 364 268 368 256 c 0
 372 244 383 238 401 238 c 0
 401 238 l 0
 401 238 l 0
 419 238 430 244 434 256 c 0
 438 268 440 307 440 372 c 2
EndSplineSet
Validated: 37
EndChar

StartChar: ordmasculine
Encoding: 186 186 96
Width: 334
VWidth: 0
Flags: HW
HStem: 482 113<145 196> 686 113<145 196>
VStem: 32 277
LayerCount: 2
Fore
SplineSet
309 666 m 0
 311 649 311 632 309 615 c 0
 307 593 301 572 292 551 c 0
 283 530 269 513 250 501 c 0
 231 489 208 482 179 482 c 2
 162 482 l 2
 133 482 109 489 90 501 c 0
 71 513 58 530 49 551 c 0
 40 572 34 593 32 615 c 0
 30 632 30 649 32 666 c 0
 34 688 40 710 49 731 c 0
 58 752 71 769 90 781 c 0
 109 793 133 799 162 799 c 2
 179 799 l 2
 208 799 231 793 250 781 c 0
 269 769 283 752 292 731 c 0
 301 710 307 688 309 666 c 0
197 622 m 2
 197 659 l 2
 197 674 185 686 170 686 c 0
 155 686 143 674 143 659 c 2
 143 622 l 2
 143 607 155 596 170 596 c 0
 185 596 197 607 197 622 c 2
EndSplineSet
Validated: 33
EndChar

StartChar: equal
Encoding: 61 61 97
Width: 478
VWidth: 0
Flags: HW
HStem: 316 138<23 444> 527 138<23 444>
LayerCount: 2
Fore
SplineSet
23 527 m 1
 23 666 l 1
 444 666 l 1
 444 527 l 1
 23 527 l 1
23 316 m 1
 23 455 l 1
 444 455 l 1
 444 316 l 1
 23 316 l 1
EndSplineSet
Validated: 1
EndChar

StartChar: question
Encoding: 63 63 98
Width: 651
VWidth: 0
Flags: HW
HStem: 0 137<30 304> 206 265<108 304> 346 125<308 376> 682 125<30 377>
VStem: 30 274<0 137 206 343> 381 240<491 662>
LayerCount: 2
Fore
SplineSet
30 0 m 1x9c
 30 137 l 1
 304 137 l 1
 304 0 l 1
 30 0 l 1x9c
622 574 m 0
 622 562 622 549 622 539 c 0
 622 525 622 506 620 492 c 0
 617 467 609 444 597 421 c 0
 585 398 566 380 540 366 c 0
 514 352 482 346 443 346 c 0
 440 346 437 346 434 346 c 0
 427 346 421 346 414 346 c 0
 406 346 396 346 388 346 c 0
 379 346 344 347 335 346 c 0xbc
 323 345 311 339 308 327 c 0
 306 320 304 206 304 206 c 1
 30 206 l 1
 30 267 l 2
 30 271 30 275 30 278 c 0
 30 292 30 311 32 325 c 0
 35 350 43 373 55 396 c 0
 67 419 86 437 112 451 c 0
 137 465 169 471 207 471 c 2xdc
 344 471 l 2xbc
 362 471 373 478 377 490 c 0
 379 499 380 520 381 554 c 0
 381 560 382 592 382 599 c 0
 381 633 379 653 377 662 c 0
 373 675 361 682 342 682 c 2
 30 682 l 1
 30 807 l 1
 444 807 l 2
 483 807 514 801 540 787 c 0
 566 773 585 755 597 732 c 0
 609 709 617 686 620 661 c 0
 622 647 622 628 622 614 c 0
 622 602 622 587 622 574 c 0
EndSplineSet
Validated: 33
EndChar

StartChar: questiondown
Encoding: 191 191 99
Width: 619
VWidth: 0
Flags: HW
HStem: -155 118<256 582> 161 118<256 321> 538 129<324 582>
VStem: 26 226<-19 142> 324 258<280 473 538 667>
LayerCount: 2
Fore
SplineSet
324 538 m 1
 324 667 l 1
 582 667 l 1
 582 538 l 1
 324 538 l 1
26 64 m 0
 26 75 26 87 26 97 c 0
 26 110 26 128 28 141 c 0
 31 164 38 187 49 208 c 0
 60 229 78 246 102 259 c 0
 126 272 157 279 194 279 c 0
 197 279 199 279 202 279 c 0
 208 279 215 279 221 279 c 0
 229 279 237 279 245 279 c 0
 253 279 287 277 296 278 c 0
 307 279 318 285 321 296 c 0
 323 303 325 473 325 473 c 1
 582 473 l 1
 582 352 l 2
 582 349 582 345 582 342 c 0
 582 329 582 311 580 298 c 0
 577 275 570 252 559 231 c 0
 548 210 529 193 505 180 c 0
 481 167 451 161 415 161 c 2
 287 161 l 2
 270 161 259 154 256 142 c 0
 254 134 253 114 252 82 c 0
 252 76 252 48 252 41 c 0
 253 9 254 -11 256 -19 c 0
 259 -31 271 -37 289 -37 c 2
 582 -37 l 1
 582 -155 l 1
 193 -155 l 2
 156 -155 126 -149 102 -136 c 0
 78 -123 60 -106 49 -85 c 0
 38 -64 30 -41 27 -18 c 0
 25 -5 26 14 26 27 c 0
 26 38 26 51 26 64 c 0
EndSplineSet
Validated: 33
EndChar

StartChar: degree
Encoding: 176 176 100
Width: 358
VWidth: 0
Flags: HW
HStem: 485 71<119 234> 728 71<119 234>
VStem: 19 71<585 700> 262 71<585 700>
LayerCount: 2
Fore
SplineSet
176 728 m 0
 129 728 90 689 90 642 c 0
 90 595 129 556 176 556 c 0
 223 556 262 595 262 642 c 0
 262 689 223 728 176 728 c 0
176 799 m 1
 263 799 333 729 333 642 c 0
 333 555 263 485 176 485 c 0
 89 485 19 555 19 642 c 0
 19 729 89 799 176 799 c 1
EndSplineSet
Validated: 1
EndChar

StartChar: paragraph
Encoding: 182 182 101
Width: 898
VWidth: 0
Flags: HW
HStem: 0 21G<229 499 591 866> 647 160<499 591>
VStem: 229 270<0 351> 591 275<0 647>
LayerCount: 2
Fore
SplineSet
202 807 m 2
 866 807 l 1
 866 0 l 1
 591 0 l 1
 591 647 l 1
 499 647 l 1
 499 0 l 1
 229 0 l 1
 229 351 l 1
 202 351 l 2
 163 351 131 357 106 371 c 0
 81 385 62 403 50 425 c 0
 38 447 30 471 27 495 c 0
 25 509 25 649 27 663 c 0
 30 687 38 711 50 733 c 0
 62 755 81 773 106 787 c 0
 131 801 164 807 202 807 c 2
EndSplineSet
Validated: 33
EndChar

StartChar: periodcentered
Encoding: 183 183 102
Width: 277
VWidth: 0
Flags: HW
HStem: 429 237<75 212>
VStem: 25 237<479 616>
LayerCount: 2
Fore
SplineSet
25 547 m 0
 25 612 78 666 143 666 c 0
 208 666 262 612 262 547 c 0
 262 482 208 429 143 429 c 0
 78 429 25 482 25 547 c 0
EndSplineSet
Validated: 1
EndChar

StartChar: asciitilde
Encoding: 126 126 103
Width: 352
VWidth: 0
Flags: HW
HStem: 525 140
VStem: 17 310
LayerCount: 2
Fore
SplineSet
17 632 m 2
 17 632 77 692 172 652 c 0
 284 605 327 665 327 665 c 1
 327 540 l 1
 327 540 249 507 172 540 c 0
 81 579 17 525 17 525 c 1
 17 632 l 2
EndSplineSet
Validated: 33
EndChar

StartChar: numbersign
Encoding: 35 35 104
Width: 848
VWidth: 0
Flags: HW
HStem: 0 21G<39 318 401 680> 167 167<25 67 370 429 733 820> 473 167<25 118 421 480 784 820>
LayerCount: 2
Fore
SplineSet
820 473 m 1
 756 473 l 1
 733 334 l 1
 820 334 l 1
 820 167 l 1
 705 167 l 1
 677 0 l 1
 402 0 l 1
 429 167 l 1
 342 167 l 1
 315 0 l 1
 39 0 l 1
 67 167 l 1
 25 167 l 1
 25 334 l 1
 95 334 l 1
 118 473 l 1
 25 473 l 1
 25 640 l 1
 146 640 l 1
 174 807 l 1
 449 807 l 1
 421 640 l 1
 508 640 l 1
 536 807 l 1
 812 807 l 1
 784 640 l 1
 820 640 l 1
 820 473 l 1
457 334 m 1
 480 473 l 1
 394 473 l 1
 370 334 l 1
 457 334 l 1
EndSplineSet
Validated: 1
EndChar

StartChar: asciicircum
Encoding: 94 94 105
Width: 481
VWidth: 0
Flags: HW
HStem: 486 313<-87 -54 99 132>
LayerCount: 2
Fore
SplineSet
456 486 m 1
 319 486 l 1
 242 715 l 1
 166 486 l 1
 28 486 l 1
 132 799 l 1
 352 799 l 1
 456 486 l 1
EndSplineSet
Validated: 1
EndChar

StartChar: braceright
Encoding: 125 125 106
Width: 568
VWidth: 0
Flags: HW
HStem: -156 144<24 184> 656 144<24 184>
VStem: 190 247<6 106 106 264 379 538 538 638>
LayerCount: 2
Fore
SplineSet
190 425 m 0
 190 426 l 2
 190 526 l 2
 190 589 188 626 184 638 c 0
 180 650 170 656 153 656 c 2
 153 656 l 2
 147 656 25 656 24 656 c 2
 24 800 l 1
 265 800 l 2
 302 800 333 793 357 780 c 0
 381 767 399 750 411 728 c 0
 423 706 430 684 433 661 c 0
 436 640 437 598 437 538 c 1
 437 538 l 1
 437 538 437 428 438 423 c 0
 441 361 544 322 544 322 c 1
 544 322 441 282 438 220 c 0
 437 216 437 106 437 106 c 1
 437 106 l 1
 437 46 436 4 433 -17 c 0
 430 -40 423 -62 411 -84 c 0
 399 -106 381 -123 357 -136 c 0
 333 -149 302 -156 265 -156 c 2
 24 -156 l 1
 24 -12 l 2
 25 -12 153 -12 153 -12 c 0
 170 -12 180 -7 184 5 c 0
 188 17 190 55 190 118 c 2
 190 219 l 2
 190 219 l 0
 192 281 304 321 307 322 c 2
 307 322 l 1
 307 322 l 2
 304 323 191 363 190 425 c 0
EndSplineSet
Validated: 5
EndChar

StartChar: underscore
Encoding: 95 95 107
Width: 637
VWidth: 0
Flags: HW
HStem: 7 155<22 618>
LayerCount: 2
Fore
SplineSet
22 7 m 1
 22 162 l 1
 618 162 l 1
 618 7 l 1
 22 7 l 1
EndSplineSet
Validated: 1
EndChar

StartChar: germandbls
Encoding: 223 223 108
Width: 882
VWidth: 0
Flags: HW
HStem: 0 135<386 667> 647 160<308 579>
VStem: 27 275<0 627>
LayerCount: 2
Fore
SplineSet
857 208 m 0
 863 160 854 108 835 69 c 0
 825 48 809 31 787 19 c 0
 765 6 738 0 704 0 c 2
 386 0 l 1
 386 134 l 1
 386 134 626 135 627 135 c 0
 652 135 673 156 673 181 c 0
 673 206 652 227 627 227 c 2
 627 227 523 226 514 226 c 0
 480 226 452 232 430 245 c 0
 408 257 393 274 383 295 c 0
 364 334 355 386 361 434 c 0
 362 444 364 454 366 463 c 0
 370 481 376 498 383 511 c 0
 393 532 408 549 430 561 c 0
 449 572 473 578 502 579 c 2
 502 579 l 2
 503 579 l 0
 506 579 510 580 514 580 c 2
 534 580 l 2
 559 580 580 589 580 614 c 0
 580 639 561 647 537 647 c 2
 343 647 l 2
 324 647 312 640 308 627 c 0
 304 614 301 572 301 502 c 2
 302 0 l 1
 27 0 l 1
 27 516 l 2
 27 583 29 628 32 652 c 0
 35 678 43 703 56 727 c 0
 69 751 89 771 116 785 c 0
 143 799 178 806 219 806 c 2
 219 806 592 807 596 807 c 0
 627 807 664 805 695 787 c 0
 717 775 733 758 743 737 c 0
 750 724 755 708 759 690 c 0
 761 681 764 670 765 660 c 0
 771 612 762 560 743 521 c 0
 733 500 717 483 695 471 c 0
 673 458 645 452 611 452 c 2
 598 452 l 1
 591 452 l 2
 564 452 542 430 542 403 c 0
 542 376 564 354 591 354 c 0
 592 354 683 354 689 354 c 0
 720 354 756 353 787 335 c 0
 809 323 825 306 835 285 c 0
 842 272 848 255 852 237 c 0
 854 228 856 218 857 208 c 0
EndSplineSet
Validated: 37
EndChar

StartChar: OE
Encoding: 140 338 109
Width: 906
VWidth: 0
Flags: HW
HStem: 0 160<298 373 643 868> 392 160<643 868> 646 160<298 373 643 868>
VStem: 25 267<175 631> 373 270<160 392 553 646>
LayerCount: 2
Fore
SplineSet
868 646 m 1
 643 646 l 1
 643 553 l 1
 868 553 l 1
 868 392 l 1
 643 392 l 1
 643 160 l 1
 868 160 l 1
 868 0 l 1
 211 0 l 2
 171 0 138 7 112 21 c 0
 86 35 66 54 53 77 c 0
 40 100 33 125 30 150 c 0
 27 173 25 218 25 283 c 2
 25 523 l 2
 25 588 27 633 30 656 c 0
 33 681 40 706 53 729 c 0
 66 752 86 771 112 785 c 0
 138 799 171 806 211 806 c 2
 868 806 l 1
 868 646 l 1
373 155 m 2
 373 651 l 1
 332 651 l 2
 313 651 302 645 298 632 c 0
 294 619 292 578 292 510 c 2
 292 296 l 2
 292 228 294 187 298 174 c 0
 302 161 313 155 332 155 c 0
 373 155 l 2
EndSplineSet
Validated: 1
EndChar

StartChar: trademark
Encoding: 153 8482 110
Width: 751
VWidth: 0
Flags: HW
HStem: 486 313<88 231 333 467 548 556 590 599 660 704> 674 125<17 88 231 303> 683 117<467 523>
VStem: 88 142<486 674> 333 133<486 683> 528 71<486 667> 660 71<486 668>
LayerCount: 2
Fore
SplineSet
303 799 m 1x5e
 303 674 l 1
 231 674 l 1x5e
 231 486 l 1
 88 486 l 1x9e
 88 674 l 1
 17 674 l 1
 17 799 l 1
 303 799 l 1x5e
717 763 m 0
 724 754 728 743 729 731 c 0
 730 723 731 709 731 689 c 2
 731 486 l 1
 660 486 l 1x9e
 660 577 l 2
 660 628 658 658 655 668 c 0
 652 678 644 683 630 683 c 0x3e
 615 683 606 678 603 668 c 0
 600 658 599 626 599 572 c 2
 599 486 l 1
 528 486 l 1x9e
 528 577 l 2
 528 628 526 658 523 668 c 0
 520 678 511 683 497 683 c 2
 467 683 l 1x3e
 467 486 l 1
 333 486 l 1
 333 799 l 1x9e
 481 799 l 2x3e
 486 799 492 799 498 799 c 0
 515 796 532 791 548 782 c 0
 557 777 566 770 573 762 c 1
 580 770 589 777 598 782 c 0
 610 789 626 794 640 796 c 0
 670 801 700 787 717 763 c 0
EndSplineSet
Validated: 33
EndChar

StartChar: dagger
Encoding: 134 8224 111
Width: 382
VWidth: 0
Flags: HW
HStem: 616 96<24 118 261 356> 779 20G<118 261>
VStem: 118 142<365 616 711 799>
LayerCount: 2
Fore
SplineSet
356 711 m 1
 356 616 l 1
 261 616 l 1
 261 365 l 1
 118 365 l 1
 118 616 l 1
 24 616 l 1
 24 711 l 1
 118 711 l 1
 118 799 l 1
 261 799 l 1
 261 711 l 1
 356 711 l 1
EndSplineSet
Validated: 1
EndChar

StartChar: daggerdbl
Encoding: 135 8225 112
Width: 397
VWidth: 0
Flags: HW
HStem: 452 96<36 130 273 368> 616 96<36 130 273 368> 779 20G<130 273>
VStem: 130 142<365 452 548 616 711 799>
LayerCount: 2
Fore
SplineSet
368 616 m 1
 273 616 l 1
 273 548 l 1
 368 548 l 1
 368 452 l 1
 273 452 l 1
 273 365 l 1
 130 365 l 1
 130 452 l 1
 36 452 l 1
 36 548 l 1
 130 548 l 1
 130 616 l 1
 36 616 l 1
 36 711 l 1
 130 711 l 1
 130 799 l 1
 273 799 l 1
 273 711 l 1
 368 711 l 1
 368 616 l 1
EndSplineSet
Validated: 1
EndChar

StartChar: fi
Encoding: 256 64257 113
Width: 746
VWidth: 0
Flags: HW
HStem: 0 21G<448 724> 381 139<270 448> 662 137<275 364 448 724>
VStem: 19 250<-7 381 520 660> 448 276<0 381 520 520 662 800>
LayerCount: 2
Fore
SplineSet
448 520 m 1
 724 520 l 1
 724 0 l 1
 448 0 l 1
 448 381 l 1
 270 381 l 1
 270 -8 l 1
 19 -8 l 1
 19 -8 19 664 19 666 c 0
 22 688 29 710 40 731 c 0
 51 752 69 769 92 781 c 0
 115 793 144 800 180 800 c 2
 364 800 l 1
 364 662 l 1
 364 662 310 662 309 662 c 0
 290 662 279 656 275 643 c 0
 275 642 274 640 274 638 c 0
 272 619 270 567 270 520 c 1
 448 520 l 1
 448 520 l 1
448 662 m 1
 448 800 l 1
 724 800 l 1
 724 662 l 1
 448 662 l 1
EndSplineSet
Validated: 1
EndChar

StartChar: fl
Encoding: 257 64258 114
Width: 751
VWidth: 0
Flags: HW
HStem: -0 21G<19 270> 0 21G<19 270 448 724> 389 139<270 448> 669 138<275 364>
VStem: 19 250<0 389 528 667> 448 276<0 389 528 807>
LayerCount: 2
Fore
SplineSet
724 807 m 1xbc
 724 0 l 1
 448 0 l 1x7c
 448 389 l 1
 270 389 l 1
 270 -0 l 1
 19 -0 l 1
 19 -0 19 672 19 674 c 0
 22 696 29 718 40 739 c 0
 51 760 69 776 92 788 c 0
 115 801 144 807 180 807 c 2
 364 807 l 1
 364 670 l 1
 364 670 310 669 309 669 c 0
 290 669 279 663 275 650 c 0
 275 649 274 648 274 646 c 0
 272 627 270 575 270 528 c 1
 448 528 l 1
 448 807 l 1
 724 807 l 1xbc
EndSplineSet
Validated: 1
EndChar

StartChar: perthousand
Encoding: 137 8240 115
Width: 1524
VWidth: 0
Flags: HW
HStem: 4 147<863 928 1276 1341> 335 147<863 928 1276 1341> 778 20G<185 245 519 795>
VStem: 32 150<468 651> 247 151<468 651> 713 150<151 334> 928 151<151 334> 1126 150<151 334> 1341 151<151 334>
LayerCount: 2
Fore
SplineSet
795 798 m 1
 592 0 l 1
 322 0 l 1
 524 798 l 1
 795 798 l 1
398 656 m 0
 400 638 400 480 398 462 c 0
 395 438 388 415 376 393 c 0
 364 371 346 353 321 340 c 0
 296 327 264 320 226 320 c 2
 204 320 l 2
 166 320 134 327 109 340 c 0
 84 353 66 371 54 393 c 0
 42 415 35 438 32 462 c 0
 30 480 30 638 32 656 c 0
 35 680 42 703 54 725 c 0
 66 747 84 765 109 778 c 0
 134 791 166 798 204 798 c 2
 226 798 l 2
 264 798 296 791 321 778 c 0
 346 765 364 747 376 725 c 0
 388 703 395 680 398 656 c 0
215 467 m 0
 233 467 243 473 247 485 c 0
 251 497 251 621 247 633 c 0
 243 645 233 651 215 651 c 0
 214 651 l 0
 214 651 l 0
 197 651 186 645 182 633 c 0
 178 621 178 497 182 485 c 0
 186 473 197 467 214 467 c 0
 214 467 l 0
 215 467 l 0
1079 340 m 0
 1081 322 1081 164 1079 146 c 0
 1076 122 1069 99 1057 77 c 0
 1045 55 1027 37 1002 24 c 0
 977 11 946 4 908 4 c 2
 885 4 l 2
 847 4 815 11 790 24 c 0
 765 37 747 55 735 77 c 0
 723 99 716 122 713 146 c 0
 711 164 711 322 713 340 c 0
 716 364 723 387 735 409 c 0
 747 431 765 449 790 462 c 0
 815 475 847 482 885 482 c 2
 908 482 l 2
 946 482 977 475 1002 462 c 0
 1027 449 1045 431 1057 409 c 0
 1069 387 1076 364 1079 340 c 0
896 150 m 0
 914 150 924 157 928 169 c 0
 932 181 932 305 928 317 c 0
 924 329 914 335 896 335 c 0
 895 335 l 0
 895 335 l 0
 878 335 867 329 863 317 c 0
 859 305 859 181 863 169 c 0
 867 157 878 150 895 150 c 0
 895 150 l 0
 896 150 l 0
1493 340 m 0
 1495 322 1495 164 1493 146 c 0
 1490 122 1483 99 1471 77 c 0
 1459 55 1440 37 1415 24 c 0
 1390 11 1359 4 1321 4 c 2
 1298 4 l 2
 1260 4 1229 11 1204 24 c 0
 1179 37 1160 55 1148 77 c 0
 1136 99 1129 122 1126 146 c 0
 1124 164 1124 322 1126 340 c 0
 1129 364 1136 387 1148 409 c 0
 1160 431 1179 449 1204 462 c 0
 1229 475 1260 482 1298 482 c 2
 1321 482 l 2
 1359 482 1390 475 1415 462 c 0
 1440 449 1459 431 1471 409 c 0
 1483 387 1490 364 1493 340 c 0
1309 150 m 0
 1327 150 1337 157 1341 169 c 0
 1345 181 1345 305 1341 317 c 0
 1337 329 1327 335 1309 335 c 0
 1309 335 l 0
 1308 335 l 0
 1291 335 1280 329 1276 317 c 0
 1272 305 1272 181 1276 169 c 0
 1280 157 1291 150 1308 150 c 0
 1309 150 l 0
 1309 150 l 0
EndSplineSet
Validated: 37
EndChar

StartChar: percent
Encoding: 37 37 116
Width: 1120
VWidth: 0
Flags: HW
HStem: 0 21G<312 592>
VStem: 17 153<476 662> 236 154<476 662> 710 153<154 340> 929 154<154 340>
LayerCount: 2
Fore
SplineSet
793 812 m 1
 587 0 l 1
 312 0 l 1
 518 812 l 1
 793 812 l 1
390 667 m 0
 392 648 392 488 390 470 c 0
 387 446 379 422 367 400 c 0
 355 378 336 360 311 346 c 0
 286 332 254 325 215 325 c 2
 192 325 l 2
 153 325 121 332 96 346 c 0
 71 360 52 378 40 400 c 0
 28 422 20 446 17 470 c 0
 15 488 15 648 17 667 c 0
 20 691 28 716 40 738 c 0
 52 760 71 778 96 792 c 0
 121 806 153 812 192 812 c 2
 215 812 l 2
 254 812 286 806 311 792 c 0
 336 778 355 760 367 738 c 0
 379 716 387 691 390 667 c 0
203 475 m 0
 221 475 232 481 236 493 c 0
 240 505 240 632 236 644 c 0
 232 656 221 663 203 663 c 0
 203 663 l 0
 203 663 l 0
 185 663 174 656 170 644 c 0
 166 632 166 505 170 493 c 0
 174 481 185 475 203 475 c 0
 203 475 l 0
 203 475 l 0
1083 346 m 0
 1085 327 1085 166 1083 148 c 0
 1080 124 1072 100 1060 78 c 0
 1048 56 1029 38 1004 24 c 0
 979 10 947 4 908 4 c 2
 885 4 l 2
 846 4 814 10 789 24 c 0
 764 38 745 56 733 78 c 0
 721 100 713 124 710 148 c 0
 708 166 708 327 710 346 c 0
 713 370 721 394 733 416 c 0
 745 438 764 456 789 470 c 0
 814 484 846 490 885 490 c 2
 908 490 l 2
 947 490 979 484 1004 470 c 0
 1029 456 1048 438 1060 416 c 0
 1072 394 1080 370 1083 346 c 0
896 153 m 0
 914 153 925 159 929 171 c 0
 933 183 933 310 929 322 c 0
 925 334 914 341 896 341 c 0
 896 341 l 0
 895 341 l 0
 877 341 867 334 863 322 c 0
 859 310 859 183 863 171 c 0
 867 159 877 153 895 153 c 0
 896 153 l 0
 896 153 l 0
EndSplineSet
Validated: 37
EndChar

StartChar: slash
Encoding: 47 47 117
Width: 540
VWidth: 0
Flags: HW
HStem: 0 21G<26 304>
LayerCount: 2
Fore
SplineSet
503 806 m 1
 299 0 l 1
 26 0 l 1
 230 806 l 1
 503 806 l 1
EndSplineSet
Validated: 1
EndChar

StartChar: less
Encoding: 60 60 118
Width: 600
VWidth: 0
Flags: HW
LayerCount: 2
Fore
SplineSet
572 762 m 1
 572 633 l 1
 231 404 l 1
 572 176 l 1
 572 46 l 1
 26 404 l 1
 572 762 l 1
EndSplineSet
Validated: 1
EndChar

StartChar: greater
Encoding: 62 62 119
Width: 583
VWidth: 0
Flags: HW
LayerCount: 2
Fore
SplineSet
17 761 m 1
 563 403 l 1
 17 45 l 1
 17 175 l 1
 359 403 l 1
 17 632 l 1
 17 761 l 1
EndSplineSet
Validated: 1
EndChar

StartChar: oe
Encoding: 156 339 120
Width: 999
VWidth: 0
Flags: HW
HStem: 0 155<287 355 617 976> 231 158<628 707> 508 155<287 355 628 703>
VStem: 20 261<174 488>
LayerCount: 2
Fore
SplineSet
650 154 m 2
 976 155 l 1
 976 0 l 1
 201 0 l 2
 161 0 127 7 101 21 c 0
 75 35 56 54 43 77 c 0
 31 100 23 125 20 150 c 0
 18 169 18 494 20 513 c 0
 23 538 30 563 43 586 c 0
 56 609 75 628 101 642 c 0
 127 656 161 663 201 663 c 2
 789 663 l 2
 829 663 863 656 889 642 c 0
 915 628 934 609 947 586 c 0
 960 563 967 538 970 513 c 0
 972 499 973 477 974 448 c 2
 975 448 l 1
 974 231 l 1
 652 231 l 2
 634 231 622 225 618 212 c 0
 617 210 617 206 616 202 c 0
 617 189 614 178 616 173 c 0
 620 160 632 154 650 154 c 2
628 508 m 1
 628 389 l 1
 707 389 l 1
 707 389 705 483 703 489 c 0
 699 502 687 508 669 508 c 0
 628 508 l 1
281 295 m 2
 281 227 283 187 287 174 c 0
 291 161 303 155 321 155 c 0
 321 155 l 0
 322 155 l 0
 340 155 352 161 356 174 c 0
 360 187 362 227 362 295 c 2
 362 368 l 2
 362 436 360 476 356 489 c 0
 352 502 340 508 322 508 c 0
 321 508 l 0
 321 508 l 0
 303 508 291 502 287 489 c 0
 283 476 281 436 281 368 c 2
 281 295 l 2
EndSplineSet
Validated: 37
EndChar

StartChar: backslash
Encoding: 92 92 121
Width: 530
VWidth: 0
Flags: HW
HStem: 0 21G<221 500>
LayerCount: 2
Fore
SplineSet
22 806 m 1
 295 806 l 1
 500 0 l 1
 226 0 l 1
 22 806 l 1
EndSplineSet
Validated: 1
EndChar

StartChar: bar
Encoding: 124 124 122
Width: 332
VWidth: 0
Flags: HW
HStem: 779 20G<29 302>
VStem: 29 273<-225 799>
LayerCount: 2
Fore
SplineSet
29 -225 m 1
 29 799 l 1
 302 799 l 1
 302 -225 l 1
 29 -225 l 1
EndSplineSet
Validated: 1
EndChar

StartChar: Oslash
Encoding: 216 216 123
Width: 654
VWidth: 0
Flags: HW
HStem: 0 21G<207 470>
VStem: 23 266<174 227 407 629> 370 261<174 282 282 396>
LayerCount: 2
Fore
SplineSet
631 653 m 0
 634 630 636 282 636 282 c 1
 636 282 634 173 631 150 c 0
 628 125 621 100 608 77 c 0
 596 54 575 35 549 21 c 0
 523 7 490 0 450 0 c 2
 208 0 l 2
 205 0 204 0 201 0 c 2
 140 -142 l 1
 54 -142 l 1
 121 15 l 2
 117 17 113 19 109 21 c 0
 83 35 64 54 51 77 c 0
 39 100 30 125 27 150 c 0
 24 173 23 217 23 282 c 2
 23 521 l 2
 23 586 24 630 27 653 c 0
 30 678 39 703 51 726 c 0
 64 749 83 768 109 782 c 0
 135 796 168 803 208 803 c 2
 450 803 l 2
 453 803 455 803 458 803 c 2
 519 945 l 1
 604 945 l 1
 537 788 l 2
 541 786 545 784 549 782 c 0
 575 768 596 749 608 726 c 0
 621 703 628 678 631 653 c 0
289 508 m 2
 289 407 l 1
 368 592 l 2
 367 610 366 623 364 629 c 0
 360 642 348 648 330 648 c 0
 329 648 l 0
 329 648 l 0
 311 648 299 642 295 629 c 0
 291 616 289 576 289 508 c 2
364 174 m 0
 368 187 370 227 370 295 c 2
 370 396 l 1
 291 211 l 2
 292 193 293 180 295 174 c 0
 299 161 311 155 329 155 c 0
 329 155 l 0
 330 155 l 0
 348 155 360 161 364 174 c 0
EndSplineSet
Validated: 5
EndChar

StartChar: oslash
Encoding: 248 248 124
Width: 641
VWidth: 0
Flags: HW
LayerCount: 2
Fore
SplineSet
619 511 m 0
 621 492 621 170 619 152 c 0
 616 127 608 103 596 80 c 0
 584 57 564 38 538 24 c 0
 512 10 479 3 440 3 c 2
 224 3 l 1
 161 -144 l 1
 72 -144 l 1
 138 11 l 2
 125 14 113 18 102 24 c 0
 76 38 57 57 45 80 c 0
 33 103 25 127 22 152 c 0
 20 170 20 492 22 511 c 0
 25 536 33 560 45 583 c 0
 57 606 76 625 102 639 c 0
 128 653 162 659 201 659 c 2
 416 659 l 1
 479 807 l 1
 568 807 l 1
 502 652 l 2
 515 649 527 645 538 639 c 0
 564 625 584 606 596 583 c 0
 608 560 616 536 619 511 c 0
280 368 m 2
 280 342 l 1
 347 498 l 2
 341 503 332 506 320 506 c 0
 320 506 l 0
 320 506 l 0
 302 506 290 500 286 487 c 0
 282 474 280 435 280 368 c 2
354 175 m 0
 358 188 360 228 360 295 c 2
 360 321 l 1
 293 164 l 2
 299 159 308 156 320 156 c 0
 320 156 l 0
 321 156 l 0
 339 156 350 162 354 175 c 0
EndSplineSet
Validated: 37
EndChar

StartChar: bullet
Encoding: 149 8226 125
Width: 439
VWidth: 0
Flags: HW
HStem: 279 387<133 309>
VStem: 28 387<384 560>
LayerCount: 2
Fore
SplineSet
28 472 m 0
 28 579 114 666 221 666 c 0
 328 666 415 579 415 472 c 0
 415 365 328 279 221 279 c 0
 114 279 28 365 28 472 c 0
EndSplineSet
Validated: 1
EndChar

StartChar: guillemotleft
Encoding: 171 171 126
Width: 1083
VWidth: 0
Flags: HW
HStem: 0 21G<603 634 1038 1069>
LayerCount: 2
Fore
SplineSet
634 803 m 1
 634 657 l 1
 251 401 l 1
 634 145 l 1
 634 0 l 1
 21 401 l 1
 634 803 l 1
1069 803 m 1
 1069 657 l 1
 686 401 l 1
 1069 145 l 1
 1069 0 l 1
 456 401 l 1
 1069 803 l 1
EndSplineSet
Validated: 1
EndChar

StartChar: guillemotright
Encoding: 187 187 127
Width: 1092
VWidth: 0
Flags: HW
HStem: 0 21G<19 50 455 485>
LayerCount: 2
Fore
SplineSet
455 803 m 1
 1067 401 l 1
 455 0 l 1
 455 145 l 1
 838 401 l 1
 455 657 l 1
 455 803 l 1
19 803 m 1
 632 401 l 1
 19 0 l 1
 19 145 l 1
 403 401 l 1
 19 657 l 1
 19 803 l 1
EndSplineSet
Validated: 1
EndChar

StartChar: mu
Encoding: 181 181 128
Width: 619
VWidth: 0
Flags: HW
HStem: 0 21G<451 592> 35 142<275 343>
VStem: 31 244<-207 35 176 613> 349 244<194 613> 451 142<0 74>
LayerCount: 2
Fore
SplineSet
349 613 m 1xf0
 592 613 l 1xf0
 592 0 l 1
 451 0 l 1
 451 74 l 2xe8
 443 66 433 60 422 54 c 0
 398 41 368 35 331 35 c 2
 275 35 l 1
 275 -207 l 1
 31 -207 l 1
 31 613 l 1
 275 613 l 1
 275 176 l 1
 312 176 l 2
 329 176 339 182 343 194 c 0
 347 206 349 243 349 305 c 2
 349 613 l 1xf0
EndSplineSet
Validated: 1
EndChar

StartChar: guilsinglleft
Encoding: 139 8249 129
Width: 672
VWidth: 0
Flags: HW
HStem: 0 21G<589 639>
LayerCount: 2
Fore
SplineSet
639 690 m 1
 639 501 l 1
 217 331 l 1
 639 160 l 1
 639 0 l 1
 21 250 l 1
 21 251 l 1
 21 410 l 1
 21 411 l 1
 639 690 l 1
EndSplineSet
Validated: 1
EndChar

StartChar: guilsinglright
Encoding: 155 8250 130
Width: 668
VWidth: 0
Flags: HW
HStem: 0 21G<29 78>
LayerCount: 2
Fore
SplineSet
29 661 m 1
 647 411 l 1
 647 410 l 1
 647 251 l 1
 647 250 l 1
 29 0 l 1
 29 160 l 1
 450 331 l 1
 29 501 l 1
 29 661 l 1
EndSplineSet
Validated: 1
EndChar

StartChar: quotedblright
Encoding: 148 8221 131
Width: 409
VWidth: 0
Flags: HW
HStem: 588 211<61 158 248 345>
LayerCount: 2
Fore
SplineSet
387 799 m 1
 345 588 l 1
 206 588 l 1
 248 799 l 1
 387 799 l 1
61 799 m 1
 200 799 l 1
 158 588 l 1
 19 588 l 1
 61 799 l 1
EndSplineSet
Validated: 1
EndChar

StartChar: quoteright
Encoding: 146 8217 132
Width: 241
VWidth: 0
Flags: HW
HStem: 588 211<73 170>
VStem: 31 180
LayerCount: 2
Fore
SplineSet
73 799 m 1
 212 799 l 1
 170 588 l 1
 31 588 l 1
 73 799 l 1
EndSplineSet
Validated: 1
EndChar

StartChar: quoteleft
Encoding: 145 8216 133
Width: 232
VWidth: 0
Flags: HW
HStem: 588 211<64 161>
VStem: 22 180
LayerCount: 2
Fore
SplineSet
161 799 m 1
 203 588 l 1
 64 588 l 1
 22 799 l 1
 161 799 l 1
EndSplineSet
Validated: 1
EndChar

StartChar: ellipsis
Encoding: 133 8230 134
Width: 620
VWidth: 0
Flags: HW
HStem: 0 150<28 177 237 386 446 595>
VStem: 28 150<0 150> 237 150<0 150> 446 150<0 150>
LayerCount: 2
Fore
SplineSet
28 0 m 1
 28 150 l 1
 177 150 l 1
 177 0 l 1
 28 0 l 1
237 0 m 1
 237 150 l 1
 386 150 l 1
 386 0 l 1
 237 0 l 1
446 0 m 1
 446 150 l 1
 595 150 l 1
 595 0 l 1
 446 0 l 1
EndSplineSet
Validated: 1
EndChar

StartChar: quotesingle
Encoding: 39 39 135
Width: 193
VWidth: 0
Flags: HW
HStem: 588 211
VStem: 26 69<589 610>
LayerCount: 2
Fore
SplineSet
95 588 m 1
 26 589 l 1
 26 799 l 1
 165 799 l 1
 95 588 l 1
EndSplineSet
Validated: 1
EndChar

StartChar: comma
Encoding: 44 44 136
Width: 184
VWidth: 0
Flags: HW
HStem: -129 246
VStem: 12 162<-150 -128>
LayerCount: 2
Fore
SplineSet
92 -129 m 1
 12 -128 l 1
 12 117 l 1
 173 117 l 1
 92 -129 l 1
EndSplineSet
Validated: 1
EndChar

StartChar: period
Encoding: 46 46 137
Width: 185
VWidth: 0
Flags: HW
HStem: 0 150<18 167>
VStem: 18 150<0 150>
LayerCount: 2
Fore
SplineSet
18 0 m 1
 18 150 l 1
 167 150 l 1
 167 0 l 1
 18 0 l 1
EndSplineSet
Validated: 1
EndChar

StartChar: colon
Encoding: 58 58 138
Width: 191
VWidth: 0
Flags: HW
HStem: 0 150<21 171> 228 150<21 171>
VStem: 21 150<0 150 228 377>
LayerCount: 2
Fore
SplineSet
21 0 m 1
 21 150 l 1
 171 150 l 1
 171 0 l 1
 21 0 l 1
21 228 m 1
 21 377 l 1
 171 377 l 1
 171 228 l 1
 21 228 l 1
EndSplineSet
Validated: 1
EndChar

StartChar: semicolon
Encoding: 59 59 139
Width: 201
VWidth: 0
Flags: HW
HStem: 228 150<27 177>
VStem: 27 150<128 150 228 378>
LayerCount: 2
Fore
SplineSet
102 -78 m 1
 27 -77 l 1
 27 150 l 1
 177 150 l 1
 102 -78 l 1
27 228 m 1
 27 378 l 1
 177 378 l 1
 177 228 l 1
 27 228 l 1
EndSplineSet
Validated: 1
EndChar

StartChar: quotedbl
Encoding: 34 34 140
Width: 360
VWidth: 0
Flags: HW
HStem: 571 228<42 131 214 304>
VStem: 42 90<571 626> 214 90<571 626>
LayerCount: 2
Fore
SplineSet
131 571 m 1
 42 571 l 1
 12 799 l 1
 161 799 l 1
 131 571 l 1
304 571 m 1
 214 571 l 1
 184 799 l 1
 334 799 l 1
 304 571 l 1
EndSplineSet
Validated: 1
EndChar

StartChar: hyphen
Encoding: 45 45 141
Width: 294
VWidth: 0
Flags: HW
HStem: 270 138<9 289>
VStem: 9 280<270 408>
LayerCount: 2
Fore
SplineSet
9 270 m 1
 9 408 l 1
 289 408 l 1
 289 270 l 1
 9 270 l 1
EndSplineSet
Validated: 1
EndChar

StartChar: fraction
Encoding: 258 8260 142
Width: 540
VWidth: 0
Flags: HW
HStem: 0 21G<26 304>
LayerCount: 2
Fore
SplineSet
503 806 m 1
 299 0 l 1
 26 0 l 1
 230 806 l 1
 503 806 l 1
EndSplineSet
Validated: 1
EndChar

StartChar: quotesinglbase
Encoding: 130 8218 143
Width: 184
VWidth: 0
Flags: HW
HStem: -129 246
VStem: 12 162<-150 -128>
LayerCount: 2
Fore
SplineSet
92 -129 m 1
 12 -128 l 1
 12 117 l 1
 173 117 l 1
 92 -129 l 1
EndSplineSet
Validated: 1
EndChar

StartChar: grave
Encoding: 96 96 144
Width: 358
VWidth: 0
Flags: HW
HStem: 648 152
VStem: 13 335<691 722>
LayerCount: 2
Fore
SplineSet
13 691 m 1
 13 799 l 1
 348 722 l 1
 348 648 l 1
 13 691 l 1
EndSplineSet
Validated: 1
EndChar

StartChar: acute
Encoding: 180 180 145
Width: 357
VWidth: 0
Flags: HW
HStem: 648 152
VStem: 11 335<617 648>
LayerCount: 2
Fore
SplineSet
346 691 m 1
 11 648 l 1
 11 722 l 1
 346 799 l 1
 346 691 l 1
EndSplineSet
Validated: 1
EndChar

StartChar: quotedblbase
Encoding: 132 8222 146
Width: 429
VWidth: 0
Flags: HW
HStem: -90 228<58 163 260 365>
LayerCount: 2
Fore
SplineSet
13 -90 m 1
 58 138 l 1
 208 138 l 1
 163 -90 l 1
 13 -90 l 1
260 138 m 1
 410 138 l 1
 365 -90 l 1
 215 -90 l 1
 260 138 l 1
EndSplineSet
Validated: 1
EndChar

StartChar: dieresis
Encoding: 168 168 147
Width: 381
VWidth: 0
Flags: HW
HStem: 647 152<8 159 223 375>
VStem: 8 152<647 798> 223 152<647 798>
LayerCount: 2
Fore
SplineSet
8 647 m 1
 8 798 l 1
 159 798 l 1
 159 647 l 1
 8 647 l 1
223 647 m 1
 223 798 l 1
 375 798 l 1
 375 647 l 1
 223 647 l 1
EndSplineSet
Validated: 1
EndChar

StartChar: ring
Encoding: 259 730 148
Width: 358
VWidth: 0
Flags: HW
HStem: 485 71<119 234> 728 71<119 234>
VStem: 19 71<585 700> 262 71<585 700>
LayerCount: 2
Fore
SplineSet
176 728 m 0
 129 728 90 689 90 642 c 0
 90 595 129 556 176 556 c 0
 223 556 262 595 262 642 c 0
 262 689 223 728 176 728 c 0
176 799 m 1
 263 799 333 729 333 642 c 0
 333 555 263 485 176 485 c 0
 89 485 19 555 19 642 c 0
 19 729 89 799 176 799 c 1
EndSplineSet
Validated: 1
EndChar

StartChar: tilde
Encoding: 152 732 149
Width: 352
VWidth: 0
Flags: HW
HStem: 651 140
VStem: 17 310
LayerCount: 2
Fore
SplineSet
17 758 m 2
 17 758 77 818 172 778 c 0
 284 731 327 791 327 791 c 1
 327 665 l 1
 327 665 249 632 172 665 c 0
 81 704 17 651 17 651 c 1
 17 758 l 2
EndSplineSet
Validated: 33
EndChar

StartChar: circumflex
Encoding: 136 710 150
Width: 390
VWidth: 0
Flags: HW
HStem: 649 102<8 35 348 375> 779 20G<116 267>
LayerCount: 2
Fore
SplineSet
8 649 m 1
 8 751 l 1
 191 799 l 1
 375 751 l 1
 375 649 l 1
 191 697 l 1
 8 649 l 1
EndSplineSet
Validated: 1
EndChar

StartChar: endash
Encoding: 150 8211 151
Width: 591
VWidth: 0
Flags: HW
HStem: 243 148<11 579>
LayerCount: 2
Fore
SplineSet
11 243 m 1
 11 390 l 1
 579 390 l 1
 579 243 l 1
 11 243 l 1
EndSplineSet
Validated: 1
EndChar

StartChar: emdash
Encoding: 151 8212 152
Width: 745
VWidth: 0
Flags: HW
HStem: 243 148<10 734>
LayerCount: 2
Fore
SplineSet
10 243 m 5
 10 391 l 5
 734 391 l 5
 734 243 l 5
 10 243 l 5
EndSplineSet
Validated: 1
EndChar

StartChar: dotaccent
Encoding: 260 729 153
Width: 164
VWidth: 0
Flags: HW
HStem: 652 148<31 136>
VStem: 10 148<673 778>
LayerCount: 2
Fore
SplineSet
10 725 m 0
 10 766 43 799 84 799 c 0
 125 799 157 766 157 725 c 0
 157 684 125 652 84 652 c 0
 43 652 10 684 10 725 c 0
EndSplineSet
Validated: 1
EndChar

StartChar: macron
Encoding: 175 175 154
Width: 388
VWidth: 0
Flags: HW
HStem: 666 134<21 367>
LayerCount: 2
Fore
SplineSet
21 666 m 1
 21 799 l 1
 367 799 l 1
 367 666 l 1
 21 666 l 1
EndSplineSet
Validated: 1
EndChar

StartChar: dotlessi
Encoding: 261 305 155
Width: 319
VWidth: 0
Flags: HW
VStem: 23 269<0 660>
LayerCount: 2
Fore
SplineSet
23 -3 m 1
 23 660 l 1
 292 663 l 1
 292 0 l 1
 23 -3 l 1
EndSplineSet
Validated: 1
EndChar

StartChar: approxequal
Encoding: 262 8776 156
Width: 352
VWidth: 0
Flags: HW
HStem: 355 310
VStem: 23 310
LayerCount: 2
Fore
SplineSet
23 632 m 2
 23 632 83 692 178 652 c 0
 290 605 333 665 333 665 c 1
 333 540 l 1
 333 540 255 507 178 540 c 0
 87 579 23 525 23 525 c 1
 23 632 l 2
23 462 m 2
 23 462 83 522 178 482 c 0
 290 435 333 496 333 496 c 1
 333 370 l 1
 333 370 255 337 178 370 c 0
 87 409 23 355 23 355 c 1
 23 462 l 2
EndSplineSet
Validated: 33
EndChar

StartChar: notequal
Encoding: 263 8800 157
Width: 510
VWidth: 0
Flags: HW
HStem: 317 138<29 484> 527 138<29 484>
LayerCount: 2
Fore
SplineSet
29 527 m 1
 29 665 l 1
 484 665 l 1
 484 527 l 1
 29 527 l 1
29 317 m 1
 29 455 l 1
 484 455 l 1
 484 317 l 1
 29 317 l 1
110 126 m 1
 29 126 l 1
 403 828 l 1
 484 828 l 1
 110 126 l 1
EndSplineSet
Validated: 5
EndChar

StartChar: lessequal
Encoding: 264 8804 158
Width: 628
VWidth: 0
Flags: HW
HStem: 0 150<28 601>
LayerCount: 2
Fore
SplineSet
601 805 m 1
 601 657 l 1
 211 498 l 1
 601 340 l 1
 601 192 l 1
 28 424 l 1
 28 424 l 1
 28 572 l 1
 28 573 l 1
 601 805 l 1
28 0 m 1
 28 150 l 1
 601 150 l 1
 601 0 l 1
 28 0 l 1
EndSplineSet
Validated: 5
EndChar

StartChar: greaterequal
Encoding: 265 8805 159
Width: 613
VWidth: 0
Flags: HW
HStem: 0 150<19 592>
LayerCount: 2
Fore
SplineSet
19 805 m 1
 592 573 l 1
 592 572 l 1
 592 424 l 1
 592 424 l 1
 19 192 l 1
 19 340 l 1
 410 498 l 1
 19 657 l 1
 19 805 l 1
19 0 m 1
 19 150 l 1
 592 150 l 1
 592 0 l 1
 19 0 l 1
EndSplineSet
Validated: 5
EndChar

StartChar: atilde
Encoding: 227 227 160
Width: 650
VWidth: 0
Flags: HW
HStem: 0 21G<186 632> 505 154<101 358>
VStem: 23 265<173 277> 360 272<154 280 433 503>
LayerCount: 2
Fore
SplineSet
628 510 m 0
 629 499 631 467 632 442 c 2
 632 0 l 1
 206 0 l 2
 166 0 133 7 107 21 c 0
 81 35 61 54 49 77 c 0
 37 100 29 100 26 125 c 0
 25 136 24 167 23 192 c 0
 24 217 25 249 26 260 c 0
 29 285 37 334 49 357 c 0
 61 380 81 399 107 413 c 0
 133 427 166 433 206 433 c 2
 360 433 l 1
 360 476 l 2
 360 483 356 501 331 505 c 0
 330 505 101 505 101 505 c 2
 101 659 l 1
 429 659 l 1
 447 659 l 1
 448 659 l 2
 488 659 521 652 547 638 c 0
 573 624 593 605 605 582 c 0
 617 559 625 535 628 510 c 0
360 168 m 1
 360 280 l 2
 347 280 326 280 326 280 c 0
 308 280 296 274 292 261 c 0
 290 254 288 240 287 217 c 0
 288 194 290 180 292 173 c 0
 296 160 308 154 326 154 c 0
 326 154 l 0
 326 154 327 154 328 154 c 0
 344 154 355 158 360 168 c 1
160 819 m 1
 160 819 224 883 327 840 c 0
 448 790 495 855 495 855 c 1
 495 719 l 1
 495 719 410 683 327 719 c 0
 229 761 160 704 160 704 c 1
 160 819 l 1
EndSplineSet
Validated: 37
EndChar

StartChar: aacute
Encoding: 225 225 161
Width: 648
VWidth: 0
Flags: HW
HStem: 0 21G<183 628> 505 154<98 355>
VStem: 19 265<173 278> 356 272<154 280 433 503>
LayerCount: 2
Fore
SplineSet
625 510 m 0
 626 499 627 467 628 442 c 2
 628 0 l 1
 203 0 l 2
 163 0 130 7 104 21 c 0
 78 35 58 54 46 77 c 0
 34 100 26 124 23 149 c 0
 22 160 20 192 19 217 c 0
 20 242 22 274 23 285 c 0
 26 310 34 334 46 357 c 0
 58 380 78 399 104 413 c 0
 130 427 163 433 203 433 c 2
 356 433 l 1
 356 476 l 2
 356 483 353 501 328 505 c 0
 327 505 98 505 98 505 c 2
 98 659 l 1
 426 659 l 1
 444 659 l 1
 445 659 l 2
 485 659 518 652 544 638 c 0
 570 624 590 605 602 582 c 0
 614 559 622 535 625 510 c 0
356 168 m 1
 356 280 l 2
 343 280 323 280 323 280 c 0
 305 280 293 274 289 261 c 0
 287 254 285 240 284 217 c 0
 285 194 287 180 289 173 c 0
 293 160 305 154 323 154 c 0
 323 154 l 0
 323 154 324 154 325 154 c 0
 341 154 351 158 356 168 c 1
491 747 m 1
 156 704 l 1
 156 778 l 1
 491 855 l 1
 491 747 l 1
EndSplineSet
Validated: 5
EndChar

StartChar: agrave
Encoding: 224 224 162
Width: 654
VWidth: 0
Flags: HW
HStem: 0 21G<183 628> 505 154<98 355>
VStem: 19 265<173 278> 356 272<154 280 433 503>
LayerCount: 2
Fore
SplineSet
625 510 m 0
 626 499 627 467 628 442 c 2
 628 0 l 1
 203 0 l 2
 163 0 130 7 104 21 c 0
 78 35 58 54 46 77 c 0
 34 100 26 124 23 149 c 0
 22 160 20 192 19 217 c 0
 20 242 22 274 23 285 c 0
 26 310 34 334 46 357 c 0
 58 380 78 399 104 413 c 0
 130 427 163 433 203 433 c 2
 356 433 l 1
 356 476 l 2
 356 483 353 501 328 505 c 0
 327 505 98 505 98 505 c 2
 98 659 l 1
 426 659 l 1
 444 659 l 1
 445 659 l 2
 485 659 518 652 544 638 c 0
 570 624 590 605 602 582 c 0
 614 559 622 535 625 510 c 0
356 168 m 1
 356 280 l 2
 343 280 323 280 323 280 c 0
 305 280 293 274 289 261 c 0
 287 254 285 240 284 217 c 0
 285 194 287 180 289 173 c 0
 293 160 305 154 323 154 c 0
 323 154 l 0
 323 154 324 154 325 154 c 0
 341 154 351 158 356 168 c 1
156 747 m 1
 157 855 l 1
 491 778 l 1
 491 704 l 1
 156 747 l 1
EndSplineSet
Validated: 5
EndChar

StartChar: adieresis
Encoding: 228 228 163
Width: 652
VWidth: 0
Flags: HW
HStem: 0 21G<189 634> 505 154<104 361> 704 152<147 298 362 513>
VStem: 25 265<173 278> 147 152<704 855> 362 152<704 855> 362 272<154 280 433 503>
LayerCount: 2
Fore
SplineSet
631 510 m 0xf2
 632 499 633 467 634 442 c 2
 634 0 l 1
 209 0 l 2
 169 0 136 7 110 21 c 0
 84 35 64 54 52 77 c 0
 40 100 32 124 29 149 c 0
 28 160 26 192 25 217 c 0
 26 242 28 274 29 285 c 0
 32 310 40 334 52 357 c 0
 64 380 84 399 110 413 c 0
 136 427 169 433 209 433 c 2
 362 433 l 1
 362 476 l 2
 362 483 359 501 334 505 c 0
 333 505 104 505 104 505 c 2
 104 659 l 1
 432 659 l 1
 450 659 l 1
 451 659 l 2
 491 659 524 652 550 638 c 0
 576 624 596 605 608 582 c 0
 620 559 628 535 631 510 c 0xf2
362 168 m 1
 362 280 l 2
 349 280 329 280 329 280 c 0
 311 280 299 274 295 261 c 0
 293 254 291 240 290 217 c 0
 291 194 293 180 295 173 c 0
 299 160 311 154 329 154 c 0
 329 154 l 0
 329 154 330 154 331 154 c 0
 347 154 357 158 362 168 c 1
147 704 m 1xe8
 147 855 l 1
 298 855 l 1
 298 704 l 1
 147 704 l 1xe8
362 704 m 1xe4
 362 855 l 1
 513 855 l 1
 513 704 l 1
 362 704 l 1xe4
EndSplineSet
Validated: 5
EndChar

StartChar: acircumflex
Encoding: 226 226 164
Width: 642
VWidth: 0
Flags: HW
HStem: 0 21G<181 626> 505 154<96 353> 704 102<139 165 478 505>
VStem: 17 265<173 277> 354 272<154 280 433 503>
LayerCount: 2
Fore
SplineSet
623 510 m 0
 624 499 625 467 626 442 c 2
 626 0 l 1
 201 0 l 2
 161 0 128 7 102 21 c 0
 76 35 56 54 44 77 c 0
 32 100 23 100 20 125 c 0
 19 136 18 168 17 193 c 0
 18 218 19 250 20 261 c 0
 23 286 32 334 44 357 c 0
 56 380 76 399 102 413 c 0
 128 427 161 433 201 433 c 2
 354 433 l 1
 354 476 l 2
 354 483 351 501 326 505 c 0
 325 505 96 505 96 505 c 2
 96 659 l 1
 424 659 l 1
 442 659 l 1
 443 659 l 2
 483 659 516 652 542 638 c 0
 568 624 588 605 600 582 c 0
 612 559 620 535 623 510 c 0
354 168 m 1
 354 280 l 2
 341 280 321 280 321 280 c 0
 303 280 291 274 287 261 c 0
 285 254 283 240 282 217 c 0
 283 194 285 180 287 173 c 0
 291 160 303 154 321 154 c 0
 321 154 l 0
 321 154 322 154 323 154 c 0
 339 154 349 158 354 168 c 1
139 704 m 1
 139 806 l 1
 321 855 l 1
 505 806 l 1
 505 704 l 1
 321 753 l 1
 139 704 l 1
EndSplineSet
Validated: 5
EndChar

StartChar: ccedilla
Encoding: 231 231 165
Width: 460
VWidth: 0
Flags: HW
HStem: -224 77<155 322> -115 77<268 322> 0 154<297 432> 506 154<297 432>
VStem: 192 77<-38 0> 324 77<-146 -116>
LayerCount: 2
Fore
SplineSet
297 487 m 0
 293 474 291 435 291 367 c 2
 291 294 l 2
 291 226 293 186 297 173 c 0
 301 160 313 154 331 154 c 0
 432 154 l 2
 432 0 l 1
 268 0 l 1
 268 -38 l 1
 308 -38 l 2
 359 -38 400 -80 400 -131 c 0
 400 -182 359 -224 308 -224 c 2
 155 -224 l 1
 155 -147 l 1
 308 -147 l 2
 317 -147 324 -140 324 -131 c 0
 324 -122 317 -115 308 -115 c 2
 192 -115 l 1
 192 1 l 2
 161 3 134 9 112 21 c 0
 86 35 66 54 54 77 c 0
 42 100 34 124 31 149 c 0
 29 168 27 200 26 247 c 2
 26 247 29 493 31 511 c 0
 34 536 42 561 54 584 c 0
 66 607 86 625 112 639 c 0
 138 653 171 660 211 660 c 2
 432 660 l 1
 432 506 l 2
 331 506 l 0
 313 506 301 500 297 487 c 0
EndSplineSet
Validated: 1
EndChar

StartChar: Ccedilla
Encoding: 199 199 166
Width: 476
VWidth: 0
Flags: HW
HStem: -232 77<159 327> -122 77<273 327> -6 155<285 458> 644 155<285 458>
VStem: 12 267<169 624> 196 77<-44 -6> 329 77<-153 -123>
LayerCount: 2
Fore
SplineSet
285 625 m 0xfa
 281 612 279 572 279 504 c 2
 279 290 l 2xfa
 279 222 281 181 285 168 c 0
 289 155 301 149 319 149 c 0
 319 149 456 149 458 149 c 2
 458 -6 l 1
 273 -6 l 1
 273 -44 l 1
 313 -44 l 2
 365 -44 407 -86 407 -138 c 0
 407 -190 365 -232 313 -232 c 2
 159 -232 l 1
 159 -154 l 1
 313 -154 l 2
 322 -154 329 -147 329 -138 c 0
 329 -129 322 -122 313 -122 c 2
 196 -122 l 1
 196 -6 l 1xf6
 157 -6 125 1 99 15 c 0
 73 29 53 48 40 71 c 0
 27 94 20 119 17 144 c 0
 14 167 12 212 12 277 c 1
 12 277 l 1
 12 517 l 1
 12 517 l 1
 12 582 14 626 17 649 c 0
 20 674 27 699 40 722 c 0
 53 745 73 764 99 778 c 0
 125 792 158 799 198 799 c 2
 458 799 l 1
 458 644 l 2
 456 644 325 644 319 644 c 2
 319 644 l 2
 301 644 289 638 285 625 c 0xfa
EndSplineSet
Validated: 5
EndChar

StartChar: eacute
Encoding: 233 233 168
Width: 651
VWidth: 0
Flags: HW
HStem: 5 154<271 629> 236 157<283 361>
LayerCount: 2
Fore
SplineSet
304 159 m 2
 629 159 l 1
 629 21 l 1
 629 5 l 1
 202 5 l 2
 162 5 129 12 103 26 c 0
 77 40 57 59 45 82 c 0
 33 105 25 129 22 154 c 0
 20 171 18 238 18 238 c 1
 18 452 l 1
 18 452 20 502 22 516 c 0
 25 541 33 566 45 589 c 0
 57 612 77 631 103 645 c 0
 129 659 162 666 202 666 c 2
 323 666 l 1
 443 666 l 2
 483 666 516 659 542 645 c 0
 568 631 588 612 600 589 c 0
 612 566 620 541 623 516 c 0
 625 502 626 481 627 452 c 2
 628 452 l 1
 628 367 l 1
 628 273 l 1
 627 236 l 1
 306 236 l 2
 288 236 276 230 272 217 c 0
 271 215 271 210 270 206 c 0
 271 193 269 183 271 178 c 0
 275 165 286 159 304 159 c 2
289 492 m 0
 285 481 283 448 283 393 c 1
 319 393 l 1
 334 393 l 1
 361 393 l 1
 361 393 359 486 357 492 c 0
 353 505 341 511 323 511 c 0
 323 511 l 0
 322 511 l 0
 304 511 293 505 289 492 c 0
491 753 m 1
 156 710 l 1
 156 784 l 1
 491 861 l 1
 491 753 l 1
EndSplineSet
Validated: 5
EndChar

StartChar: egrave
Encoding: 232 232 169
Width: 654
VWidth: 0
Flags: HW
HStem: 0 154<273 631> 230 157<285 364>
LayerCount: 2
Fore
SplineSet
307 154 m 2
 631 154 l 1
 631 16 l 1
 631 0 l 1
 205 0 l 2
 165 0 132 7 106 21 c 0
 80 35 60 54 48 77 c 0
 36 100 28 124 25 149 c 0
 23 166 20 232 20 232 c 1
 20 446 l 1
 20 446 23 497 25 511 c 0
 28 536 36 561 48 584 c 0
 60 607 80 625 106 639 c 0
 132 653 165 660 205 660 c 2
 325 660 l 1
 446 660 l 2
 486 660 519 653 545 639 c 0
 571 625 591 607 603 584 c 0
 615 561 623 536 626 511 c 0
 628 497 629 475 630 446 c 2
 631 446 l 1
 631 361 l 1
 631 268 l 1
 630 230 l 1
 308 230 l 2
 290 230 279 224 275 211 c 0
 274 209 274 205 273 201 c 0
 274 188 271 178 273 173 c 0
 277 160 289 154 307 154 c 2
291 487 m 0
 287 476 285 442 285 387 c 1
 321 387 l 1
 336 387 l 1
 364 387 l 1
 364 387 361 481 359 487 c 0
 355 500 344 506 326 506 c 0
 325 506 l 0
 325 506 l 0
 307 506 295 500 291 487 c 0
158 748 m 1
 158 856 l 1
 493 779 l 1
 493 704 l 1
 158 748 l 1
EndSplineSet
Validated: 5
EndChar

StartChar: edieresis
Encoding: 235 235 170
Width: 651
VWidth: 0
Flags: HW
HStem: 0 154<267 625> 230 157<279 358> 704 152<136 288 352 503>
VStem: 136 152<704 856> 352 152<704 856>
LayerCount: 2
Fore
SplineSet
301 154 m 2
 625 154 l 1
 625 16 l 1
 625 0 l 1
 199 0 l 2
 159 0 126 7 100 21 c 0
 74 35 54 54 42 77 c 0
 30 100 22 124 19 149 c 0
 17 166 14 232 14 232 c 1
 14 446 l 1
 14 446 17 497 19 511 c 0
 22 536 30 561 42 584 c 0
 54 607 74 625 100 639 c 0
 126 653 159 660 199 660 c 2
 319 660 l 1
 440 660 l 2
 480 660 513 653 539 639 c 0
 565 625 585 607 597 584 c 0
 609 561 617 536 620 511 c 0
 622 497 623 475 624 446 c 2
 625 446 l 1
 625 361 l 1
 625 268 l 1
 624 230 l 1
 302 230 l 2
 284 230 273 224 269 211 c 0
 268 209 268 205 267 201 c 0
 268 188 265 178 267 173 c 0
 271 160 283 154 301 154 c 2
285 487 m 0
 281 476 279 442 279 387 c 1
 315 387 l 1
 330 387 l 1
 358 387 l 1
 358 387 355 481 353 487 c 0
 349 500 338 506 320 506 c 0
 319 506 l 0
 319 506 l 0
 301 506 289 500 285 487 c 0
136 704 m 1
 136 856 l 1
 288 856 l 1
 288 704 l 1
 136 704 l 1
352 704 m 1
 352 856 l 1
 503 856 l 1
 503 704 l 1
 352 704 l 1
EndSplineSet
Validated: 5
EndChar

StartChar: ecircumflex
Encoding: 234 234 171
Width: 660
VWidth: 0
Flags: HW
HStem: 0 154<273 631> 230 157<285 364> 705 102<142 169 482 509>
LayerCount: 2
Fore
SplineSet
307 154 m 2
 631 154 l 1
 631 16 l 1
 631 0 l 1
 205 0 l 2
 165 0 132 7 106 21 c 0
 80 35 60 54 48 77 c 0
 36 100 28 124 25 149 c 0
 23 166 20 232 20 232 c 1
 20 446 l 1
 20 446 23 497 25 511 c 0
 28 536 36 561 48 584 c 0
 60 607 80 625 106 639 c 0
 132 653 165 660 205 660 c 2
 325 660 l 1
 446 660 l 2
 486 660 519 653 545 639 c 0
 571 625 591 607 603 584 c 0
 615 561 623 536 626 511 c 0
 628 497 629 475 630 446 c 2
 631 446 l 1
 631 361 l 1
 631 268 l 1
 630 230 l 1
 308 230 l 2
 290 230 279 224 275 211 c 0
 274 209 274 205 273 201 c 0
 274 188 271 178 273 173 c 0
 277 160 289 154 307 154 c 2
291 487 m 0
 287 476 285 442 285 387 c 1
 321 387 l 1
 336 387 l 1
 364 387 l 1
 364 387 361 481 359 487 c 0
 355 500 344 506 326 506 c 0
 325 506 l 0
 325 506 l 0
 307 506 295 500 291 487 c 0
142 705 m 1
 142 807 l 1
 325 855 l 1
 509 807 l 1
 509 705 l 1
 325 754 l 1
 142 705 l 1
EndSplineSet
Validated: 5
EndChar

StartChar: iacute
Encoding: 237 237 172
Width: 345
VWidth: 0
Flags: HW
HStem: 0 21G<34 307>
VStem: 34 273<0 592>
LayerCount: 2
Fore
SplineSet
34 0 m 1
 34 592 l 1
 307 592 l 1
 307 0 l 1
 34 0 l 1
338 704 m 1
 3 661 l 1
 3 735 l 1
 337 812 l 1
 338 704 l 1
EndSplineSet
Validated: 1
EndChar

StartChar: igrave
Encoding: 236 236 173
Width: 339
VWidth: 0
Flags: HW
HStem: 0 21G<32 305>
VStem: 32 273<0 592>
LayerCount: 2
Fore
SplineSet
32 0 m 1
 32 592 l 1
 305 592 l 1
 305 0 l 1
 32 0 l 1
1 704 m 1
 1 812 l 1
 336 735 l 1
 336 661 l 1
 1 704 l 1
EndSplineSet
Validated: 1
EndChar

StartChar: idieresis
Encoding: 239 239 174
Width: 368
VWidth: 0
Flags: HW
HStem: 0 21G<45 318> 661 152<-2 150 214 365>
VStem: -2 152<661 812> 45 273<0 592> 214 152<661 812>
LayerCount: 2
Fore
SplineSet
45 0 m 1xd0
 45 592 l 1
 318 592 l 1
 318 0 l 1
 45 0 l 1xd0
-2 661 m 1xe0
 -2 812 l 1
 150 812 l 1
 150 661 l 1
 -2 661 l 1xe0
214 661 m 1xc8
 214 812 l 1
 365 812 l 1
 365 661 l 1
 214 661 l 1xc8
EndSplineSet
Validated: 1
EndChar

StartChar: icircumflex
Encoding: 238 238 175
Width: 370
VWidth: 0
Flags: HW
HStem: 0 21G<48 321> 661 102<1 28 341 368>
VStem: 48 273<0 592>
LayerCount: 2
Fore
SplineSet
48 0 m 1
 48 592 l 1
 321 592 l 1
 321 0 l 1
 48 0 l 1
1 661 m 1
 1 763 l 1
 184 811 l 1
 368 763 l 1
 368 661 l 1
 184 709 l 1
 1 661 l 1
EndSplineSet
Validated: 1
EndChar

StartChar: ntilde
Encoding: 241 241 176
Width: 621
VWidth: 0
Flags: HW
HStem: 0 21G<14 269 347 602> 488 148<269 341>
VStem: 14 255<0 488> 347 255<0 469>
LayerCount: 2
Fore
SplineSet
598 493 m 0
 601 469 602 420 602 348 c 2
 602 0 l 1
 347 0 l 1
 347 353 l 2
 347 418 345 458 341 470 c 0
 337 482 327 488 309 488 c 2
 269 488 l 1
 269 0 l 1
 14 0 l 1
 14 621 l 1
 14 636 l 1
 424 636 l 2
 462 636 495 629 520 616 c 0
 545 603 564 584 576 562 c 0
 588 540 595 517 598 493 c 0
308 693 m 0
 210 735 141 677 141 677 c 2
 141 793 l 1
 141 793 205 857 308 814 c 0
 429 764 476 829 476 829 c 1
 476 693 l 1
 476 693 391 657 308 693 c 0
EndSplineSet
Validated: 33
EndChar

StartChar: oacute
Encoding: 243 243 177
Width: 638
VWidth: 0
Flags: HW
HStem: 0 21G<175 456>
VStem: 15 260<174 487> 356 260<174 487>
LayerCount: 2
Fore
SplineSet
616 511 m 0
 618 492 618 168 616 149 c 0
 613 124 605 100 593 77 c 0
 581 54 561 35 535 21 c 0
 509 7 476 0 436 0 c 2
 195 0 l 2
 155 0 122 7 96 21 c 0
 70 35 50 54 38 77 c 0
 26 100 18 124 15 149 c 0
 13 168 13 492 15 511 c 0
 18 536 26 561 38 584 c 0
 50 607 70 625 96 639 c 0
 122 653 155 660 195 660 c 2
 436 660 l 2
 476 660 509 653 535 639 c 0
 561 625 581 607 593 584 c 0
 605 561 613 536 616 511 c 0
316 154 m 0
 334 154 346 160 350 173 c 0
 354 186 356 226 356 294 c 2
 356 367 l 2
 356 435 354 474 350 487 c 0
 346 500 334 506 316 506 c 0
 316 506 l 0
 315 506 l 0
 297 506 286 500 282 487 c 0
 278 474 275 435 275 367 c 2
 275 294 l 2
 275 226 278 186 282 173 c 0
 286 160 297 154 315 154 c 0
 316 154 l 0
 316 154 l 0
483 748 m 1
 148 704 l 1
 148 779 l 1
 483 856 l 1
 483 748 l 1
EndSplineSet
Validated: 37
EndChar

StartChar: ograve
Encoding: 242 242 178
Width: 635
VWidth: 0
Flags: HW
HStem: 0 21G<175 456>
VStem: 15 260<174 487> 356 260<174 487>
LayerCount: 2
Fore
SplineSet
616 511 m 0
 618 492 618 168 616 149 c 0
 613 124 605 100 593 77 c 0
 581 54 561 35 535 21 c 0
 509 7 476 0 436 0 c 2
 195 0 l 2
 155 0 122 7 96 21 c 0
 70 35 50 54 38 77 c 0
 26 100 18 124 15 149 c 0
 13 168 13 492 15 511 c 0
 18 536 26 561 38 584 c 0
 50 607 70 625 96 639 c 0
 122 653 155 660 195 660 c 2
 436 660 l 2
 476 660 509 653 535 639 c 0
 561 625 581 607 593 584 c 0
 605 561 613 536 616 511 c 0
316 154 m 0
 334 154 346 160 350 173 c 0
 354 186 356 226 356 294 c 2
 356 367 l 2
 356 435 354 474 350 487 c 0
 346 500 334 506 316 506 c 0
 316 506 l 0
 315 506 l 0
 297 506 286 500 282 487 c 0
 278 474 275 435 275 367 c 2
 275 294 l 2
 275 226 278 186 282 173 c 0
 286 160 297 154 315 154 c 0
 316 154 l 0
 316 154 l 0
148 748 m 1
 148 856 l 1
 483 779 l 1
 483 704 l 1
 148 748 l 1
EndSplineSet
Validated: 37
EndChar

StartChar: odieresis
Encoding: 246 246 179
Width: 641
VWidth: 0
Flags: HW
HStem: 0 21G<179 459> 704 152<136 287 351 503>
VStem: 19 260<174 487> 136 152<704 856> 351 152<704 856> 360 260<174 487>
LayerCount: 2
Fore
SplineSet
620 511 m 0xe4
 622 492 622 168 620 149 c 0
 617 124 609 100 597 77 c 0
 585 54 565 35 539 21 c 0
 513 7 480 0 440 0 c 2
 199 0 l 2
 159 0 126 7 100 21 c 0
 74 35 54 54 42 77 c 0
 30 100 22 124 19 149 c 0
 17 168 17 492 19 511 c 0
 22 536 30 561 42 584 c 0
 54 607 74 625 100 639 c 0
 126 653 159 660 199 660 c 2
 440 660 l 2
 480 660 513 653 539 639 c 0
 565 625 585 607 597 584 c 0
 609 561 617 536 620 511 c 0xe4
320 154 m 0
 338 154 349 160 353 173 c 0
 357 186 360 226 360 294 c 2
 360 367 l 2
 360 435 357 474 353 487 c 0
 349 500 338 506 320 506 c 0
 319 506 l 0
 319 506 l 0
 301 506 289 500 285 487 c 0
 281 474 279 435 279 367 c 2
 279 294 l 2
 279 226 281 186 285 173 c 0
 289 160 301 154 319 154 c 0
 319 154 l 0
 320 154 l 0
136 704 m 1xd0
 136 856 l 1
 287 856 l 1
 287 704 l 1
 136 704 l 1xd0
351 704 m 1xc8
 351 856 l 1
 503 856 l 1
 503 704 l 1
 351 704 l 1xc8
EndSplineSet
Validated: 37
EndChar

StartChar: ocircumflex
Encoding: 244 244 180
Width: 647
VWidth: 0
Flags: HW
HStem: 0 21G<182 462> 705 102<139 166 478 506>
VStem: 22 260<174 487> 363 260<174 487>
LayerCount: 2
Fore
SplineSet
623 511 m 0
 625 492 625 168 623 149 c 0
 620 124 612 100 600 77 c 0
 588 54 568 35 542 21 c 0
 516 7 483 0 443 0 c 2
 202 0 l 2
 162 0 129 7 103 21 c 0
 77 35 57 54 45 77 c 0
 33 100 25 124 22 149 c 0
 20 168 20 492 22 511 c 0
 25 536 33 561 45 584 c 0
 57 607 77 625 103 639 c 0
 129 653 162 660 202 660 c 2
 443 660 l 2
 483 660 516 653 542 639 c 0
 568 625 588 607 600 584 c 0
 612 561 620 536 623 511 c 0
323 154 m 0
 341 154 352 160 356 173 c 0
 360 186 363 226 363 294 c 2
 363 367 l 2
 363 435 360 474 356 487 c 0
 352 500 341 506 323 506 c 0
 322 506 l 0
 322 506 l 0
 304 506 292 500 288 487 c 0
 284 474 282 435 282 367 c 2
 282 294 l 2
 282 226 284 186 288 173 c 0
 292 160 304 154 322 154 c 0
 322 154 l 0
 323 154 l 0
139 705 m 1
 139 807 l 1
 321 855 l 1
 506 807 l 1
 506 705 l 1
 321 754 l 1
 139 705 l 1
EndSplineSet
Validated: 37
EndChar

StartChar: otilde
Encoding: 245 245 181
Width: 638
VWidth: 0
Flags: HW
HStem: 0 21G<176 456>
VStem: 16 260<174 487> 357 260<174 487>
LayerCount: 2
Fore
SplineSet
617 511 m 0
 619 492 619 168 617 149 c 0
 614 124 606 100 594 77 c 0
 582 54 562 35 536 21 c 0
 510 7 477 0 437 0 c 2
 196 0 l 2
 156 0 123 7 97 21 c 0
 71 35 51 54 39 77 c 0
 27 100 19 124 16 149 c 0
 14 168 14 492 16 511 c 0
 19 536 27 561 39 584 c 0
 51 607 71 625 97 639 c 0
 123 653 156 660 196 660 c 2
 437 660 l 2
 477 660 510 653 536 639 c 0
 562 625 582 607 594 584 c 0
 606 561 614 536 617 511 c 0
317 154 m 0
 335 154 346 160 350 173 c 0
 354 186 357 226 357 294 c 2
 357 367 l 2
 357 435 354 474 350 487 c 0
 346 500 335 506 317 506 c 0
 316 506 l 0
 316 506 l 0
 298 506 286 500 282 487 c 0
 278 474 276 435 276 367 c 2
 276 294 l 2
 276 226 278 186 282 173 c 0
 286 160 298 154 316 154 c 0
 316 154 l 0
 317 154 l 0
149 820 m 2
 149 820 213 884 316 841 c 0
 437 791 484 856 484 856 c 1
 484 720 l 1
 484 720 399 684 316 720 c 0
 218 762 149 704 149 704 c 1
 149 820 l 2
EndSplineSet
Validated: 37
EndChar

StartChar: uacute
Encoding: 250 250 182
Width: 647
VWidth: 0
Flags: HW
HStem: 0 154<290 364>
VStem: 19 264<173 659> 364 264<154 659>
LayerCount: 2
Fore
SplineSet
364 659 m 1
 628 659 l 1
 628 16 l 1
 628 0 l 1
 204 0 l 2
 164 0 131 7 105 21 c 0
 79 35 59 54 47 77 c 0
 35 100 27 124 24 149 c 0
 21 174 19 223 19 298 c 2
 19 659 l 1
 284 659 l 1
 284 293 l 2
 284 225 286 186 290 173 c 0
 294 160 306 154 324 154 c 2
 364 154 l 1
 364 659 l 1
491 748 m 1
 156 704 l 1
 156 779 l 1
 491 856 l 1
 491 748 l 1
EndSplineSet
Validated: 1
EndChar

StartChar: ugrave
Encoding: 249 249 183
Width: 641
VWidth: 0
Flags: HW
HStem: 0 154<287 361>
VStem: 16 264<173 659> 361 264<154 659>
LayerCount: 2
Fore
SplineSet
361 659 m 1
 625 659 l 1
 625 16 l 1
 625 0 l 1
 201 0 l 2
 161 0 128 7 102 21 c 0
 76 35 56 54 44 77 c 0
 32 100 24 124 21 149 c 0
 18 174 16 223 16 298 c 2
 16 659 l 1
 281 659 l 1
 281 293 l 2
 281 225 283 186 287 173 c 0
 291 160 303 154 321 154 c 2
 361 154 l 1
 361 659 l 1
153 748 m 1
 154 856 l 1
 488 779 l 1
 488 704 l 1
 153 748 l 1
EndSplineSet
Validated: 1
EndChar

StartChar: udieresis
Encoding: 252 252 184
Width: 644
VWidth: 0
Flags: HW
HStem: 2 154<287 361> 707 152<137 289 353 504>
VStem: 16 264<176 661> 137 152<707 858> 353 152<707 858> 361 264<156 661>
LayerCount: 2
Fore
SplineSet
361 661 m 1xe4
 625 661 l 1
 625 18 l 1
 625 2 l 1
 201 2 l 2
 161 2 128 9 102 23 c 0
 76 37 56 56 44 79 c 0
 32 102 24 126 21 151 c 0
 18 176 16 226 16 301 c 2
 16 661 l 1
 281 661 l 1
 281 295 l 2
 281 227 283 188 287 175 c 0
 291 162 303 156 321 156 c 2
 361 156 l 1
 361 661 l 1xe4
137 707 m 1xd0
 137 858 l 1
 289 858 l 1
 289 707 l 1
 137 707 l 1xd0
353 707 m 1xc8
 353 858 l 1
 504 858 l 1
 504 707 l 1
 353 707 l 1xc8
EndSplineSet
Validated: 1
EndChar

StartChar: ucircumflex
Encoding: 251 251 185
Width: 642
VWidth: 0
Flags: HW
HStem: 0 154<287 361> 705 102<137 164 477 504>
VStem: 16 264<173 659> 361 264<154 659>
LayerCount: 2
Fore
SplineSet
361 659 m 1
 625 659 l 1
 625 16 l 1
 625 0 l 1
 201 0 l 2
 161 0 128 7 102 21 c 0
 76 35 56 54 44 77 c 0
 32 100 24 124 21 149 c 0
 18 174 16 223 16 298 c 2
 16 659 l 1
 281 659 l 1
 281 293 l 2
 281 225 283 186 287 173 c 0
 291 160 303 154 321 154 c 2
 361 154 l 1
 361 659 l 1
137 705 m 1
 137 807 l 1
 320 855 l 1
 504 807 l 1
 504 705 l 1
 320 754 l 1
 137 705 l 1
EndSplineSet
Validated: 1
EndChar

StartChar: aring
Encoding: 229 229 186
Width: 647
VWidth: 0
Flags: HW
HStem: 0 21G<180 625> 505 154<95 254 265 351> 825 24<279 362>
VStem: 16 265<173 278> 214 24<700 783> 353 272<154 280 433 503> 404 24<700 783>
LayerCount: 2
Fore
SplineSet
622 510 m 0xea
 623 499 624 467 625 442 c 2
 625 0 l 1
 200 0 l 2
 160 0 127 7 101 21 c 0
 75 35 55 54 43 77 c 0
 31 100 23 124 20 149 c 0
 19 160 17 192 16 217 c 0
 17 242 19 274 20 285 c 0
 23 310 31 334 43 357 c 0
 55 380 75 399 101 413 c 0
 127 427 160 433 200 433 c 2
 353 433 l 1
 353 476 l 2xf4
 353 483 350 501 325 505 c 0
 324 505 95 505 95 505 c 2
 95 659 l 1
 254 659 l 2
 230 679 214 708 214 742 c 0
 214 801 262 849 321 849 c 0
 380 849 428 801 428 742 c 0
 428 708 412 679 388 659 c 2
 423 659 l 1
 441 659 l 1
 442 659 l 2
 482 659 515 652 541 638 c 0
 567 624 587 605 599 582 c 0
 611 559 619 535 622 510 c 0xea
238 742 m 0xea
 238 696 275 659 321 659 c 0
 367 659 404 696 404 742 c 0
 404 788 367 825 321 825 c 0
 275 825 238 788 238 742 c 0xea
353 168 m 1xf4
 353 280 l 2
 340 280 320 280 320 280 c 0
 302 280 290 274 286 261 c 0
 284 254 282 240 281 217 c 0
 282 194 284 180 286 173 c 0
 290 160 302 154 320 154 c 0
 320 154 l 0
 320 154 321 154 322 154 c 0
 338 154 348 158 353 168 c 1xf4
EndSplineSet
Validated: 5
EndChar

StartChar: Eacute
Encoding: 201 201 187
Width: 547
VWidth: 0
Flags: HW
HStem: 0 162<293 520> 395 162<293 520> 638 162<293 520>
VStem: 21 499<0 162 395 557 638 800> 21 272<162 395 557 638>
LayerCount: 2
Fore
SplineSet
520 638 m 1xf0
 293 638 l 1
 293 557 l 1xe8
 520 557 l 1
 520 395 l 1xf0
 293 395 l 1
 293 162 l 1xe8
 520 162 l 1
 520 0 l 1
 21 0 l 1
 21 800 l 1
 520 800 l 1
 520 638 l 1xf0
440 889 m 1
 102 845 l 1
 102 920 l 1
 440 998 l 1
 440 889 l 1
EndSplineSet
Validated: 1
EndChar

StartChar: Ntilde
Encoding: 209 209 188
Width: 763
VWidth: 0
Flags: HW
HStem: 0 21G<27 301 466 740> 779 20G<27 309 466 740>
VStem: 27 274<0 397> 466 274<0 1 417 799>
LayerCount: 2
Fore
SplineSet
466 799 m 1
 740 799 l 1
 740 0 l 1
 466 0 l 1
 466 1 l 1
 301 397 l 1
 301 0 l 1
 27 0 l 1
 27 799 l 1
 301 799 l 1
 466 417 l 1
 466 799 l 1
384 856 m 0
 285 898 215 840 215 840 c 1
 215 957 l 1
 215 957 280 1021 384 978 c 0
 506 927 552 993 552 993 c 1
 552 856 l 1
 552 856 468 820 384 856 c 0
EndSplineSet
Validated: 33
EndChar

StartChar: Odieresis
Encoding: 214 214 189
Width: 656
VWidth: 0
Flags: HW
HStem: 0 21G<183 468> 858 153<141 294 358 511>
VStem: 16 269<176 636> 141 153<858 1011> 358 153<858 1011> 367 269<176 636>
LayerCount: 2
Fore
SplineSet
636 527 m 1xe4
 636 527 l 1
 636 509 l 1
 636 304 l 1
 636 285 l 1
 636 285 l 1
 636 219 634 175 631 152 c 0
 628 126 620 102 607 78 c 0
 594 54 575 35 548 21 c 0
 521 7 488 0 448 0 c 2
 326 0 l 1
 203 0 l 2
 163 0 130 7 103 21 c 0
 76 35 57 54 44 78 c 0
 31 102 23 126 20 152 c 0
 17 175 16 219 16 285 c 1
 16 285 l 1
 16 304 l 1
 16 509 l 1
 16 527 l 1
 16 527 l 1
 16 593 17 638 20 661 c 0
 23 687 31 711 44 735 c 0
 57 759 76 777 103 791 c 0
 130 805 163 813 203 813 c 2
 326 813 l 1
 448 813 l 2
 488 813 521 805 548 791 c 0
 575 777 594 759 607 735 c 0
 620 711 628 687 631 661 c 0
 634 638 636 593 636 527 c 1xe4
367 298 m 2
 367 514 l 2
 367 583 364 624 360 637 c 0
 356 650 345 656 326 656 c 0
 326 656 l 0
 325 656 l 0
 306 656 295 650 291 637 c 0
 287 624 285 583 285 514 c 2
 285 298 l 2
 285 229 287 189 291 176 c 0
 295 163 306 157 325 157 c 0
 326 157 l 0
 326 157 l 0
 345 157 356 163 360 176 c 0
 364 189 367 229 367 298 c 2
141 858 m 1xd0
 141 1011 l 1
 294 1011 l 1
 294 858 l 1
 141 858 l 1xd0
358 858 m 1xc8
 358 1011 l 1
 511 1011 l 1
 511 858 l 1
 358 858 l 1xc8
EndSplineSet
Validated: 5
EndChar

StartChar: Udieresis
Encoding: 220 220 190
Width: 654
VWidth: 0
Flags: HW
HStem: 0 21G<189 474> 779 20G<22 291 373 640> 838 153<147 300 364 517>
VStem: 21 269<176 799> 147 153<838 991> 364 153<838 991> 373 267<176 285 285 799>
LayerCount: 2
Fore
SplineSet
640 799 m 1xf2
 641 285 l 1
 641 285 640 175 637 152 c 0
 634 126 626 102 613 78 c 0
 600 54 581 35 554 21 c 0
 527 7 494 0 454 0 c 2
 209 0 l 2
 169 0 136 7 109 21 c 0
 82 35 63 54 50 78 c 0
 37 102 29 126 26 152 c 0
 23 175 21 219 21 285 c 2
 22 799 l 1
 291 799 l 1
 290 298 l 2
 290 229 293 189 297 176 c 0
 301 163 312 157 331 157 c 0
 331 157 l 0
 332 157 l 0
 351 157 362 163 366 176 c 0
 370 189 372 229 372 298 c 2
 373 799 l 1
 373 799 l 1
 640 799 l 1xf2
147 838 m 1xe8
 147 991 l 1
 300 991 l 1
 300 838 l 1
 147 838 l 1xe8
364 838 m 1xe4
 364 991 l 1
 517 991 l 1
 517 838 l 1
 364 838 l 1xe4
EndSplineSet
Validated: 5
EndChar

StartChar: Iacute
Encoding: 205 205 191
Width: 454
VWidth: 0
Flags: HW
HStem: 0 161<19 99 356 431> 639 161<19 99 356 431>
VStem: 19 412<0 161 639 800>
LayerCount: 2
Fore
SplineSet
431 639 m 1
 356 639 l 1
 356 161 l 1
 431 161 l 1
 431 0 l 1
 356 0 l 1
 99 0 l 1
 19 0 l 1
 19 161 l 1
 99 161 l 1
 99 639 l 1
 19 639 l 1
 19 800 l 1
 99 800 l 1
 356 800 l 1
 431 800 l 1
 431 639 l 1
394 889 m 1
 56 845 l 1
 56 920 l 1
 393 998 l 1
 394 889 l 1
EndSplineSet
Validated: 1
EndChar

StartChar: Igrave
Encoding: 204 204 192
Width: 451
VWidth: 0
Flags: HW
HStem: 0 161<16 96 353 428> 639 161<16 96 353 428>
VStem: 16 412<0 161 639 800>
LayerCount: 2
Fore
SplineSet
428 639 m 1
 353 639 l 1
 353 161 l 1
 428 161 l 1
 428 0 l 1
 353 0 l 1
 96 0 l 1
 16 0 l 1
 16 161 l 1
 96 161 l 1
 96 639 l 1
 16 639 l 1
 16 800 l 1
 96 800 l 1
 353 800 l 1
 428 800 l 1
 428 639 l 1
53 889 m 1
 53 998 l 1
 391 920 l 1
 391 845 l 1
 53 889 l 1
EndSplineSet
Validated: 1
EndChar

StartChar: Idieresis
Encoding: 207 207 193
Width: 459
VWidth: 0
Flags: HW
HStem: 1 161<19 98 355 430> 640 161<21 100 357 432> 845 153<40 193 257 410>
VStem: 18 412<1 160 640 799> 40 153<845 998> 257 153<845 998>
LayerCount: 2
Fore
SplineSet
432 639 m 1xf0
 357 639 l 1
 355 161 l 1
 430 160 l 1
 430 -0 l 1
 355 0 l 1
 98 1 l 1
 18 1 l 1
 19 161 l 1
 98 161 l 1
 100 640 l 1
 20 640 l 1
 21 801 l 1
 100 800 l 1
 357 800 l 1
 432 799 l 1
 432 639 l 1xf0
40 845 m 1xe8
 40 998 l 1
 193 998 l 1
 193 845 l 1
 40 845 l 1xe8
257 845 m 1xe4
 257 998 l 1
 410 998 l 1
 410 845 l 1
 257 845 l 1xe4
EndSplineSet
Validated: 1
EndChar

StartChar: Oacute
Encoding: 211 211 194
Width: 665
VWidth: 0
Flags: HW
HStem: 0 21G<190 473>
VStem: 24 267<175 631> 372 267<175 631>
LayerCount: 2
Fore
SplineSet
639 523 m 1
 639 523 l 1
 639 505 l 1
 639 301 l 1
 639 283 l 1
 639 283 l 1
 639 218 638 173 635 150 c 0
 632 125 624 100 611 77 c 0
 598 54 579 35 553 21 c 0
 527 7 493 0 453 0 c 2
 332 0 l 1
 210 0 l 2
 170 0 137 7 111 21 c 0
 85 35 65 54 52 77 c 0
 39 100 32 125 29 150 c 0
 26 173 24 218 24 283 c 1
 24 283 l 1
 24 301 l 1
 24 505 l 1
 24 523 l 1
 24 523 l 1
 24 588 26 633 29 656 c 0
 32 681 39 706 52 729 c 0
 65 752 85 771 111 785 c 0
 137 799 170 806 210 806 c 2
 332 806 l 1
 453 806 l 2
 493 806 527 799 553 785 c 0
 579 771 598 752 611 729 c 0
 624 706 632 681 635 656 c 0
 638 633 639 588 639 523 c 1
372 296 m 2
 372 510 l 2
 372 578 370 619 366 632 c 0
 362 645 351 651 332 651 c 0
 332 651 l 0
 331 651 l 0
 313 651 301 645 297 632 c 0
 293 619 291 578 291 510 c 2
 291 296 l 2
 291 228 293 187 297 174 c 0
 301 161 312 155 331 155 c 0
 332 155 l 0
 332 155 l 0
 350 155 362 161 366 174 c 0
 370 187 372 228 372 296 c 2
499 895 m 1
 164 851 l 1
 164 925 l 1
 499 1003 l 1
 499 895 l 1
EndSplineSet
Validated: 5
EndChar

StartChar: Ograve
Encoding: 210 210 195
Width: 671
VWidth: 0
Flags: HW
HStem: 0 21G<196 479>
VStem: 30 267<175 631> 378 267<175 631>
LayerCount: 2
Fore
SplineSet
645 523 m 1
 645 523 l 1
 645 505 l 1
 645 301 l 1
 645 283 l 1
 645 283 l 1
 645 218 644 173 641 150 c 0
 638 125 630 100 617 77 c 0
 604 54 585 35 559 21 c 0
 533 7 499 0 459 0 c 2
 338 0 l 1
 216 0 l 2
 176 0 143 7 117 21 c 0
 91 35 71 54 58 77 c 0
 45 100 38 125 35 150 c 0
 32 173 30 218 30 283 c 1
 30 283 l 1
 30 301 l 1
 30 505 l 1
 30 523 l 1
 30 523 l 1
 30 588 32 633 35 656 c 0
 38 681 45 706 58 729 c 0
 71 752 91 771 117 785 c 0
 143 799 176 806 216 806 c 2
 338 806 l 1
 459 806 l 2
 499 806 533 799 559 785 c 0
 585 771 604 752 617 729 c 0
 630 706 638 681 641 656 c 0
 644 633 645 588 645 523 c 1
378 296 m 2
 378 510 l 2
 378 578 376 619 372 632 c 0
 368 645 357 651 338 651 c 0
 338 651 l 0
 337 651 l 0
 319 651 307 645 303 632 c 0
 299 619 297 578 297 510 c 2
 297 296 l 2
 297 228 299 187 303 174 c 0
 307 161 318 155 337 155 c 0
 338 155 l 0
 338 155 l 0
 356 155 368 161 372 174 c 0
 376 187 378 228 378 296 c 2
170 895 m 1
 170 1003 l 1
 505 925 l 1
 505 851 l 1
 170 895 l 1
EndSplineSet
Validated: 5
EndChar

StartChar: ydieresis
Encoding: 255 255 196
Width: 611
VWidth: 0
Flags: HW
HStem: -224 147<37 340> -1 135<275 345> 610 20G<15 269 345 599> 674 151<125 276 339 489>
VStem: 20 249<152 630> 125 151<674 825> 339 151<674 825> 345 254<-74 -2 -1 -1 134 630>
LayerCount: 2
Fore
SplineSet
345 630 m 1xf9
 599 630 l 1
 599 -1 l 1
 599 -1 597 -65 595 -81 c 0
 592 -105 584 -128 572 -150 c 0
 560 -172 542 -191 517 -204 c 0
 492 -217 460 -224 422 -224 c 2
 37 -224 l 1
 37 -76 l 1
 307 -76 l 2
 325 -76 336 -70 340 -58 c 0
 343 -50 344 -31 345 -1 c 2
 192 -1 l 2
 154 -1 122 6 97 19 c 0
 72 32 54 50 42 72 c 0
 30 94 23 117 20 141 c 0
 17 165 15 630 15 630 c 1
 269 630 l 1
 269 236 l 2
 270 190 272 162 275 152 c 0
 279 140 289 134 307 134 c 0
 308 134 345 134 345 134 c 1
 345 630 l 1xf9
125 674 m 1xf4
 125 825 l 1
 276 825 l 1
 276 674 l 1
 125 674 l 1xf4
339 674 m 1xf2
 339 825 l 1
 489 825 l 1
 489 674 l 1
 339 674 l 1xf2
EndSplineSet
Validated: 1
EndChar

StartChar: Ydieresis
Encoding: 159 376 197
Width: 722
VWidth: 0
Flags: HW
HStem: 0 21G<224 498> 845 152<178 329 393 544>
VStem: 178 152<845 997> 224 273<0 410> 393 152<845 997>
LayerCount: 2
Fore
SplineSet
719 807 m 1xd0
 498 410 l 1
 498 0 l 1
 224 0 l 1
 224 410 l 1
 3 807 l 1
 269 807 l 1
 361 641 l 1
 453 807 l 1
 719 807 l 1xd0
178 845 m 1xe0
 178 997 l 1
 329 997 l 1
 329 845 l 1
 178 845 l 1xe0
393 845 m 1xc8
 393 997 l 1
 544 997 l 1
 544 845 l 1
 393 845 l 1xc8
EndSplineSet
Validated: 1
EndChar

StartChar: Edieresis
Encoding: 203 203 198
Width: 543
VWidth: 0
Flags: HW
HStem: 0 162<292 520> 397 162<292 520> 641 162<292 520> 848 153<84 238 302 455>
VStem: 19 501<0 162 397 559 641 803> 19 273<162 397 559 641> 84 153<848 1002> 302 153<848 1002>
LayerCount: 2
Fore
SplineSet
520 641 m 1xf8
 292 641 l 1
 292 559 l 1xf4
 520 559 l 1
 520 397 l 1xf8
 292 397 l 1
 292 162 l 1xf4
 520 162 l 1
 520 0 l 1
 19 0 l 1
 19 803 l 1
 520 803 l 1
 520 641 l 1xf8
84 848 m 1xf2
 84 1002 l 1
 238 1002 l 1
 238 848 l 1
 84 848 l 1xf2
302 848 m 1xf1
 302 1002 l 1
 455 1002 l 1
 455 848 l 1
 302 848 l 1xf1
EndSplineSet
Validated: 1
EndChar

StartChar: Egrave
Encoding: 200 200 199
Width: 533
VWidth: 0
Flags: HW
HStem: 0 162<288 515> 396 162<288 515> 639 162<288 515>
VStem: 15 500<0 162 396 558 639 802> 15 272<162 396 558 639>
LayerCount: 2
Fore
SplineSet
515 639 m 1xf0
 288 639 l 1
 288 558 l 1xe8
 515 558 l 1
 515 396 l 1xf0
 288 396 l 1
 288 162 l 1xe8
 515 162 l 1
 515 0 l 1
 15 0 l 1
 15 802 l 1
 515 802 l 1
 515 639 l 1xf0
96 891 m 1
 96 1000 l 1
 435 922 l 1
 435 847 l 1
 96 891 l 1
EndSplineSet
Validated: 1
EndChar

StartChar: Uacute
Encoding: 218 218 200
Width: 645
VWidth: 0
Flags: HW
HStem: 0 21G<178 460>
VStem: 13 266<174 802> 359 264<174 281 281 802>
LayerCount: 2
Fore
SplineSet
623 802 m 1
 625 281 l 1
 625 281 623 173 620 150 c 0
 617 125 609 100 597 77 c 0
 585 54 565 35 539 21 c 0
 513 7 480 0 440 0 c 2
 198 0 l 2
 158 0 125 7 99 21 c 0
 73 35 53 54 41 77 c 0
 29 100 21 125 18 150 c 0
 15 173 13 216 13 281 c 2
 13 802 l 1
 279 802 l 1
 279 294 l 2
 279 226 281 187 285 174 c 0
 289 161 301 154 319 154 c 0
 319 154 l 0
 319 154 l 0
 337 154 349 161 353 174 c 0
 357 187 359 226 359 294 c 2
 359 802 l 1
 359 802 l 1
 623 802 l 1
486 884 m 1
 152 840 l 1
 152 914 l 1
 485 991 l 1
 486 884 l 1
EndSplineSet
Validated: 5
EndChar

StartChar: Ugrave
Encoding: 217 217 201
Width: 653
VWidth: 0
Flags: HW
HStem: 0 21G<187 469>
VStem: 22 266<174 802> 368 264<174 281 281 802>
LayerCount: 2
Fore
SplineSet
632 802 m 1
 634 281 l 1
 634 281 632 173 629 150 c 0
 626 125 618 100 606 77 c 0
 594 54 574 35 548 21 c 0
 522 7 489 0 449 0 c 2
 207 0 l 2
 167 0 134 7 108 21 c 0
 82 35 62 54 50 77 c 0
 38 100 30 125 27 150 c 0
 24 173 22 216 22 281 c 2
 22 802 l 1
 288 802 l 1
 288 294 l 2
 288 226 290 187 294 174 c 0
 298 161 310 154 328 154 c 0
 328 154 l 0
 328 154 l 0
 346 154 358 161 362 174 c 0
 366 187 368 226 368 294 c 2
 368 802 l 1
 368 802 l 1
 632 802 l 1
161 884 m 1
 161 991 l 1
 495 914 l 1
 495 840 l 1
 161 884 l 1
EndSplineSet
Validated: 5
EndChar

StartChar: infinity
Encoding: 266 8734 202
Width: 1345
VWidth: 0
Flags: HW
HStem: 0 151<283 374 964 1060> 497 151<283 435 964 1060>
VStem: 1066 259<243 477>
LayerCount: 2
Fore
SplineSet
1322 501 m 0
 1324 483 1326 243 1326 243 c 1
 1325 197 1324 164 1322 146 c 0
 1319 121 1311 98 1299 75 c 0
 1287 52 1268 35 1242 21 c 0
 1216 7 1184 0 1145 0 c 2
 985 0 l 2
 920 -4 879 43 879 43 c 1
 700 218 l 1
 520 43 l 1
 520 43 480 -4 415 0 c 1
 415 0 l 1
 198 0 l 2
 159 0 127 7 101 21 c 0
 75 35 56 52 44 75 c 0
 32 98 25 121 22 146 c 0
 20 164 18 197 17 243 c 2
 17 243 20 483 22 501 c 0
 25 526 32 549 44 572 c 0
 56 595 75 613 101 627 c 0
 127 641 159 648 198 648 c 2
 415 648 l 2
 480 652 520 604 520 604 c 1
 700 429 l 1
 879 604 l 1
 879 604 920 652 985 648 c 2
 1145 648 l 2
 1184 648 1216 641 1242 627 c 0
 1268 613 1287 595 1299 572 c 0
 1311 549 1319 526 1322 501 c 0
444 180 m 1
 592 324 l 1
 440 471 l 1
 440 471 l 1
 438 473 l 2
 432 479 411 497 382 497 c 1
 353 497 316 497 316 497 c 0
 298 497 287 490 283 478 c 0
 279 466 277 426 277 360 c 2
 277 288 l 2
 277 222 279 182 283 170 c 0
 287 158 298 151 316 151 c 0
 316 151 347 151 374 151 c 1
 374 151 414 151 444 180 c 2
 444 180 l 1
1066 288 m 1
 1066 288 l 1
 1066 360 l 2
 1066 426 1064 466 1060 478 c 0
 1056 490 1045 497 1027 497 c 0
 1027 497 1026 497 1025 497 c 0
 987 497 959 471 954 466 c 2
 954 466 l 1
 808 324 l 1
 958 178 l 1
 958 178 983 153 1009 151 c 0
 1012 151 1015 151 1017 151 c 0
 1018 151 1019 151 1020 151 c 0
 1024 151 1027 151 1027 151 c 0
 1045 151 1056 158 1060 170 c 0
 1064 182 1066 222 1066 288 c 1
EndSplineSet
Validated: 37
EndChar

StartChar: Icircumflex
Encoding: 206 206 203
Width: 440
VWidth: 0
Flags: HW
HStem: 0 161<15 95 353 428> 642 158<15 95 353 428> 965 24<179 264>
VStem: 15 413<0 161 642 799> 115 24<839 924> 304 24<839 924>
LayerCount: 2
Fore
SplineSet
428 642 m 1xf0
 353 642 l 1
 353 161 l 1
 428 161 l 1
 428 0 l 1
 353 0 l 1
 95 0 l 1
 15 0 l 1
 15 161 l 1
 95 161 l 1
 95 642 l 1
 15 642 l 1
 15 799 l 1xf0
 95 799 l 1
 154 799 l 2
 130 819 115 849 115 882 c 0
 115 941 163 989 222 989 c 0
 281 989 329 941 329 882 c 0xec
 329 849 313 819 289 799 c 2
 353 799 l 1
 428 799 l 1
 428 642 l 1xf0
139 882 m 0xec
 139 836 175 799 221 799 c 2
 222 799 l 2
 268 799 304 836 304 882 c 0
 304 928 268 965 222 965 c 0
 176 965 139 928 139 882 c 0xec
EndSplineSet
Validated: 1
EndChar

StartChar: Ocircumflex
Encoding: 212 212 204
Width: 645
VWidth: 0
Flags: HW
HStem: 0 21G<182 463> 965 24<281 364>
VStem: 17 266<174 628> 218 24<841 925> 363 266<174 628> 404 24<841 925>
LayerCount: 2
Fore
SplineSet
629 521 m 1xd4
 629 521 l 1
 629 502 l 1
 629 300 l 1
 629 281 l 1
 629 281 l 1
 629 216 627 173 624 150 c 0
 621 125 613 100 601 77 c 0
 589 54 569 35 543 21 c 0
 517 7 483 0 443 0 c 2
 323 0 l 1
 202 0 l 2
 162 0 129 7 103 21 c 0
 77 35 57 54 45 77 c 0
 33 100 24 125 21 150 c 0
 18 173 17 216 17 281 c 1
 17 281 l 1
 17 300 l 1
 17 502 l 1
 17 521 l 1xe8
 17 521 l 1
 17 586 18 629 21 652 c 0
 24 677 33 702 45 725 c 0
 57 748 77 767 103 781 c 0
 129 795 162 802 202 802 c 2
 256 802 l 2
 232 821 218 850 218 883 c 0
 218 941 265 988 323 988 c 0
 381 988 428 941 428 883 c 0
 428 850 413 821 389 802 c 2
 443 802 l 2
 483 802 517 795 543 781 c 0
 569 767 589 748 601 725 c 0
 613 702 621 677 624 652 c 0
 627 629 629 586 629 521 c 1xd4
241 883 m 0xd4
 241 838 277 802 322 802 c 2
 323 802 l 1
 323 802 l 2
 368 802 404 838 404 883 c 0
 404 928 368 965 323 965 c 0
 278 965 241 928 241 883 c 0xd4
363 294 m 2xe8
 363 507 l 2
 363 575 361 615 357 628 c 0
 353 641 341 647 323 647 c 0
 323 647 l 0
 322 647 l 0
 304 647 292 641 288 628 c 0
 284 615 282 575 282 507 c 2
 282 294 l 2
 282 226 284 187 288 174 c 0
 292 161 304 154 322 154 c 0
 323 154 l 0
 323 154 l 0
 341 154 353 161 357 174 c 0
 361 187 363 226 363 294 c 2xe8
EndSplineSet
Validated: 5
EndChar

StartChar: Ucircumflex
Encoding: 219 219 205
Width: 645
VWidth: 0
Flags: HW
HStem: 0 21G<181 463> 778 24<283 361> 965 24<280 363>
VStem: 16 266<174 786> 217 24<841 925> 362 264<174 281 281 786> 403 24<841 925>
LayerCount: 2
Fore
SplineSet
626 802 m 1xe4
 628 281 l 1
 628 281 626 173 623 150 c 0
 620 125 612 100 600 77 c 0
 588 54 568 35 542 21 c 0
 516 7 483 0 443 0 c 2
 201 0 l 2
 161 0 128 7 102 21 c 0
 76 35 56 54 44 77 c 0
 32 100 24 125 21 150 c 0
 18 173 16 216 16 281 c 2
 16 802 l 1xf4
 255 802 l 2
 231 821 217 850 217 883 c 0
 217 941 264 988 322 988 c 0
 380 988 427 941 427 883 c 0xea
 427 850 413 821 389 802 c 2
 626 802 l 1xe4
241 883 m 0xea
 241 838 277 802 322 802 c 0
 367 802 403 838 403 883 c 0
 403 928 367 965 322 965 c 0
 277 965 241 928 241 883 c 0xea
356 174 m 0
 360 187 362 226 362 294 c 2
 362 786 l 2
 350 781 336 778 322 778 c 0
 308 778 294 781 282 786 c 2
 282 294 l 2xf4
 282 226 284 187 288 174 c 0
 292 161 304 154 322 154 c 0
 322 154 l 0
 322 154 l 0
 340 154 352 161 356 174 c 0
EndSplineSet
Validated: 5
EndChar

StartChar: radical
Encoding: 267 8730 206
Width: 764
VWidth: 0
Flags: HW
HStem: 0 21G<284 514> 475 158<22 153>
LayerCount: 2
Fore
SplineSet
514 802 m 1
 739 802 l 1
 509 0 l 1
 290 0 l 1
 153 475 l 1
 22 475 l 1
 22 633 l 1
 332 633 l 1
 399 398 l 1
 514 802 l 1
EndSplineSet
Validated: 1
EndChar

StartChar: florin
Encoding: 131 402 207
Width: 478
VWidth: 0
Flags: HW
HStem: 0 136<17 105> 386 138<17 110 360 453> 664 136<365 453>
VStem: 106 253<138 386 524 645>
LayerCount: 2
Fore
SplineSet
365 645 m 0
 365 644 359 571 359 524 c 1
 453 524 l 1
 453 386 l 1
 360 386 l 1
 360 341 359 134 359 132 c 0
 356 110 350 89 339 68 c 0
 328 47 310 31 287 19 c 0
 264 7 234 0 199 0 c 2
 17 0 l 1
 17 136 l 1
 17 136 71 136 72 136 c 0
 91 136 102 142 106 155 c 0
 106 156 109 284 110 386 c 1
 17 386 l 1
 17 524 l 1
 110 524 l 2
 110 542 111 666 111 669 c 0
 114 691 121 712 132 733 c 0
 143 754 160 770 183 782 c 0
 206 794 236 801 271 801 c 2
 453 801 l 1
 453 664 l 1
 453 664 399 664 398 664 c 0
 379 664 369 658 365 645 c 0
EndSplineSet
Validated: 1
EndChar

StartChar: pi
Encoding: 268 960 208
Width: 780
VWidth: 0
Flags: HW
HStem: 0 21G<79 351 600 766> 504 153<13 79 351 440 700 766>
VStem: 79 272<0 504> 436 263<173 246 246 504>
LayerCount: 2
Fore
SplineSet
765 504 m 1
 700 504 l 1
 700 292 l 2
 700 225 702 185 706 172 c 0
 710 159 721 153 739 153 c 0
 766 153 l 2
 766 0 l 1
 620 0 l 2
 580 0 548 7 522 21 c 0
 496 35 476 53 464 76 c 0
 452 99 444 123 441 148 c 0
 439 167 437 200 436 246 c 2
 436 246 438 465 440 504 c 1
 351 504 l 1
 351 0 l 1
 79 0 l 1
 79 504 l 1
 13 504 l 1
 13 657 l 1
 79 657 l 1
 351 657 l 1
 620 657 l 1
 766 657 l 1
 766 504 l 1
 765 504 l 1
EndSplineSet
Validated: 1
EndChar

StartChar: partialdiff
Encoding: 269 8706 209
Width: 663
VWidth: 0
Flags: HW
HStem: 0 21G<203 472> 629 172<56 344>
VStem: 33 257<171 363> 369 258<171 363>
LayerCount: 2
Fore
SplineSet
626 370 m 2
 627 316 628 163 626 147 c 0
 623 122 615 99 603 76 c 0
 591 53 571 35 545 21 c 0
 521 8 490 1 454 0 c 2
 203 0 l 2
 167 1 137 8 113 21 c 0
 87 35 68 53 56 76 c 0
 44 99 36 122 33 147 c 0
 33 150 31 371 33 387 c 0
 36 412 44 435 56 458 c 0
 68 481 87 499 113 513 c 0
 139 527 171 534 210 534 c 2
 217 534 l 1
 311 534 l 2
 313 534 l 2
 344 534 l 1
 344 553 l 1
 344 605 l 2
 340 621 329 628 310 628 c 2
 280 628 l 1
 280 628 l 2
 278 628 276 629 274 629 c 0
 273 629 56 629 56 629 c 1
 56 798 l 1
 418 800 l 2
 463 800 500 792 530 773 c 0
 560 754 581 729 595 698 c 0
 605 677 613 653 618 630 c 0
 621 616 623 601 625 587 c 0
 628 563 628 538 626 513 c 2
 626 370 l 2
363 171 m 0
 367 182 369 214 369 267 c 0
 369 320 367 352 363 363 c 0
 359 376 347 382 329 382 c 0
 329 382 l 0
 329 382 l 0
 311 382 300 376 296 363 c 0
 292 352 289 320 289 267 c 0
 289 214 292 182 296 171 c 0
 300 158 311 152 329 152 c 0
 329 152 l 0
 329 152 l 0
 347 152 359 158 363 171 c 0
EndSplineSet
Validated: 37
EndChar

StartChar: Ecircumflex
Encoding: 202 202 210
Width: 535
VWidth: 0
Flags: HW
HStem: 0 162<293 520> 396 162<293 520> 639 162<293 325 335 520> 965 24<229 312>
VStem: 21 500<0 162 396 558 639 801> 21 272<162 396 558 639> 165 24<841 925> 352 24<841 925>
LayerCount: 2
Fore
SplineSet
520 639 m 1xf8
 293 639 l 1
 293 558 l 1xf4
 520 558 l 1
 520 396 l 1xf8
 293 396 l 1
 293 162 l 1xf4
 520 162 l 1
 520 0 l 1
 21 0 l 1xf8
 21 801 l 1xf4
 206 801 l 2
 181 820 165 849 165 883 c 0
 165 941 213 988 271 988 c 0
 329 988 376 941 376 883 c 0xf3
 376 849 360 820 335 801 c 2
 520 801 l 1
 520 639 l 1xf8
189 883 m 0xf3
 189 838 226 802 271 802 c 0
 316 802 352 838 352 883 c 0
 352 928 316 965 271 965 c 0
 226 965 189 928 189 883 c 0xf3
EndSplineSet
Validated: 1
EndChar

StartChar: Otilde
Encoding: 213 213 211
Width: 659
VWidth: 0
Flags: HW
HStem: 0 21G<191 472>
VStem: 26 266<174 628> 372 266<174 628>
LayerCount: 2
Fore
SplineSet
638 521 m 1
 638 521 l 1
 638 502 l 1
 638 300 l 1
 638 281 l 1
 638 281 l 1
 638 216 636 173 633 150 c 0
 630 125 622 100 610 77 c 0
 598 54 578 35 552 21 c 0
 526 7 492 0 452 0 c 2
 332 0 l 1
 211 0 l 2
 171 0 138 7 112 21 c 0
 86 35 66 54 54 77 c 0
 42 100 33 125 30 150 c 0
 27 173 26 216 26 281 c 1
 26 281 l 1
 26 300 l 1
 26 502 l 1
 26 521 l 1
 26 521 l 1
 26 586 27 629 30 652 c 0
 33 677 42 702 54 725 c 0
 66 748 86 767 112 781 c 0
 138 795 171 802 211 802 c 2
 332 802 l 1
 452 802 l 2
 492 802 526 795 552 781 c 0
 578 767 598 748 610 725 c 0
 622 702 630 677 633 652 c 0
 636 629 638 586 638 521 c 1
372 294 m 2
 372 507 l 2
 372 575 370 615 366 628 c 0
 362 641 350 647 332 647 c 0
 332 647 l 0
 331 647 l 0
 313 647 301 641 297 628 c 0
 293 615 291 575 291 507 c 2
 291 294 l 2
 291 226 293 187 297 174 c 0
 301 161 313 154 331 154 c 0
 332 154 l 0
 332 154 l 0
 350 154 362 161 366 174 c 0
 370 187 372 226 372 294 c 2
165 962 m 1
 165 962 230 1025 332 983 c 0
 453 933 498 997 498 997 c 1
 498 862 l 1
 498 862 415 827 332 862 c 0
 234 904 165 846 165 846 c 1
 165 962 l 1
EndSplineSet
Validated: 37
EndChar

StartChar: Omega
Encoding: 270 8486 212
Width: 821
VWidth: 0
Flags: HW
HStem: 0 158<21 109 713 802>
VStem: 105 266<158 628> 451 266<160 628>
LayerCount: 2
Fore
SplineSet
713 158 m 2
 802 158 l 1
 802 0 l 1
 532 0 l 1
 452 0 l 1
 451 0 l 1
 451 507 l 2
 451 575 449 615 445 628 c 0
 441 641 429 647 411 647 c 0
 411 647 l 0
 411 647 l 0
 393 647 381 641 377 628 c 0
 373 615 371 575 371 507 c 2
 371 158 l 1
 371 -0 l 1
 290 -0 l 1
 21 -0 l 1
 21 158 l 1
 109 158 l 2
 107 183 105 224 105 281 c 1
 105 281 l 1
 105 300 l 1
 105 502 l 1
 105 521 l 1
 105 521 l 1
 105 586 107 629 110 652 c 0
 113 677 121 702 133 725 c 0
 145 748 165 767 191 781 c 0
 217 795 250 802 290 802 c 2
 411 802 l 1
 532 802 l 2
 572 802 605 795 631 781 c 0
 657 767 677 748 689 725 c 0
 701 702 709 677 712 652 c 0
 715 629 717 586 717 521 c 1
 717 521 l 1
 717 502 l 1
 717 300 l 1
 717 281 l 1
 717 281 l 1
 717 224 715 183 713 158 c 2
EndSplineSet
Validated: 5
EndChar

StartChar: product
Encoding: 271 8719 213
Width: 857
VWidth: 0
Flags: HW
HStem: 0 21G<107 381 470 741> 642 161<17 107 381 470 741 831>
VStem: 107 274<0 642> 470 271<0 642>
LayerCount: 2
Fore
SplineSet
831 803 m 1
 831 642 l 1
 741 642 l 1
 741 0 l 1
 470 0 l 1
 470 642 l 1
 381 642 l 1
 381 0 l 1
 107 0 l 1
 107 642 l 1
 17 642 l 1
 17 803 l 1
 831 803 l 1
EndSplineSet
Validated: 1
EndChar

StartChar: hungarumlaut
Encoding: 272 733 214
Width: 409
VWidth: 0
Flags: HW
HStem: 588 211<61 158 248 345>
LayerCount: 2
Fore
SplineSet
387 799 m 1
 345 588 l 1
 206 588 l 1
 248 799 l 1
 387 799 l 1
61 799 m 1
 200 799 l 1
 158 588 l 1
 19 588 l 1
 61 799 l 1
EndSplineSet
Validated: 1
EndChar

StartChar: caron
Encoding: 273 711 215
Width: 394
VWidth: 0
Flags: HW
HStem: 650 150
LayerCount: 2
Fore
SplineSet
12 800 m 1
 194 752 l 1
 377 800 l 1
 377 699 l 1
 194 650 l 1
 12 699 l 1
 12 800 l 1
EndSplineSet
Validated: 1
EndChar

StartChar: cedilla
Encoding: 184 184 216
Width: 267
VWidth: 0
Flags: HW
HStem: 0 76<11 176> 108 114<47 123> 108 76<123 176>
VStem: 47 76<185 223> 179 76<77 107>
LayerCount: 2
Fore
SplineSet
47 223 m 1xd8
 123 223 l 1xd8
 123 185 l 1
 162 185 l 2
 213 185 255 143 255 92 c 0
 255 41 213 0 162 0 c 2
 11 0 l 1
 11 76 l 1
 162 76 l 2
 171 76 179 83 179 92 c 0
 179 101 171 108 162 108 c 2xb8
 47 108 l 1
 47 223 l 1xd8
EndSplineSet
Validated: 1
EndChar

StartChar: ogonek
Encoding: 274 731 217
Width: 281
VWidth: 0
Flags: HW
HStem: 0 76<98 264>
VStem: 20 76<78 108>
LayerCount: 2
Fore
SplineSet
112 76 m 2
 112 76 l 1
 264 76 l 1
 264 0 l 1
 112 0 l 2
 61 0 20 41 20 92 c 0
 20 97 21 103 22 108 c 2
 96 108 l 1
 96 92 l 2
 96 83 103 76 112 76 c 2
EndSplineSet
Validated: 5
EndChar

StartChar: breve
Encoding: 275 728 218
Width: 229
VWidth: 0
Flags: HW
HStem: 694 24<72 155> 779 20G<8 32 195 219>
VStem: 8 24<758 799> 195 24<758 799>
LayerCount: 2
Fore
SplineSet
113 718 m 0
 158 718 195 754 195 799 c 1
 219 799 l 1
 219 741 171 694 113 694 c 0
 55 694 8 741 8 799 c 1
 32 799 l 1
 32 754 68 718 113 718 c 0
EndSplineSet
Validated: 1
EndChar

StartChar: integral
Encoding: 276 8747 219
Width: 478
VWidth: 0
Flags: HW
HStem: 0 137<20 109> 665 137<368 457>
VStem: 109 254<138 663>
LayerCount: 2
Fore
SplineSet
368 646 m 0
 368 645 363 134 363 132 c 0
 360 110 353 89 342 68 c 0
 331 47 314 31 291 19 c 0
 268 7 238 0 203 0 c 2
 20 0 l 1
 20 136 l 1
 20 136 74 137 75 137 c 0
 94 137 105 143 109 156 c 0
 109 157 114 666 114 669 c 0
 117 691 124 713 135 734 c 0
 146 755 163 771 186 783 c 0
 209 795 239 802 274 802 c 2
 457 802 l 1
 457 665 l 1
 457 665 403 665 402 665 c 0
 383 665 372 659 368 646 c 0
EndSplineSet
Validated: 1
EndChar

StartChar: Delta
Encoding: 277 8710 220
Width: 738
VWidth: 0
Flags: HW
HStem: 0 112<196 527>
LayerCount: 2
Fore
SplineSet
362 659 m 1
 718 0 l 1
 6 0 l 1
 362 659 l 1
196 112 m 1
 527 112 l 1
 362 412 l 1
 196 112 l 1
EndSplineSet
Validated: 1
EndChar

StartChar: lozenge
Encoding: 278 9674 221
Width: 753
VWidth: 0
Flags: HW
HStem: 0 21G<356 391>
LayerCount: 2
Fore
SplineSet
374 803 m 1
 730 401 l 1
 374 0 l 1
 18 401 l 1
 374 803 l 1
374 150 m 1
 601 401 l 1
 374 653 l 1
 147 401 l 1
 374 150 l 1
EndSplineSet
Validated: 1
EndChar

StartChar: summation
Encoding: 279 8721 222
Width: 646
VWidth: 0
Flags: HW
HStem: 0 163<387 625> 641 163<389 625>
LayerCount: 2
Fore
SplineSet
625 804 m 1
 625 641 l 1
 389 641 l 1
 625 403 l 1
 625 403 l 1
 387 163 l 1
 625 163 l 1
 625 0 l 1
 11 0 l 1
 11 162 l 1
 258 384 l 1
 11 628 l 1
 11 804 l 1
 625 804 l 1
EndSplineSet
Validated: 5
EndChar

StartChar: Euro
Encoding: 128 8364 223
Width: 592
VWidth: 0
Flags: HW
LayerCount: 2
Fore
SplineSet
584 430.274414062 m 1
 407.703125 430.274414062 l 1
 407.703125 370.975585938 l 1
 584.00390625 370.975585938 l 1
 584.00390625 233.051757812 l 1
 408.512695312 233.051757812 l 1
 409.461914062 202.790039062 411.232421875 183.59765625 413.875 175.577148438 c 0
 418 162.987304688 429.171875 156.709960938 447.390625 156.709960938 c 0
 447.505859375 156.709960938 582.455078125 156.861328125 583.99609375 156.96484375 c 2
 584.00390625 156.96484375 l 1
 584.00390625 3.8251953125 l 1
 328.333007812 3.8251953125 l 2
 288.873046875 3.8251953125 256.1171875 10.7568359375 230.095703125 24.640625 c 0
 204.075195312 38.51953125 184.87890625 56.9482421875 172.518554688 79.9365234375 c 0
 160.16015625 102.924804688 152.423828125 126.879882812 149.423828125 151.828125 c 0
 147.438476562 168.234375 146.091796875 195.357421875 145.405273438 233.051757812 c 1
 5.5244140625 233.051757812 l 1
 5.5244140625 370.975585938 l 1
 144.87109375 370.975585938 l 1
 144.87109375 430.274414062 l 1
 5.5244140625 430.274414062 l 1
 5.5244140625 568.194335938 l 1
 145.397460938 568.194335938 l 1
 146.083007812 605.888671875 147.426757812 633.015625 149.411132812 649.4140625 c 0
 152.423828125 674.366210938 160.147460938 698.3203125 172.506835938 721.30078125 c 0
 184.862304688 744.297851562 204.05859375 762.713867188 230.079101562 776.59765625 c 0
 256.109375 790.481445312 288.856445312 797.424804688 328.321289062 797.424804688 c 2
 583.9921875 797.424804688 l 1
 583.9921875 644.470703125 l 2
 582.41015625 644.5859375 453.611328125 644.701171875 447.385742188 644.701171875 c 2
 447.385742188 644.5234375 l 1
 429.163085938 644.5234375 417.99609375 638.25390625 413.87109375 625.66015625 c 0
 411.237304688 617.643554688 409.454101562 598.456054688 408.512695312 568.194335938 c 1
 584 568.194335938 l 1
 584 430.274414062 l 1
EndSplineSet
Validated: 524289
EndChar
